{"glyphs":{"0":{"ha":696,"x_min":36,"x_max":660,"o":"m 660 359 q 660 276 660 359 q 569 88 660 193 q 337 -17 479 -17 q 115 76 194 -17 q 36 334 36 168 q 127 604 36 500 q 360 708 218 708 q 581 617 503 708 q 660 359 660 525 m 149 347 q 149 306 149 347 q 204 215 149 265 q 353 165 260 165 q 497 210 446 165 q 547 337 547 254 q 492 469 547 419 q 343 519 436 519 q 199 474 250 519 q 149 347 149 429 z "},"1":{"ha":507,"x_min":29,"x_max":474,"o":"m 342 183 q 355 111 342 132 q 403 90 368 90 l 471 94 l 474 88 l 458 -6 q 275 0 329 0 q 43 -15 196 0 l 54 72 q 151 106 125 79 q 178 200 178 132 l 178 499 q 163 563 178 547 q 107 578 147 578 l 38 571 l 29 581 l 38 660 q 394 708 147 671 l 408 667 q 356 558 364 631 q 342 183 342 401 z "},"2":{"ha":672,"x_min":21,"x_max":651,"o":"m 331 476 q 244 561 331 561 q 162 533 204 561 q 89 454 119 504 l 69 454 l 46 557 q 172 668 100 628 q 328 708 243 708 q 474 659 414 708 q 533 537 533 610 q 481 385 533 464 q 274 140 428 307 l 279 129 l 413 129 q 505 155 478 129 q 546 256 532 181 l 651 265 q 613 4 622 117 l 593 -12 q 121 0 251 0 l 32 -12 l 21 33 l 125 149 q 283 352 236 276 q 331 476 331 428 z "},"3":{"ha":599,"x_min":15,"x_max":543,"o":"m 85 507 l 68 506 l 39 604 q 158 672 81 636 q 313 708 235 708 q 447 664 390 708 q 503 554 503 619 q 461 438 503 489 q 350 357 419 386 l 350 346 q 543 163 543 294 q 411 -43 543 53 q 128 -139 279 -139 q 45 -107 69 -139 q 15 3 21 -75 l 35 22 q 164 4 88 4 q 298 42 240 4 q 356 136 356 79 q 306 220 356 193 q 150 247 256 247 l 138 261 l 128 347 l 218 367 q 294 424 265 388 q 322 497 322 461 q 298 554 322 533 q 238 575 274 575 q 85 507 164 575 z "},"4":{"ha":650,"x_min":3,"x_max":625,"o":"m 375 706 q 383 708 376 706 l 500 693 l 500 218 l 614 218 l 625 203 l 613 88 q 501 92 568 89 l 510 -110 l 499 -122 l 339 -139 l 328 -125 q 336 96 333 -4 q 3 101 117 101 l 7 194 l 375 706 m 336 218 l 336 465 l 322 465 l 149 218 l 336 218 z "},"5":{"ha":593,"x_min":1,"x_max":544,"o":"m 532 181 q 398 -40 532 60 q 113 -139 264 -139 q 32 -108 57 -139 q 1 3 7 -76 l 19 22 q 151 4 74 4 q 289 42 229 4 q 349 135 349 79 q 290 223 349 192 q 86 275 232 254 l 74 290 l 101 665 l 113 676 l 381 686 q 439 700 421 689 q 468 742 457 711 l 544 747 l 508 543 l 490 525 q 214 536 364 536 l 203 413 q 451 326 369 379 q 532 181 532 274 z "},"6":{"ha":644,"x_min":39,"x_max":610,"o":"m 610 265 q 527 63 610 142 q 315 -17 444 -17 q 113 67 186 -17 q 39 283 39 150 q 65 446 39 369 q 134 576 92 522 q 228 674 176 629 q 332 747 281 719 q 494 822 446 808 l 521 831 l 535 824 l 563 747 q 485 710 538 740 q 396 650 433 681 q 316 568 358 619 q 250 458 274 517 l 257 450 q 283 464 261 451 q 375 501 349 497 q 547 433 483 501 q 610 265 610 364 m 444 231 q 444 263 444 231 q 411 338 444 296 q 322 379 378 379 q 211 340 265 379 q 208 282 208 301 q 241 145 208 194 q 330 96 274 96 q 415 131 386 96 q 444 231 444 165 z "},"7":{"ha":593,"x_min":35,"x_max":594,"o":"m 239 692 l 540 692 l 594 625 q 322 18 443 311 l 279 -139 l 256 -139 l 129 -101 l 114 -67 l 425 547 l 239 536 q 152 508 174 531 q 118 414 131 486 l 35 406 q 61 690 54 564 l 69 697 q 239 692 153 692 z "},"8":{"ha":665,"x_min":53,"x_max":610,"o":"m 53 181 q 208 386 53 317 q 71 596 71 472 q 151 761 71 692 q 340 831 231 831 q 519 776 449 831 q 590 636 590 722 q 465 449 590 514 q 571 361 532 410 q 610 242 610 313 q 524 58 610 132 q 320 -17 439 -17 q 127 38 201 -17 q 53 181 53 92 m 204 217 q 241 124 204 163 q 331 86 278 86 q 417 117 385 86 q 450 193 450 147 q 413 269 450 239 q 332 319 375 299 q 283 343 289 340 q 204 217 204 294 m 333 721 q 310 721 333 721 q 260 694 288 721 q 233 633 233 668 q 257 571 233 597 q 305 531 281 544 q 382 490 329 517 q 436 598 436 536 q 407 690 436 660 q 333 721 378 721 z "},"9":{"ha":644,"x_min":33,"x_max":606,"o":"m 388 242 q 268 190 289 192 q 97 258 160 190 q 33 426 33 326 q 117 629 33 550 q 328 708 200 708 q 531 625 457 708 q 606 408 606 542 q 579 246 606 322 q 510 116 553 169 q 416 17 468 63 q 313 -57 364 -29 q 124 -140 207 -114 l 110 -132 l 82 -56 q 157 -19 104 -49 q 248 41 210 11 q 328 122 286 71 q 393 232 369 174 l 388 242 m 200 460 q 200 427 200 460 q 233 353 200 394 q 319 313 265 313 q 432 350 374 313 q 436 410 436 379 q 403 546 436 496 q 314 596 369 596 q 229 561 258 596 q 200 460 200 526 z "}," ":{"ha":242,"x_min":0,"x_max":0,"o":""},"!":{"ha":396,"x_min":69,"x_max":325,"o":"m 285 98 q 285 73 285 98 q 254 17 285 49 q 173 -15 224 -15 q 96 13 122 -15 q 69 91 69 42 q 100 172 69 140 q 181 204 131 204 q 258 176 231 204 q 285 98 285 147 m 129 328 l 100 925 l 117 949 l 303 979 l 325 954 l 239 325 l 150 310 l 129 328 z "},"\"":{"ha":446,"x_min":60,"x_max":411,"o":"m 69 572 q 69 638 69 600 q 60 889 69 760 l 199 908 l 210 894 q 157 594 189 742 l 90 567 l 69 572 m 271 572 q 271 638 271 600 q 261 889 271 760 l 400 908 l 411 894 q 358 594 390 742 l 292 567 l 271 572 z "},"#":{"ha":731,"x_min":13,"x_max":713,"o":"m 68 488 l 60 503 l 81 600 l 218 599 l 256 792 l 357 801 l 372 793 l 329 599 l 394 599 l 460 597 l 497 792 l 599 801 l 614 793 l 571 599 l 706 601 l 713 585 l 693 488 l 549 488 l 524 358 l 658 360 l 665 343 l 646 247 l 504 247 l 468 61 l 369 46 l 356 57 l 394 247 l 317 249 l 264 247 l 228 61 l 129 46 l 115 57 l 154 247 l 21 246 l 13 263 l 33 358 l 174 357 l 200 488 l 68 488 m 308 489 l 282 357 l 343 357 l 415 356 l 440 489 l 308 489 z "},"$":{"ha":647,"x_min":47,"x_max":594,"o":"m 175 236 q 201 128 175 158 q 286 99 228 99 q 374 118 344 99 q 403 169 403 138 q 388 208 403 194 q 365 228 372 221 q 337 244 357 235 q 307 258 317 254 q 222 297 294 265 q 103 373 150 329 q 56 494 56 417 q 124 631 56 572 q 304 704 192 689 l 326 901 l 422 914 l 431 901 l 410 707 q 575 679 497 704 l 585 663 q 556 476 564 574 l 458 468 l 447 476 q 449 507 449 492 q 424 572 449 551 q 349 592 399 592 q 272 573 300 592 q 243 530 243 554 q 253 490 243 506 q 292 458 264 475 q 381 415 324 440 q 466 376 438 390 q 528 336 494 361 q 594 202 594 286 q 524 60 594 118 q 331 -8 453 3 l 308 -210 l 214 -221 l 206 -211 l 226 -11 q 58 29 140 -6 l 47 46 q 68 228 65 144 l 175 236 z "},"%":{"ha":990,"x_min":25,"x_max":982,"o":"m 239 567 q 353 658 353 567 q 319 736 353 707 q 224 765 286 765 q 113 675 113 765 q 148 594 113 621 q 239 567 183 567 m 440 678 q 440 624 440 678 q 382 500 440 571 q 226 429 324 429 q 77 491 129 429 q 25 662 25 553 q 85 840 25 771 q 242 908 144 908 q 390 847 340 908 q 440 678 440 785 m 781 122 q 893 213 893 122 q 860 291 893 261 q 768 321 826 321 q 681 297 710 321 q 653 224 653 272 q 688 149 653 175 q 781 122 724 122 m 982 232 q 982 178 982 232 q 924 54 982 125 q 768 -17 865 -17 q 619 45 671 -17 q 567 217 567 107 q 626 394 567 326 q 783 463 686 463 q 931 401 881 463 q 982 232 982 339 m 843 907 l 853 881 q 483 315 608 510 l 203 -129 l 113 -92 l 106 -72 q 393 367 274 178 l 757 942 l 843 907 z "},"&":{"ha":903,"x_min":42,"x_max":1010,"o":"m 400 -17 q 140 83 238 -17 q 42 344 42 182 q 120 564 42 471 q 306 657 199 657 q 397 628 361 657 q 432 556 432 600 l 425 524 l 432 519 q 572 690 526 608 q 622 869 617 771 l 636 883 l 683 883 q 750 747 750 775 q 713 669 750 718 q 518 447 633 547 q 204 232 403 347 q 432 108 274 108 q 594 161 532 108 q 668 310 656 214 l 618 315 q 586 302 606 315 q 542 261 567 289 l 533 261 l 486 315 l 486 321 l 588 432 l 608 439 q 740 426 635 439 q 864 413 846 413 q 940 454 894 413 l 956 468 l 965 468 l 1008 415 l 1010 408 l 911 297 l 888 289 l 789 299 q 644 72 754 161 q 400 -17 535 -17 m 265 521 q 190 482 219 521 q 161 392 161 443 q 169 304 161 342 q 288 391 257 358 q 318 464 318 424 q 265 521 318 521 z "},"'":{"ha":244,"x_min":60,"x_max":210,"o":"m 69 572 q 69 638 69 600 q 60 889 69 760 l 199 908 l 210 894 q 157 594 189 742 l 90 567 l 69 572 z "},"(":{"ha":429,"x_min":97,"x_max":408,"o":"m 97 226 l 97 467 q 123 642 97 563 q 185 768 149 722 q 319 889 258 863 l 344 901 l 360 901 l 403 838 l 401 829 q 352 789 382 819 q 303 724 322 758 q 267 626 283 689 q 250 488 250 563 l 250 247 q 266 97 250 165 q 306 -12 282 28 q 392 -122 354 -96 l 408 -133 l 408 -144 l 351 -203 l 340 -203 q 258 -151 303 -187 q 182 -70 214 -114 q 124 53 150 -26 q 97 226 97 132 z "},")":{"ha":429,"x_min":21,"x_max":332,"o":"m 332 472 l 332 232 q 306 56 332 136 q 244 -69 281 -24 q 111 -192 171 -164 l 85 -203 l 69 -203 l 26 -139 l 28 -131 q 77 -90 47 -121 q 126 -25 107 -60 q 163 73 146 10 q 179 211 179 136 l 179 451 q 163 602 179 533 q 124 711 147 671 q 36 821 75 794 l 21 832 l 21 843 l 78 901 l 89 901 q 171 849 126 886 q 247 769 215 813 q 306 646 279 725 q 332 472 332 567 z "},"*":{"ha":572,"x_min":57,"x_max":531,"o":"m 86 935 q 229 843 156 899 l 218 786 l 208 778 l 57 819 q 74 931 57 882 l 86 935 m 86 651 q 218 758 142 706 l 268 731 l 272 719 l 188 588 q 86 638 128 607 l 86 651 m 356 564 q 294 722 321 633 l 336 763 l 350 763 l 447 640 q 369 560 411 589 l 356 564 m 522 793 q 353 783 464 783 l 328 835 l 332 849 l 478 904 q 531 804 515 853 l 522 793 m 357 1022 q 313 858 342 946 l 254 851 l 244 857 l 236 1014 q 347 1033 297 1033 l 357 1022 z "},"+":{"ha":703,"x_min":24,"x_max":679,"o":"m 406 690 l 424 681 q 415 425 417 533 l 669 433 l 679 417 l 665 289 l 415 288 l 417 54 l 294 33 l 279 44 q 281 288 279 174 l 33 286 l 24 301 l 43 426 q 281 425 168 425 l 282 675 l 406 690 z "},",":{"ha":331,"x_min":6,"x_max":269,"o":"m 67 150 q 174 197 129 197 q 244 164 218 197 q 269 66 269 131 q 208 -71 269 1 q 57 -194 147 -143 l 6 -153 l 6 -129 q 78 -56 50 -99 q 106 36 106 -12 q 63 131 106 85 l 67 150 z "},"-":{"ha":450,"x_min":49,"x_max":401,"o":"m 389 435 l 401 417 l 390 306 l 61 269 l 49 286 l 58 394 l 389 435 z "},".":{"ha":331,"x_min":57,"x_max":274,"o":"m 243 17 q 228 1 243 17 q 161 -15 213 -15 q 83 13 110 -15 q 57 91 57 42 q 88 172 57 140 q 168 204 118 204 q 246 176 218 204 q 274 98 274 147 q 243 17 274 49 z "},"/":{"ha":457,"x_min":28,"x_max":443,"o":"m 425 938 l 443 917 q 274 299 333 524 l 158 -153 l 40 -153 l 28 -137 q 153 314 99 103 l 313 938 l 425 938 z "},":":{"ha":331,"x_min":54,"x_max":271,"o":"m 240 17 q 225 1 240 17 q 158 -15 210 -15 q 81 13 107 -15 q 54 91 54 42 q 85 172 54 140 q 165 204 115 204 q 243 176 215 204 q 271 98 271 147 q 240 17 271 49 m 240 396 q 225 380 240 396 q 158 364 210 364 q 81 392 107 364 q 54 470 54 421 q 85 551 54 519 q 165 583 115 583 q 243 555 215 583 q 271 477 271 526 q 240 396 271 428 z "},";":{"ha":331,"x_min":6,"x_max":271,"o":"m 67 150 q 174 197 129 197 q 244 164 218 197 q 269 66 269 131 q 208 -71 269 1 q 57 -194 147 -143 l 6 -153 l 6 -129 q 78 -56 50 -99 q 106 36 106 -12 q 63 131 106 85 l 67 150 m 240 396 q 225 380 240 396 q 158 364 210 364 q 81 392 107 364 q 54 470 54 421 q 85 551 54 519 q 165 583 115 583 q 243 555 215 583 q 271 477 271 526 q 240 396 271 428 z "},"<":{"ha":653,"x_min":39,"x_max":599,"o":"m 50 296 l 39 314 l 40 449 l 551 668 l 569 657 l 597 551 q 176 383 508 518 l 176 374 l 593 190 l 599 169 l 540 79 q 50 296 267 203 z "},"=":{"ha":703,"x_min":24,"x_max":679,"o":"m 669 311 l 679 294 l 665 167 l 33 164 l 24 179 l 43 304 q 368 303 244 303 l 669 311 m 669 558 l 679 542 l 665 414 l 33 411 l 24 426 l 43 551 q 368 550 244 550 l 669 558 z "},">":{"ha":653,"x_min":54,"x_max":614,"o":"m 603 451 l 614 433 l 613 297 l 101 79 l 83 89 l 56 196 q 476 363 156 232 l 476 372 l 60 556 l 54 578 l 113 668 q 340 564 233 613 l 603 451 z "},"?":{"ha":514,"x_min":68,"x_max":500,"o":"m 333 689 q 79 833 333 819 l 68 853 l 119 969 l 140 979 q 397 906 293 975 q 500 738 500 838 q 444 597 500 653 q 383 542 414 565 q 271 464 342 511 l 267 454 l 288 339 l 279 324 l 157 299 l 140 307 l 107 482 l 111 501 l 261 589 q 333 689 333 633 m 324 98 q 324 73 324 98 q 293 17 324 49 q 212 -15 263 -15 q 134 13 161 -15 q 107 91 107 42 q 138 172 107 140 q 219 204 169 204 q 297 176 269 204 q 324 98 324 147 z "},"@":{"ha":1199,"x_min":33,"x_max":1165,"o":"m 685 -219 l 683 -242 l 640 -311 q 194 -151 356 -306 q 33 249 33 3 q 83 491 33 374 q 215 697 132 608 q 417 838 299 785 q 668 892 536 892 q 1029 769 893 892 q 1165 448 1165 647 q 1037 116 1165 249 q 685 -17 908 -17 q 640 -1 656 -17 q 624 49 624 14 q 671 268 624 83 l 660 269 q 436 -17 544 60 q 318 38 360 -17 q 276 186 276 92 q 384 501 276 356 q 611 647 492 647 l 732 622 l 742 653 l 758 663 l 869 643 l 881 619 q 774 117 807 336 l 782 108 q 974 191 904 108 q 1044 408 1044 274 q 933 682 1044 583 q 622 781 821 781 q 290 637 422 781 q 157 276 157 493 q 291 -77 157 58 q 685 -219 425 -212 m 481 146 q 574 251 510 146 q 692 497 638 356 q 569 538 621 538 q 488 451 525 538 q 450 263 450 365 q 458 180 450 214 q 481 146 467 146 z "},"A":{"ha":868,"x_min":-17,"x_max":881,"o":"m 871 -4 q 704 0 761 0 q 465 -11 593 0 l 457 0 l 464 83 q 551 99 532 89 q 571 128 571 108 q 564 181 571 149 l 536 286 q 428 288 500 288 q 278 278 356 288 l 243 174 q 235 126 235 144 q 249 98 235 107 q 299 89 263 89 l 358 89 l 364 79 l 354 -8 q 151 0 240 0 l -17 -4 l -6 89 q 48 115 28 94 q 85 181 68 135 l 332 885 l 553 907 l 568 900 q 767 183 693 418 q 806 113 782 133 q 875 88 829 92 l 881 78 l 871 -4 m 408 397 q 511 403 453 397 l 431 708 l 411 708 l 311 397 l 408 397 z "},"B":{"ha":874,"x_min":50,"x_max":822,"o":"m 460 -14 l 254 0 q 50 -14 183 0 l 61 81 q 142 114 121 92 q 163 190 163 136 l 164 732 q 154 786 164 771 q 118 801 144 801 l 71 799 l 63 810 l 75 894 q 268 892 219 892 l 481 899 q 700 844 625 899 q 775 683 775 789 q 626 471 775 549 q 769 396 715 447 q 822 264 822 344 q 723 62 822 138 q 460 -14 624 -14 m 343 188 q 373 124 343 143 q 472 106 403 106 q 579 142 542 106 q 617 244 617 179 q 476 390 617 358 l 349 389 l 343 188 m 579 647 q 388 783 579 783 q 369 778 374 783 q 351 513 357 764 q 483 500 457 500 q 569 589 543 519 q 579 647 579 615 z "},"C":{"ha":857,"x_min":39,"x_max":799,"o":"m 757 39 q 442 -17 624 -17 q 149 101 260 -17 q 39 431 39 218 q 171 776 39 644 q 525 908 303 908 q 790 874 635 908 l 799 856 q 763 593 771 740 l 625 583 q 628 657 628 621 q 591 745 628 717 q 476 774 554 774 q 256 469 256 774 q 317 207 256 300 q 486 114 378 114 q 603 159 561 114 q 661 306 644 204 l 799 315 q 771 56 775 171 l 757 39 z "},"D":{"ha":963,"x_min":53,"x_max":924,"o":"m 442 -17 q 256 0 311 0 q 53 -14 167 0 l 63 81 q 142 116 122 92 q 163 199 163 140 l 164 725 q 155 785 164 769 q 119 800 146 800 l 74 797 l 65 810 l 76 896 q 254 892 200 892 l 475 899 q 805 788 686 899 q 924 470 924 678 q 789 123 924 263 q 442 -17 654 -17 m 401 778 q 371 771 379 778 q 361 744 363 764 q 343 203 343 365 q 366 124 343 143 q 458 104 389 104 q 706 439 706 104 q 631 697 706 615 q 401 778 557 778 z "},"E":{"ha":829,"x_min":50,"x_max":776,"o":"m 351 514 l 481 513 l 642 524 l 653 511 l 633 392 q 470 396 522 396 q 347 388 418 396 q 343 187 343 236 q 358 124 343 138 q 436 110 372 110 q 536 115 500 110 q 597 138 572 119 q 631 184 622 156 q 649 268 640 213 l 767 278 l 776 264 q 738 6 751 139 l 725 -10 q 350 0 464 0 q 50 -14 181 0 l 61 81 q 140 115 118 89 q 161 200 161 140 l 163 726 q 153 787 163 772 q 117 801 144 801 l 75 799 l 65 811 l 76 896 q 429 892 229 892 q 756 908 629 892 l 767 893 q 735 640 742 769 l 607 632 q 610 688 610 668 q 581 760 610 744 q 469 775 551 775 q 374 767 386 775 q 361 729 363 760 l 351 514 z "},"F":{"ha":739,"x_min":50,"x_max":733,"o":"m 490 -6 q 286 0 344 0 q 50 -15 193 0 l 61 79 q 140 115 119 90 q 161 200 161 140 l 163 726 q 153 787 163 772 q 117 801 144 801 l 75 799 l 65 811 l 76 896 q 416 892 229 892 q 724 908 603 892 l 733 893 q 706 639 713 767 l 579 631 q 582 688 582 669 q 556 760 582 744 q 458 775 531 775 q 374 767 386 775 q 361 729 363 760 l 351 490 l 481 489 l 626 500 l 638 488 l 618 368 q 459 372 515 372 q 347 363 403 372 l 343 197 q 355 126 343 144 q 403 108 367 108 l 493 115 l 506 101 l 490 -6 z "},"G":{"ha":908,"x_min":39,"x_max":840,"o":"m 496 457 l 689 454 q 831 461 831 454 l 840 407 q 794 340 804 383 q 783 196 783 297 q 793 57 783 94 l 781 39 q 632 -1 722 15 q 453 -17 542 -17 q 150 101 261 -17 q 39 433 39 218 q 171 778 39 649 q 533 908 303 908 q 808 874 649 908 l 818 856 q 782 600 790 744 l 644 592 q 649 676 649 626 q 615 749 649 725 q 500 774 581 774 q 315 699 375 774 q 254 461 254 624 q 315 206 254 299 q 488 114 376 114 q 557 123 524 114 q 621 150 590 132 l 621 279 q 609 333 621 319 q 560 346 597 346 l 489 346 l 481 357 l 496 457 z "},"H":{"ha":1038,"x_min":51,"x_max":989,"o":"m 874 185 q 886 111 874 131 q 932 92 899 92 l 982 96 l 989 85 l 976 -4 q 774 0 861 0 l 581 -3 l 592 89 q 671 116 650 90 q 692 217 692 142 l 692 393 q 542 394 592 394 l 347 381 l 344 185 q 355 109 344 128 q 397 90 365 90 l 447 94 l 454 85 l 442 -4 q 278 0 325 0 q 179 -3 232 0 q 51 -12 51 -7 l 61 78 q 142 113 122 90 q 161 194 161 136 l 163 729 q 153 787 163 772 q 113 801 143 801 l 69 800 l 63 811 l 74 893 q 239 892 183 892 l 449 901 l 442 808 q 375 783 389 800 q 358 710 361 765 l 350 511 l 528 508 q 692 518 614 508 l 692 729 q 682 787 692 772 q 642 801 672 801 l 599 800 l 592 811 l 603 893 q 781 892 721 892 l 985 901 l 976 810 q 909 788 925 803 q 890 733 893 774 q 874 185 874 414 z "},"I":{"ha":507,"x_min":50,"x_max":464,"o":"m 67 893 l 261 892 l 458 901 l 450 808 q 381 787 397 801 q 361 733 364 772 q 344 185 344 446 q 355 109 344 128 q 397 90 365 90 l 457 94 l 464 85 l 451 -4 q 258 0 307 0 q 50 -12 163 0 l 60 78 q 141 114 121 90 q 161 194 161 138 l 163 729 q 153 787 163 772 q 113 801 143 801 l 64 800 l 57 811 l 67 893 z "},"J":{"ha":463,"x_min":14,"x_max":428,"o":"m 149 171 l 149 729 q 140 788 149 774 q 100 801 131 801 l 43 797 l 35 808 l 46 892 l 218 892 l 428 903 l 419 808 q 363 787 375 800 q 347 733 350 774 q 331 140 331 431 q 263 -82 329 3 q 53 -214 197 -167 l 14 -157 l 17 -142 q 122 -22 96 -85 q 149 171 149 42 z "},"K":{"ha":915,"x_min":51,"x_max":908,"o":"m 357 728 q 344 151 344 178 q 354 108 344 125 q 397 90 364 90 l 451 94 l 457 85 l 444 -4 q 244 0 304 0 l 51 -4 l 64 85 q 142 115 124 94 q 161 194 161 136 l 163 729 q 153 787 163 772 q 113 801 143 801 l 69 800 l 63 811 l 74 894 q 261 892 221 892 l 453 901 l 444 808 q 376 782 393 797 q 357 728 358 767 m 615 760 q 542 803 615 799 l 538 813 l 549 899 q 722 892 665 892 l 885 897 l 894 882 l 883 803 q 801 751 840 785 q 701 644 761 717 l 558 483 l 742 203 q 819 113 783 140 q 900 82 854 85 l 908 69 l 897 -4 q 735 -21 760 -21 q 581 96 653 -21 l 371 439 l 375 469 l 579 692 q 615 760 615 728 z "},"L":{"ha":738,"x_min":58,"x_max":736,"o":"m 72 893 l 261 892 l 476 901 l 465 803 q 380 776 397 794 q 360 701 363 758 q 344 193 344 494 q 360 125 344 140 q 431 110 376 110 q 562 148 529 110 q 608 321 594 186 l 726 333 l 736 319 q 699 4 713 168 l 686 -11 q 350 0 460 0 q 58 -14 186 0 l 68 81 q 141 115 121 89 q 161 200 161 140 l 161 729 q 151 787 161 772 q 111 801 142 801 l 69 800 l 63 811 l 72 893 z "},"M":{"ha":1168,"x_min":38,"x_max":1133,"o":"m 781 893 l 915 890 q 1092 900 925 890 l 1097 894 l 1089 808 q 1008 789 1029 804 q 988 735 988 774 q 1021 218 988 608 q 1042 117 1028 143 q 1088 92 1056 92 l 1128 94 l 1133 86 l 1121 -4 q 992 0 1036 0 q 865 -4 947 0 q 776 -11 783 -8 l 788 83 q 846 103 828 88 q 864 151 864 119 l 836 618 l 824 618 q 613 -10 706 290 l 511 -22 q 299 618 393 356 l 288 618 q 260 136 260 169 q 304 90 260 90 l 350 93 l 358 85 l 343 -6 q 178 0 224 0 l 38 -11 l 47 82 q 108 109 89 88 q 131 182 126 131 q 162 472 138 232 q 186 743 186 711 q 166 788 186 775 q 82 807 146 800 l 75 815 l 88 899 q 264 892 213 892 l 415 897 q 588 326 493 614 l 599 326 q 781 893 688 589 z "},"N":{"ha":1013,"x_min":47,"x_max":988,"o":"m 688 801 l 640 800 l 635 811 l 644 897 q 824 892 763 892 l 988 899 l 981 806 q 915 779 935 799 q 893 718 894 760 l 875 -19 l 728 -37 q 324 579 522 292 l 310 579 l 308 151 q 319 103 308 117 q 356 89 329 89 l 415 93 l 424 83 l 410 -6 q 244 0 290 0 q 60 -11 165 0 l 71 82 q 153 169 151 92 l 171 718 q 149 780 171 763 q 58 804 126 797 l 47 818 l 57 899 q 218 892 150 892 l 351 897 q 722 326 533 601 l 736 326 l 733 742 q 688 801 732 801 z "},"O":{"ha":936,"x_min":39,"x_max":897,"o":"m 254 458 q 254 377 254 458 q 311 200 254 296 q 469 104 368 104 q 626 181 571 104 q 681 421 681 258 q 622 678 681 583 q 462 774 564 774 q 307 697 360 774 q 254 458 254 619 m 897 465 q 897 359 897 465 q 771 118 897 253 q 449 -17 644 -17 q 146 101 253 -17 q 39 431 39 219 q 164 775 39 642 q 486 908 289 908 q 790 793 683 908 q 897 465 897 678 z "},"P":{"ha":801,"x_min":54,"x_max":796,"o":"m 74 893 l 249 892 l 460 899 q 779 731 718 899 q 796 631 796 685 q 696 410 796 506 q 464 315 596 315 l 346 315 l 344 213 q 356 113 344 135 q 408 90 367 90 l 469 94 l 475 86 l 461 -4 q 297 0 339 0 q 197 -3 254 0 q 54 -11 56 -10 l 65 83 q 142 117 122 93 q 161 199 161 140 l 163 726 q 153 786 163 771 q 118 801 144 801 l 69 799 l 63 810 l 74 893 m 597 611 q 549 739 597 699 q 393 779 500 779 q 369 775 374 779 q 349 439 358 768 l 471 422 q 597 611 597 449 z "},"Q":{"ha":943,"x_min":39,"x_max":1133,"o":"m 438 -17 q 146 101 253 -17 q 39 431 39 219 q 164 775 39 642 q 486 908 289 908 q 790 793 683 908 q 897 474 897 678 q 821 194 897 315 q 617 21 744 72 l 617 8 q 989 -147 840 -147 q 1107 -133 1046 -147 l 1118 -143 l 1133 -201 q 947 -317 986 -317 q 761 -262 854 -317 q 438 -17 668 -207 m 254 458 q 254 377 254 458 q 311 200 254 296 q 469 104 368 104 q 626 181 571 104 q 681 421 681 258 q 622 678 681 583 q 462 774 564 774 q 307 697 360 774 q 254 458 254 619 z "},"R":{"ha":893,"x_min":50,"x_max":889,"o":"m 790 660 q 604 394 790 492 l 725 200 q 800 108 764 136 q 879 79 836 79 l 889 67 l 879 -7 l 714 -22 q 563 107 622 -22 l 443 349 l 346 349 l 344 196 q 360 108 344 126 q 443 89 376 90 l 449 81 l 435 -6 q 249 -1 435 -1 l 50 -8 l 63 85 q 141 116 121 93 q 161 199 161 139 l 163 733 q 153 788 163 774 q 118 801 144 801 l 69 799 l 63 810 l 74 894 q 249 892 194 892 l 461 899 q 706 837 621 899 q 790 660 790 775 m 593 633 q 386 783 593 783 q 367 778 372 783 q 350 474 356 765 l 475 460 q 593 633 593 510 z "},"S":{"ha":750,"x_min":50,"x_max":693,"o":"m 306 -17 q 179 -3 240 -17 q 61 36 118 10 l 50 56 q 72 292 71 178 l 189 301 q 221 147 189 188 q 330 107 253 107 q 447 136 407 107 q 486 214 486 165 q 467 267 486 249 q 439 295 449 286 q 404 318 429 304 q 368 338 379 332 q 324 358 357 343 q 122 485 182 428 q 61 631 61 542 q 165 831 61 753 q 432 908 269 908 q 642 881 550 908 l 671 871 l 681 853 q 647 614 657 740 l 542 606 l 529 615 q 531 664 531 638 q 499 751 531 725 q 403 776 468 776 q 301 749 339 776 q 264 678 264 721 q 375 556 264 611 q 451 519 399 544 q 536 476 504 494 q 611 425 568 458 q 693 264 693 363 q 588 60 693 136 q 306 -17 482 -17 z "},"T":{"ha":790,"x_min":7,"x_max":782,"o":"m 300 229 l 300 782 q 211 776 240 781 q 163 748 182 771 q 138 697 143 725 q 124 601 132 668 l 7 593 q 22 892 19 756 l 38 907 l 178 892 l 610 892 l 753 907 l 768 892 l 782 601 l 665 593 q 626 751 650 722 q 497 782 601 779 q 482 188 482 556 q 499 115 482 136 q 558 93 517 93 l 632 97 l 638 90 l 625 -6 q 383 0 456 0 l 150 -8 l 161 83 q 276 116 253 92 q 300 229 300 140 z "},"U":{"ha":910,"x_min":25,"x_max":886,"o":"m 476 110 q 646 290 646 110 l 640 726 q 631 787 639 772 q 596 801 622 801 l 550 799 l 547 804 l 558 896 q 721 892 668 892 l 886 900 l 878 807 q 812 783 826 796 q 797 738 797 771 l 797 306 q 705 66 797 149 q 439 -17 613 -17 q 117 283 117 -17 l 117 726 q 108 787 117 772 q 72 801 100 801 l 28 799 l 25 804 l 38 896 q 236 892 157 892 l 401 900 l 392 806 q 333 785 349 800 q 314 732 317 769 l 304 328 q 349 167 304 224 q 476 110 393 110 z "},"V":{"ha":868,"x_min":-10,"x_max":872,"o":"m 0 894 q 168 892 115 892 q 411 903 267 892 l 419 892 l 413 807 q 324 792 343 801 q 306 757 306 782 q 432 182 306 715 l 453 182 q 556 497 485 264 q 628 756 628 729 q 612 793 628 783 q 557 803 596 803 l 503 803 l 496 813 l 506 899 q 711 892 622 892 l 872 894 l 863 803 q 815 784 829 797 q 788 731 801 771 l 532 7 l 303 -21 q 100 715 179 456 q 63 778 88 758 q -4 801 39 799 l -10 811 l 0 894 z "},"W":{"ha":1339,"x_min":-8,"x_max":1342,"o":"m 1 894 q 167 892 113 892 q 399 903 271 892 l 406 892 l 399 807 q 313 791 332 800 q 294 756 294 782 q 418 182 294 701 l 436 182 q 589 682 481 301 q 578 742 586 710 q 549 787 571 774 q 476 801 526 800 l 469 811 l 481 894 q 661 892 607 892 q 897 903 764 892 l 904 892 l 897 807 q 811 792 829 800 q 793 758 793 783 q 917 182 793 715 l 935 182 q 1035 499 965 265 q 1106 760 1106 733 q 1090 794 1106 786 q 1036 803 1075 803 l 983 803 l 976 813 l 988 899 q 1186 892 1101 892 l 1342 894 l 1332 803 q 1287 784 1300 797 q 1260 731 1274 771 l 1015 7 l 794 -21 q 675 475 772 107 l 661 475 l 517 7 l 293 -21 q 97 715 175 456 q 61 778 85 758 q -3 801 38 799 l -8 811 l 1 894 z "},"X":{"ha":947,"x_min":10,"x_max":938,"o":"m 583 896 l 767 892 l 922 896 l 928 886 l 921 801 q 822 750 858 781 q 738 653 786 719 l 588 446 l 750 211 q 834 125 792 153 q 933 94 876 97 l 938 89 l 926 -3 q 746 1 804 1 l 496 -10 l 489 0 l 497 85 q 572 124 572 89 q 551 174 572 142 l 432 350 l 340 221 q 292 129 292 153 q 360 88 292 92 l 365 78 l 357 -8 q 176 1 225 1 l 15 -6 l 10 8 l 18 92 q 219 278 99 121 l 357 460 l 208 682 q 131 763 171 738 q 31 799 90 788 l 25 806 l 36 894 q 257 892 153 892 l 469 901 l 476 889 l 469 808 q 386 767 386 804 q 458 632 386 740 q 510 556 472 611 q 564 633 532 589 q 611 703 596 678 q 646 774 646 758 q 578 808 646 804 l 575 815 l 583 896 z "},"Y":{"ha":831,"x_min":-14,"x_max":844,"o":"m 513 896 l 697 890 l 839 896 l 844 886 l 835 801 q 747 747 781 783 q 667 624 714 710 l 533 375 q 508 183 508 326 q 508 155 508 179 q 522 112 508 131 q 574 93 535 93 l 643 97 l 647 90 l 635 -6 q 422 0 475 0 q 189 -15 351 0 l 199 81 q 301 115 278 90 q 324 211 324 140 l 324 253 q 283 394 324 318 l 147 660 q 83 756 114 726 q -10 799 51 786 l -14 806 l -3 894 q 176 890 121 890 l 399 901 l 406 889 l 399 808 q 333 797 351 807 q 315 770 315 788 q 340 692 315 753 q 433 481 396 554 l 447 481 l 557 710 q 576 776 576 749 q 506 808 576 804 l 503 815 l 513 896 z "},"Z":{"ha":806,"x_min":26,"x_max":776,"o":"m 738 22 l 714 -4 l 165 4 l 61 -7 l 26 56 l 514 790 l 338 779 q 217 733 249 768 q 178 603 185 699 l 60 594 q 83 894 79 767 l 97 908 l 344 893 l 751 889 l 776 832 q 275 101 564 550 l 492 117 q 599 173 561 122 q 654 331 638 224 l 772 340 q 738 22 743 158 z "},"[":{"ha":440,"x_min":113,"x_max":421,"o":"m 411 -183 l 113 -168 q 128 354 128 215 l 113 881 l 415 896 l 421 885 l 411 806 l 267 778 l 267 -65 l 415 -94 l 421 -107 l 411 -183 z "},"\\":{"ha":457,"x_min":17,"x_max":432,"o":"m 17 917 l 33 938 l 146 938 q 364 97 335 199 q 432 -137 393 -6 l 419 -153 l 301 -153 q 185 299 243 69 l 17 917 z "},"]":{"ha":440,"x_min":19,"x_max":328,"o":"m 29 896 l 328 881 q 313 358 313 497 l 328 -168 l 25 -183 l 19 -172 l 29 -94 l 174 -65 l 174 778 l 25 806 l 19 818 l 29 896 z "},"^":{"ha":679,"x_min":44,"x_max":635,"o":"m 397 669 l 415 658 q 529 392 486 490 l 635 164 l 544 106 l 522 113 q 338 529 425 329 l 328 529 l 258 357 l 161 107 l 54 135 l 44 153 q 263 664 103 290 l 397 669 z "},"_":{"ha":629,"x_min":-12,"x_max":643,"o":"m 3 -125 l 338 -126 q 632 -121 404 -126 l 643 -140 l 628 -247 l 0 -250 l -12 -231 l 3 -125 z "},"`":{"ha":553,"x_min":90,"x_max":417,"o":"m 92 904 l 90 924 l 165 1021 l 183 1022 q 417 786 303 897 l 375 732 l 354 726 q 92 904 247 807 z "},"a":{"ha":756,"x_min":1,"x_max":751,"o":"m 396 75 q 467 86 453 81 q 482 106 482 92 q 457 213 482 124 q 383 214 428 214 q 253 208 338 214 q 222 106 222 122 q 232 84 222 90 q 271 78 242 78 l 314 78 l 322 68 l 313 -6 q 143 0 215 0 l 1 -3 l 10 76 q 79 144 56 85 l 278 690 l 490 708 l 504 700 q 663 150 608 311 q 692 96 674 113 q 747 76 711 79 l 751 67 l 743 -3 q 599 0 651 0 l 397 -8 l 390 0 l 396 75 m 357 315 q 436 318 389 315 l 376 542 l 358 542 l 283 315 l 357 315 z "},"b":{"ha":756,"x_min":47,"x_max":707,"o":"m 422 703 q 606 659 542 703 q 669 542 669 615 q 628 425 669 469 q 550 368 586 381 q 654 318 601 358 q 707 208 707 278 q 624 47 707 106 q 400 -11 542 -11 q 225 0 233 0 l 47 -10 l 57 71 q 121 97 104 79 q 138 154 138 114 l 139 565 q 104 618 139 618 l 65 617 l 56 625 l 67 699 q 235 696 196 696 l 422 703 m 306 154 q 329 109 306 122 q 407 96 353 96 q 517 193 517 96 q 413 296 517 275 l 311 296 l 306 154 m 489 503 q 342 597 489 597 q 322 579 324 597 q 314 406 314 496 q 418 396 394 396 q 467 435 444 404 q 489 503 489 467 z "},"c":{"ha":728,"x_min":40,"x_max":675,"o":"m 638 31 q 373 -12 524 -12 q 131 79 222 -12 q 40 338 40 171 q 148 607 40 506 q 442 708 256 708 q 667 681 528 708 l 675 665 q 643 451 651 572 l 515 444 q 517 511 517 472 q 403 590 517 590 q 240 368 240 590 q 285 173 240 240 q 411 106 329 106 q 499 139 468 106 q 542 247 531 172 l 671 256 q 650 44 653 139 l 638 31 z "},"d":{"ha":815,"x_min":51,"x_max":775,"o":"m 139 163 l 139 558 q 132 605 139 593 q 106 617 125 617 l 68 614 l 60 625 l 69 699 q 222 696 178 696 l 406 701 q 678 617 582 701 q 775 367 775 532 q 665 95 775 203 q 376 -12 554 -12 q 201 0 269 0 l 51 -11 l 58 72 q 122 99 106 79 q 139 163 139 118 m 350 594 q 327 589 333 594 q 319 567 321 583 q 306 164 306 306 q 322 108 306 122 q 388 93 339 93 q 575 342 575 93 q 522 535 575 476 q 350 594 468 594 z "},"e":{"ha":711,"x_min":47,"x_max":661,"o":"m 314 406 l 417 404 l 547 414 l 558 401 l 542 299 q 422 301 451 301 q 308 296 392 301 q 307 191 307 263 q 318 108 307 119 q 401 97 329 97 q 501 118 472 97 q 543 218 531 139 l 651 226 l 661 214 q 631 6 640 114 l 617 -7 q 308 0 408 0 q 47 -11 164 0 l 57 71 q 119 97 103 76 q 136 165 136 117 l 138 560 q 131 606 138 594 q 103 618 124 618 l 69 617 l 60 626 l 69 699 q 372 696 204 696 q 644 708 540 696 l 654 696 q 628 493 635 594 l 510 485 q 513 528 513 513 q 489 582 513 571 q 402 593 465 593 q 330 588 339 593 q 321 560 321 582 l 314 406 z "},"f":{"ha":640,"x_min":47,"x_max":626,"o":"m 426 -4 q 253 0 303 0 q 47 -11 161 0 l 57 71 q 120 97 104 78 q 136 165 136 117 l 138 560 q 131 606 138 594 q 103 618 124 618 l 69 617 l 60 626 l 69 699 q 363 696 204 696 q 617 708 521 696 l 626 696 q 603 492 608 592 l 486 485 q 488 528 488 514 q 467 581 488 569 q 393 593 447 593 q 330 588 339 593 q 321 560 321 582 l 313 388 l 417 386 l 536 394 l 547 383 l 532 281 q 402 283 447 283 q 308 276 357 283 l 307 165 q 316 110 307 124 q 356 97 325 97 l 428 104 l 439 90 l 426 -4 z "},"g":{"ha":769,"x_min":40,"x_max":710,"o":"m 417 364 l 579 363 l 701 368 l 710 319 q 669 267 678 300 q 660 157 660 233 q 667 43 660 81 l 656 28 q 389 -12 554 -12 q 132 79 224 -12 q 40 340 40 171 q 149 609 40 510 q 450 708 257 708 q 679 681 540 708 l 688 665 q 657 461 663 576 l 529 453 q 532 517 532 479 q 507 572 532 554 q 422 590 482 590 q 283 537 328 590 q 239 361 239 483 q 284 172 239 239 q 414 106 329 106 q 511 128 469 106 l 511 218 q 501 258 511 249 q 464 268 492 268 l 411 268 l 403 279 l 417 364 z "},"h":{"ha":878,"x_min":49,"x_max":833,"o":"m 740 151 q 750 94 740 110 q 788 79 760 79 l 826 82 l 833 72 l 822 -3 q 649 0 726 0 l 482 -1 l 492 76 q 554 97 538 78 q 571 171 571 117 l 571 300 q 463 301 500 301 l 308 290 l 307 151 q 315 92 307 107 q 350 78 324 78 l 388 81 l 394 72 l 385 -3 q 240 0 278 0 q 156 -2 201 0 q 81 -6 111 -4 q 49 -8 50 -7 l 57 69 q 122 96 106 78 q 138 160 138 114 l 138 561 q 129 607 138 596 q 97 618 121 618 l 64 617 l 56 628 l 65 697 q 206 696 158 696 l 392 703 l 385 622 q 332 604 343 617 q 318 551 321 592 l 311 406 l 446 403 q 571 410 522 403 l 572 561 q 564 607 572 596 q 531 618 556 618 l 496 617 l 489 628 l 499 697 q 654 696 499 696 l 831 703 l 824 624 q 769 607 782 618 q 754 564 756 596 q 740 151 740 379 z "},"i":{"ha":444,"x_min":49,"x_max":401,"o":"m 61 697 l 228 696 l 399 703 l 392 622 q 335 606 349 617 q 319 564 322 596 q 307 151 307 346 q 315 92 307 107 q 350 78 324 78 l 394 81 l 401 72 l 392 -3 q 215 0 267 0 l 49 -8 l 57 69 q 122 97 106 79 q 138 160 138 114 l 138 561 q 129 607 138 596 q 97 618 121 618 l 60 617 l 53 628 l 61 697 z "},"j":{"ha":408,"x_min":19,"x_max":375,"o":"m 126 136 l 128 561 q 120 607 128 596 q 89 618 113 618 l 43 615 l 35 626 l 44 696 l 190 696 l 375 704 l 368 622 q 322 606 332 617 q 310 564 313 596 q 296 104 296 321 q 237 -68 294 -3 q 54 -169 179 -133 l 19 -124 l 22 -110 q 106 -14 85 -62 q 126 136 126 35 z "},"k":{"ha":789,"x_min":49,"x_max":774,"o":"m 138 160 l 138 561 q 129 607 138 596 q 97 618 121 618 l 64 617 l 56 628 l 65 697 q 228 696 197 696 l 394 703 l 389 622 q 332 602 346 614 q 317 561 318 590 q 307 124 307 143 q 315 92 307 106 q 350 78 324 78 l 392 81 l 397 72 l 388 -3 q 215 0 265 0 l 49 -3 l 58 72 q 122 97 107 81 q 138 160 138 113 m 517 585 q 460 618 517 617 l 456 628 l 465 700 q 613 696 565 696 l 756 700 l 764 688 l 754 619 q 600 485 690 592 l 499 379 l 639 168 q 699 98 672 119 q 764 72 726 76 l 774 60 l 764 -4 q 619 -17 642 -17 q 492 74 549 -17 l 326 342 l 331 368 l 489 533 q 517 585 517 558 z "},"l":{"ha":640,"x_min":51,"x_max":628,"o":"m 64 697 l 228 696 l 419 703 l 410 617 q 338 598 353 611 q 319 546 322 585 q 306 157 306 361 q 319 109 306 121 q 371 97 332 97 q 472 128 446 97 q 510 267 497 160 l 618 276 l 628 264 q 599 6 610 140 l 585 -8 q 307 0 401 0 q 51 -11 165 0 l 61 71 q 120 97 104 76 q 136 165 136 117 l 138 561 q 129 607 138 596 q 96 618 121 618 l 64 617 l 56 628 l 64 697 z "},"m":{"ha":986,"x_min":39,"x_max":953,"o":"m 644 696 l 756 694 q 917 703 788 694 l 922 699 l 914 622 q 849 608 865 619 q 833 565 833 596 q 860 176 833 457 q 876 100 865 121 q 914 79 888 79 l 947 81 l 953 74 l 943 -3 q 787 0 872 0 q 643 -8 701 0 l 653 72 q 701 88 686 76 q 715 126 715 100 l 697 453 l 686 453 q 524 -6 621 300 l 426 -15 q 264 453 317 328 l 251 453 q 233 114 233 139 q 271 79 233 79 l 307 79 l 314 74 l 301 -4 q 158 0 196 0 l 39 -8 l 46 72 q 95 92 79 75 q 114 142 111 110 q 158 571 158 544 q 144 606 158 597 q 76 619 129 615 l 69 628 l 81 701 q 231 696 188 696 l 369 700 q 497 289 422 508 l 508 289 q 644 696 576 485 z "},"n":{"ha":864,"x_min":46,"x_max":836,"o":"m 571 618 l 533 618 l 528 626 l 536 700 q 738 696 640 696 q 836 701 836 696 l 831 621 q 776 600 792 615 q 758 553 760 585 l 743 -10 l 600 -24 q 289 415 453 196 l 276 415 l 276 128 q 287 88 278 99 q 318 76 296 76 l 364 79 l 372 72 l 360 -4 q 206 0 254 0 l 56 -8 l 65 72 q 115 92 100 76 q 132 140 131 107 l 147 551 q 129 599 147 586 q 56 619 111 613 l 46 631 l 54 701 q 196 696 132 696 l 315 700 q 600 289 447 496 l 613 289 l 608 571 q 599 608 607 597 q 571 618 590 618 z "},"o":{"ha":792,"x_min":40,"x_max":751,"o":"m 400 94 q 512 149 472 94 q 551 308 551 203 q 386 590 551 590 q 240 378 240 590 q 400 94 240 94 m 751 362 q 751 277 751 362 q 649 90 751 193 q 381 -12 546 -12 q 128 78 217 -12 q 40 338 40 169 q 142 607 40 506 q 410 708 243 708 q 664 619 576 708 q 751 362 751 531 z "},"p":{"ha":694,"x_min":50,"x_max":682,"o":"m 65 697 l 215 696 l 397 701 q 617 639 553 701 q 682 483 682 576 q 599 314 682 389 q 406 239 515 239 l 307 239 l 307 168 q 317 97 307 114 q 361 79 328 79 l 410 81 l 414 74 l 403 -3 q 262 0 292 0 q 206 -1 232 0 q 153 -3 179 -1 q 104 -6 128 -4 q 50 -8 81 -7 l 60 72 q 121 99 104 79 q 138 163 138 118 l 138 560 q 131 606 138 593 q 104 618 124 618 l 64 617 l 56 625 l 65 697 m 500 474 q 463 567 500 538 q 344 596 425 596 q 326 592 331 596 q 321 575 322 589 q 310 347 314 456 l 406 335 q 500 474 500 356 z "},"q":{"ha":797,"x_min":40,"x_max":951,"o":"m 828 -103 q 926 -92 874 -103 l 938 -101 l 951 -156 q 786 -253 821 -253 q 637 -209 711 -253 q 374 -12 563 -165 q 128 78 217 -12 q 40 338 40 169 q 142 607 40 506 q 410 708 243 708 q 664 619 576 708 q 751 368 751 531 q 692 157 751 249 q 533 22 633 65 l 533 11 q 828 -103 703 -103 m 400 94 q 512 149 472 94 q 551 308 551 203 q 386 590 551 590 q 240 378 240 590 q 400 94 240 94 z "},"r":{"ha":771,"x_min":49,"x_max":758,"o":"m 138 163 l 138 567 q 131 608 138 597 q 104 618 124 618 l 64 617 l 56 625 l 67 697 q 215 696 169 696 l 399 701 q 610 652 538 701 q 682 510 682 603 q 533 304 682 379 l 625 165 q 749 71 686 71 l 758 58 l 749 -6 l 603 -17 q 476 83 522 -17 l 385 264 l 308 264 l 307 158 q 320 92 307 106 q 389 78 333 79 l 393 71 l 382 -4 q 221 -1 382 -1 l 49 -8 l 58 74 q 121 99 104 81 q 138 163 138 117 m 501 489 q 340 597 501 597 q 325 592 329 597 q 311 374 317 583 l 410 363 q 501 489 501 399 z "},"s":{"ha":647,"x_min":47,"x_max":594,"o":"m 265 -12 q 158 -2 210 -12 q 58 29 107 8 l 47 46 q 68 228 65 144 l 175 236 q 201 128 175 158 q 286 99 228 99 q 374 118 344 99 q 403 169 403 138 q 388 208 403 194 q 365 228 372 221 q 337 244 357 235 q 307 258 317 254 q 222 297 294 265 q 103 373 150 329 q 56 488 56 417 q 144 647 56 585 q 374 708 233 708 q 575 679 482 708 l 585 663 q 556 476 564 574 l 458 468 l 447 476 q 449 507 449 492 q 424 572 449 551 q 349 592 399 592 q 272 573 300 592 q 243 530 243 554 q 253 490 243 506 q 292 458 264 475 q 381 415 324 440 q 466 376 438 390 q 528 336 494 361 q 594 207 594 286 q 506 47 594 107 q 265 -12 417 -12 z "},"t":{"ha":683,"x_min":17,"x_max":665,"o":"m 256 179 l 256 597 q 157 572 179 596 q 124 453 135 547 l 17 446 q 29 694 26 583 l 42 708 l 163 696 l 521 696 l 642 708 l 656 694 l 665 453 l 558 446 q 526 572 546 549 q 435 597 507 594 q 424 154 424 394 q 438 97 424 114 q 486 81 451 81 l 546 83 l 551 78 l 540 -6 q 333 0 393 0 l 132 -8 l 140 74 q 235 98 215 79 q 256 179 256 117 z "},"u":{"ha":767,"x_min":28,"x_max":740,"o":"m 403 97 q 528 224 528 97 l 525 560 q 517 606 524 594 q 490 618 510 618 l 454 617 l 451 621 l 463 699 q 597 696 554 696 l 740 701 l 733 621 q 681 602 692 611 q 669 568 669 593 l 669 243 q 593 53 669 118 q 376 -12 517 -12 q 169 44 235 -12 q 103 219 103 101 l 103 560 q 95 607 103 596 q 65 618 88 618 l 31 617 l 28 621 l 39 699 q 213 696 140 696 l 353 701 l 344 619 q 297 604 310 617 q 282 564 283 592 l 274 249 q 307 138 274 178 q 403 97 340 97 z "},"v":{"ha":746,"x_min":6,"x_max":738,"o":"m 363 621 q 292 609 306 615 q 278 583 278 603 q 372 154 278 546 l 392 154 q 467 380 411 197 q 524 584 524 563 q 513 612 524 606 q 471 618 501 618 l 429 618 l 424 626 l 431 700 q 603 696 531 696 l 738 697 l 729 619 q 693 604 704 615 q 671 563 682 593 l 471 6 l 250 -17 q 90 550 147 375 q 11 618 71 614 l 6 626 l 14 699 q 161 696 108 696 l 361 703 l 368 694 l 363 621 z "},"w":{"ha":1139,"x_min":6,"x_max":1131,"o":"m 350 621 q 283 609 296 615 q 269 583 269 603 q 360 154 269 538 l 376 154 q 494 535 396 197 q 491 553 493 539 q 486 583 489 568 q 408 618 478 618 l 403 626 l 413 699 q 575 696 519 696 l 768 703 l 775 694 l 769 621 q 701 610 714 615 q 688 583 688 604 q 778 154 688 551 l 796 154 q 869 381 814 196 q 924 586 924 565 q 913 613 924 607 q 871 618 901 618 l 832 618 l 826 626 l 835 700 q 1000 696 932 696 l 1131 697 l 1122 619 q 1088 605 1099 615 q 1065 563 1076 594 l 875 6 l 663 -17 q 575 346 643 99 l 564 346 l 456 6 l 242 -17 q 89 550 144 375 q 11 618 69 614 q 6 626 8 624 l 15 699 q 157 696 106 696 l 350 703 l 357 694 l 350 621 z "},"x":{"ha":815,"x_min":19,"x_max":793,"o":"m 494 699 l 653 696 l 786 699 l 790 690 l 785 617 q 701 574 732 597 q 633 500 671 550 l 515 340 l 640 174 q 789 82 706 86 l 793 78 l 783 -1 q 633 1 681 1 l 419 -7 l 414 1 l 419 75 q 475 101 475 76 q 458 138 475 114 l 367 261 l 299 172 q 265 108 265 128 q 318 76 265 78 l 324 68 l 317 -6 q 163 1 201 1 l 24 -4 l 19 8 l 25 79 q 186 222 89 101 l 297 364 l 181 522 q 118 585 149 567 q 38 614 88 604 l 33 619 l 42 697 q 229 696 135 696 l 410 703 l 415 692 l 408 622 q 347 592 347 621 q 442 440 347 568 q 483 497 453 456 q 543 597 543 579 q 490 622 543 621 l 488 628 l 494 699 z "},"y":{"ha":728,"x_min":4,"x_max":725,"o":"m 440 699 l 600 694 l 721 699 l 725 690 l 717 617 q 644 570 674 601 q 581 479 615 539 l 472 285 q 453 150 453 246 q 453 128 453 146 q 465 95 453 110 q 507 81 476 81 l 565 83 l 568 78 l 558 -6 q 357 0 418 0 l 165 -11 l 174 71 q 261 96 242 78 q 281 168 281 114 l 281 196 q 249 303 281 243 l 133 511 q 82 579 108 557 q 8 614 56 601 l 4 619 l 14 697 q 168 694 124 694 l 357 703 l 364 692 l 356 622 q 293 590 293 621 q 335 488 293 575 q 382 389 378 400 l 394 389 l 474 549 q 490 599 490 582 q 435 622 490 621 l 432 628 l 440 699 z "},"z":{"ha":694,"x_min":31,"x_max":664,"o":"m 632 18 l 611 -3 l 150 3 l 61 -6 l 31 47 l 424 606 l 293 596 q 198 562 222 588 q 169 464 174 536 l 60 457 q 78 699 75 597 l 90 710 l 294 697 l 640 694 l 664 646 q 258 90 458 392 l 422 104 q 509 149 479 111 q 551 267 539 186 l 660 276 q 632 18 636 125 z "},"{":{"ha":446,"x_min":61,"x_max":432,"o":"m 179 504 q 147 619 179 532 q 114 747 114 706 q 170 863 114 817 q 321 908 226 908 q 422 896 369 908 l 432 882 l 414 804 q 349 811 379 811 q 299 788 319 811 q 279 734 279 765 q 298 624 279 703 q 317 503 317 544 q 288 430 317 463 q 215 385 260 397 l 215 376 q 317 242 317 343 q 298 123 317 207 q 279 6 279 39 q 300 -52 279 -28 q 361 -76 321 -76 l 418 -68 l 429 -82 l 414 -157 q 296 -178 372 -178 q 167 -131 219 -178 q 114 -17 114 -85 q 147 112 114 26 q 179 222 179 197 q 61 335 179 307 l 67 401 q 179 504 179 433 z "},"|":{"ha":464,"x_min":161,"x_max":306,"o":"m 283 1121 l 306 1106 q 297 404 297 635 l 299 -358 l 178 -374 l 161 -358 q 164 1106 161 -339 l 283 1121 z "},"}":{"ha":446,"x_min":15,"x_max":386,"o":"m 381 336 q 299 295 331 322 q 268 235 268 268 q 301 117 268 203 q 333 -10 333 32 q 276 -131 333 -83 q 125 -178 219 -178 q 24 -165 79 -178 l 15 -151 l 33 -75 q 97 -82 67 -82 q 147 -59 128 -82 q 167 -4 167 -36 q 148 110 167 28 q 129 224 129 192 q 231 351 129 321 l 231 360 q 129 496 129 394 q 148 610 129 529 q 167 724 167 692 q 146 781 167 757 q 86 806 125 806 l 29 799 l 18 811 l 33 888 q 151 908 75 908 q 281 861 228 908 q 333 747 333 814 q 301 621 333 704 q 268 503 268 538 q 300 441 268 469 q 386 401 332 413 l 381 336 z "},"~":{"ha":703,"x_min":38,"x_max":667,"o":"m 190 460 q 348 433 226 460 q 492 406 469 406 q 542 425 515 406 q 603 485 568 444 l 618 485 l 667 432 l 667 418 l 540 276 l 514 271 q 356 298 478 271 q 211 325 235 325 q 119 267 171 325 l 101 247 l 86 247 l 38 299 l 38 314 l 164 454 l 190 460 z "}," ":{"ha":242,"x_min":0,"x_max":0,"o":""},"¡":{"ha":396,"x_min":69,"x_max":326,"o":"m 110 545 q 110 570 110 545 q 140 626 110 594 q 222 658 171 658 q 299 630 272 658 q 326 552 326 601 q 295 471 326 503 q 214 439 264 439 q 137 467 164 439 q 110 545 110 496 m 267 315 l 294 -282 l 278 -306 l 93 -336 l 69 -311 l 156 318 l 244 333 l 267 315 z "},"¢":{"ha":600,"x_min":35,"x_max":556,"o":"m 251 -6 q 92 99 149 18 q 35 313 35 181 q 114 542 35 446 q 322 654 193 638 l 350 901 l 447 914 l 456 901 l 428 656 q 550 629 489 650 l 556 617 q 525 401 532 518 l 435 396 l 435 442 q 349 540 435 540 q 219 357 219 540 q 258 183 219 243 q 371 124 297 124 q 518 164 435 124 l 529 160 l 551 88 q 354 -15 436 -6 l 333 -210 l 238 -221 l 229 -211 l 251 -6 z "},"£":{"ha":719,"x_min":38,"x_max":679,"o":"m 650 244 q 679 129 679 193 q 641 24 679 65 q 551 -17 603 -17 q 390 17 499 -17 q 220 51 282 51 q 81 1 158 51 l 65 8 l 38 93 q 165 282 165 171 l 165 339 q 147 381 164 371 q 76 394 129 392 l 71 403 l 81 475 l 165 489 l 165 518 q 260 738 165 646 q 483 831 354 831 q 639 810 586 831 l 646 794 l 601 661 l 575 657 q 424 710 481 710 q 326 578 328 710 l 322 483 l 532 488 l 538 481 l 522 386 q 319 390 428 390 l 317 307 q 251 153 314 207 l 331 169 q 429 156 360 169 q 525 143 499 143 q 615 247 611 143 l 650 244 z "},"¤":{"ha":617,"x_min":18,"x_max":613,"o":"m 119 386 q 94 488 94 432 q 122 592 94 544 l 18 690 l 22 714 l 119 783 q 213 683 186 711 q 313 708 260 708 q 417 683 367 708 l 511 790 l 536 785 l 607 686 l 507 593 q 536 488 536 543 q 510 386 536 432 l 613 293 l 607 269 l 508 197 l 418 294 q 315 267 371 267 q 207 296 258 267 l 113 194 l 89 200 l 21 299 q 119 386 31 306 m 229 573 q 212 555 229 573 q 194 488 194 538 q 229 402 194 438 q 314 367 264 367 q 400 402 364 367 q 436 488 436 438 q 400 573 436 538 q 314 608 364 608 q 229 573 264 608 z "},"¥":{"ha":789,"x_min":29,"x_max":757,"o":"m 246 371 l 69 369 l 60 379 l 71 457 l 193 457 q 29 617 115 593 l 29 650 l 38 701 q 165 697 128 697 q 290 701 201 697 q 383 707 378 706 l 390 693 l 383 622 q 331 614 343 619 q 318 594 318 608 q 340 532 318 581 l 353 500 l 418 388 l 508 567 q 519 598 519 586 q 512 613 519 610 q 488 617 504 615 q 460 625 472 618 q 461 653 461 633 l 468 701 l 629 697 l 751 701 l 757 693 l 749 617 q 681 583 701 601 q 594 460 656 561 q 726 463 706 463 l 736 450 l 731 371 l 542 371 l 506 308 q 492 271 496 293 q 725 276 596 272 l 735 263 l 728 183 l 476 183 q 486 98 476 111 q 509 83 496 85 q 542 82 522 82 l 589 85 l 593 76 l 582 -4 q 385 0 444 0 l 194 -12 l 203 71 q 286 99 268 79 q 307 183 304 119 l 68 182 l 58 193 l 69 271 l 296 271 q 246 371 283 303 z "},"¦":{"ha":464,"x_min":161,"x_max":306,"o":"m 163 219 l 283 240 l 297 226 l 299 -358 l 178 -374 l 161 -358 q 163 219 161 -6 m 163 514 l 164 1106 l 283 1121 l 306 1106 q 297 521 299 764 l 175 504 l 163 514 z "},"§":{"ha":694,"x_min":39,"x_max":657,"o":"m 539 72 q 461 -74 539 -8 q 272 -139 383 -139 q 140 -106 196 -139 q 83 -31 83 -74 q 121 115 83 64 l 150 114 q 201 13 160 53 q 286 -26 243 -26 q 351 -8 329 -26 q 374 44 374 11 q 339 111 374 78 q 256 174 304 144 q 158 236 207 203 q 74 319 108 269 q 39 428 39 368 q 176 626 39 542 q 160 699 160 660 q 230 847 160 786 q 401 908 300 908 q 519 888 468 908 q 571 836 571 867 q 557 757 571 806 q 529 696 543 708 l 503 696 q 453 764 486 738 q 390 790 421 790 q 342 773 360 790 q 325 725 325 756 q 359 660 325 694 q 442 596 393 626 q 540 531 490 565 q 623 449 589 497 q 657 343 657 400 q 621 233 657 286 q 524 142 585 179 q 539 72 539 108 m 219 567 q 183 490 183 533 q 216 408 183 446 q 290 343 249 369 q 475 210 431 254 q 507 286 507 244 q 475 366 507 328 q 403 431 443 404 q 219 567 258 526 z "},"¨":{"ha":553,"x_min":64,"x_max":488,"o":"m 488 874 q 488 855 488 874 q 462 808 488 835 q 395 782 436 782 q 333 805 354 782 q 311 867 311 828 q 337 933 311 907 q 403 960 363 960 q 466 937 444 960 q 488 874 488 914 m 240 873 q 240 853 240 873 q 215 808 240 833 q 148 782 189 782 q 85 805 107 782 q 64 867 64 828 q 90 933 64 907 q 156 960 115 960 q 218 936 196 960 q 240 873 240 913 z "},"©":{"ha":967,"x_min":60,"x_max":906,"o":"m 633 206 q 463 179 560 179 q 310 240 365 179 q 254 407 254 300 q 321 579 254 514 q 506 644 388 644 q 653 626 568 644 l 657 617 q 638 476 642 557 l 553 472 q 554 508 554 490 q 486 565 554 565 q 390 425 390 565 q 490 258 390 258 q 546 280 526 258 q 571 349 565 301 l 653 356 q 642 217 642 278 l 633 206 m 183 108 q 122 170 183 108 q 60 407 60 232 q 183 706 60 582 q 483 831 307 831 q 782 706 658 831 q 906 407 906 582 q 782 108 906 232 q 483 -17 658 -17 q 183 108 307 -17 m 233 658 q 182 606 233 658 q 131 407 131 554 q 233 156 131 260 q 483 51 336 51 q 733 156 629 51 q 836 407 836 260 q 733 658 836 554 q 483 763 629 763 q 233 658 336 763 z "},"ª":{"ha":474,"x_min":32,"x_max":464,"o":"m 410 568 q 450 581 425 568 l 464 558 q 371 460 414 472 q 274 529 281 460 l 264 532 q 161 464 196 464 q 69 505 107 464 q 32 606 32 546 q 47 655 32 633 q 88 682 63 676 l 267 718 l 267 731 q 247 785 267 765 q 197 806 226 806 q 97 775 142 806 l 82 765 l 74 769 l 54 831 q 232 903 188 903 q 358 867 318 903 q 399 776 399 832 l 381 603 q 410 568 381 568 m 181 642 q 161 615 161 636 q 174 578 161 593 q 210 564 186 564 q 263 581 233 564 l 265 663 l 181 642 z "},"«":{"ha":626,"x_min":21,"x_max":569,"o":"m 446 318 q 569 118 446 314 l 564 96 l 507 61 q 278 299 418 161 l 278 328 q 507 571 406 456 l 564 536 l 569 514 q 446 318 550 485 m 189 318 q 313 118 189 314 l 307 96 l 250 61 q 21 299 161 161 l 21 328 q 250 571 149 456 l 307 536 l 313 514 q 189 318 293 485 z "},"¬":{"ha":703,"x_min":24,"x_max":638,"o":"m 485 308 l 350 308 l 33 307 l 24 321 l 43 447 q 368 446 244 446 l 628 454 l 638 436 q 624 238 625 339 l 625 49 l 499 29 l 483 39 q 485 308 485 181 z "},"®":{"ha":650,"x_min":42,"x_max":608,"o":"m 124 503 q 83 545 124 503 q 42 704 42 586 q 124 905 42 822 q 325 988 207 988 q 526 905 443 988 q 608 704 608 822 q 526 503 608 586 q 325 421 443 421 q 124 503 207 421 m 163 867 q 128 833 163 867 q 94 704 94 799 q 163 542 94 610 q 325 474 231 474 q 488 542 419 474 q 556 704 556 610 q 488 867 556 799 q 325 935 419 935 q 163 867 231 935 m 197 858 l 257 857 l 272 857 q 321 860 303 860 q 440 782 440 860 q 382 697 440 729 l 415 644 q 465 603 440 604 l 468 599 q 460 574 467 579 q 423 569 453 569 q 381 576 393 568 q 357 610 368 585 l 322 681 l 293 681 l 293 643 q 298 614 293 619 q 325 608 303 608 l 328 604 l 324 574 q 269 576 289 576 l 253 576 l 190 572 l 194 606 q 219 617 214 608 q 225 651 225 626 l 225 800 q 211 825 225 825 l 196 825 l 193 829 l 197 858 m 294 725 l 332 722 q 367 772 367 735 q 306 817 367 817 q 299 806 299 817 l 294 725 z "},"¯":{"ha":553,"x_min":69,"x_max":490,"o":"m 479 933 l 490 914 l 474 808 l 85 806 l 69 821 l 89 926 q 303 925 221 925 l 479 933 z "},"°":{"ha":419,"x_min":29,"x_max":390,"o":"m 210 546 q 172 546 210 546 q 82 599 135 546 q 29 727 29 651 q 82 856 29 803 q 210 908 135 908 q 338 856 285 908 q 390 727 390 803 q 338 599 390 651 q 210 546 285 546 m 138 799 q 124 784 138 799 q 110 726 110 769 q 138 655 110 683 q 210 626 167 626 q 281 655 253 626 q 310 726 310 683 q 281 799 310 769 q 210 828 253 828 q 138 799 167 828 z "},"±":{"ha":703,"x_min":24,"x_max":679,"o":"m 665 313 l 415 311 l 417 85 l 294 65 l 279 75 q 281 311 279 199 l 33 310 l 24 325 l 43 451 q 281 450 168 450 l 282 692 l 406 707 l 424 697 q 415 450 417 557 l 669 458 l 679 440 l 665 313 m 653 -135 l 46 -137 l 33 -118 l 49 -12 l 371 -12 q 657 -7 657 -12 l 668 -28 l 653 -135 z "},"²":{"ha":489,"x_min":31,"x_max":464,"o":"m 249 838 q 188 890 249 890 q 71 815 126 890 l 57 815 l 39 903 q 126 981 72 951 q 243 1011 179 1011 q 353 976 307 1011 q 399 882 399 940 q 358 756 399 824 q 214 578 317 689 l 218 569 l 297 569 q 355 587 338 569 q 379 651 372 604 l 464 658 q 439 475 444 551 l 424 463 q 115 471 206 471 l 39 464 l 31 531 l 143 651 q 249 838 249 776 z "},"³":{"ha":431,"x_min":31,"x_max":388,"o":"m 47 582 q 131 567 85 567 q 209 586 178 567 q 240 636 240 606 q 117 699 240 699 l 107 710 l 99 776 l 160 789 q 222 867 222 817 q 208 899 222 886 q 172 911 194 911 q 72 872 126 911 l 61 872 l 38 949 q 122 991 69 971 q 228 1011 175 1011 q 322 981 282 1011 q 361 907 361 951 q 334 830 361 863 q 260 781 307 797 l 260 771 q 388 640 388 731 q 302 517 388 574 q 113 460 217 460 q 53 483 71 460 q 31 565 35 507 l 47 582 z "},"´":{"ha":553,"x_min":160,"x_max":486,"o":"m 486 925 l 485 906 q 222 726 351 822 l 201 732 l 160 786 q 392 1024 304 931 l 411 1022 l 486 925 z "},"µ":{"ha":739,"x_min":50,"x_max":742,"o":"m 656 128 q 721 151 686 128 l 742 122 q 672 35 717 81 q 597 -17 626 -10 q 456 88 467 -17 l 444 93 q 300 -15 351 -7 q 225 8 256 -15 l 218 4 l 217 -78 l 217 -126 l 226 -296 l 217 -308 l 65 -336 l 50 -318 q 75 101 68 -122 l 85 454 q 72 601 85 529 l 82 625 q 267 658 211 643 l 279 635 q 253 485 265 601 q 242 250 242 369 q 331 131 242 131 q 443 182 372 131 l 443 465 q 429 600 443 522 l 439 624 q 631 656 567 643 l 644 632 q 618 471 629 600 q 607 185 607 342 q 656 128 607 128 z "},"¶":{"ha":788,"x_min":33,"x_max":749,"o":"m 349 897 l 549 892 l 749 896 l 740 810 l 738 804 q 669 788 686 800 q 650 740 653 776 q 633 238 633 619 q 550 -35 633 69 q 313 -139 467 -139 q 176 -101 233 -139 q 118 -4 118 -64 q 135 72 118 28 q 176 146 153 117 l 199 146 q 240 14 203 61 q 341 -33 276 -33 q 432 11 406 -33 q 458 168 458 56 l 458 781 q 452 798 458 794 q 421 801 446 801 q 339 749 367 801 q 311 603 311 696 q 331 448 311 511 q 400 318 351 385 l 400 285 q 135 374 238 292 q 33 593 33 457 q 121 813 33 729 q 349 897 208 897 z "},"·":{"ha":331,"x_min":57,"x_max":274,"o":"m 243 256 q 228 240 243 256 q 161 224 213 224 q 83 252 110 224 q 57 330 57 281 q 88 411 57 379 q 168 443 118 443 q 246 414 218 443 q 274 336 274 385 q 243 256 274 288 z "},"¸":{"ha":553,"x_min":124,"x_max":417,"o":"m 417 -196 q 360 -290 417 -250 q 232 -329 304 -329 q 158 -312 193 -329 q 124 -269 124 -296 q 175 -182 124 -243 l 188 -182 q 208 -240 189 -219 q 256 -260 228 -260 q 299 -248 283 -260 q 315 -218 315 -236 q 196 -119 315 -182 l 240 40 l 313 40 l 283 -61 q 344 -98 321 -83 q 392 -141 367 -112 q 417 -196 417 -169 z "},"¹":{"ha":368,"x_min":28,"x_max":339,"o":"m 253 599 q 293 539 253 539 l 335 540 l 339 536 l 326 468 q 190 471 238 471 l 35 461 l 42 526 q 104 544 85 529 q 124 592 124 558 l 124 865 q 115 907 124 897 q 79 917 106 917 l 33 914 l 28 919 l 33 979 q 200 999 144 992 q 288 1011 256 1007 l 300 979 q 264 911 271 956 q 253 599 253 825 z "},"º":{"ha":492,"x_min":32,"x_max":460,"o":"m 460 690 q 460 639 460 690 q 399 524 460 588 q 240 460 338 460 q 87 517 142 460 q 32 675 32 574 q 94 840 32 776 q 255 903 156 903 q 407 847 354 903 q 460 690 460 792 m 250 542 q 314 647 314 542 q 240 813 314 813 q 176 707 176 813 q 250 542 176 542 z "},"»":{"ha":626,"x_min":57,"x_max":604,"o":"m 376 61 l 319 96 l 314 118 q 436 314 364 196 q 314 513 344 464 l 319 535 l 376 571 q 604 332 465 471 l 604 304 q 376 61 476 176 m 119 61 l 63 96 l 57 118 q 179 314 107 196 q 57 513 88 464 l 63 535 l 119 571 q 347 332 208 471 l 347 304 q 119 61 219 176 z "},"¼":{"ha":1058,"x_min":28,"x_max":1026,"o":"m 253 489 q 293 429 253 429 l 335 432 l 339 426 l 326 358 q 190 363 238 363 l 35 353 l 42 417 q 104 435 85 419 q 124 482 124 450 l 124 756 q 115 797 124 788 q 79 807 106 807 l 33 804 l 28 811 l 33 869 q 200 890 144 882 q 288 901 256 897 l 300 869 q 264 801 271 849 q 253 489 253 715 m 869 907 l 879 881 q 510 315 635 510 l 229 -129 l 139 -92 l 132 -72 q 419 367 300 178 l 783 942 l 869 907 m 947 222 l 1017 222 l 1026 211 l 1017 125 l 949 126 l 954 10 l 944 0 l 819 -10 l 813 -1 q 818 131 817 68 l 603 133 l 606 207 l 842 538 l 849 540 l 947 529 l 947 222 m 818 222 l 818 367 l 808 367 l 710 222 l 818 222 z "},"½":{"ha":1100,"x_min":28,"x_max":1075,"o":"m 253 489 q 293 429 253 429 l 335 432 l 339 426 l 326 358 q 190 363 238 363 l 35 353 l 42 417 q 104 435 85 419 q 124 482 124 450 l 124 756 q 115 797 124 788 q 79 807 106 807 l 33 804 l 28 811 l 33 869 q 200 890 144 882 q 288 901 256 897 l 300 869 q 264 801 271 849 q 253 489 253 715 m 869 907 l 879 881 q 510 315 635 510 l 229 -129 l 139 -92 l 132 -72 q 419 367 300 178 l 783 942 l 869 907 m 860 367 q 798 418 860 418 q 682 344 736 418 l 668 344 l 650 431 q 737 510 683 479 q 854 540 790 540 q 964 504 918 540 q 1010 410 1010 468 q 969 285 1010 353 q 825 106 928 217 l 829 99 l 908 99 q 966 116 949 99 q 990 181 983 133 l 1075 188 q 1050 4 1056 81 l 1035 -8 q 726 0 817 0 l 650 -8 l 642 58 l 754 179 q 860 367 860 304 z "},"¾":{"ha":1058,"x_min":31,"x_max":1026,"o":"m 47 472 q 131 457 85 457 q 209 476 178 457 q 240 526 240 496 q 117 589 240 589 l 107 600 l 99 667 l 160 679 q 222 757 222 707 q 208 789 222 776 q 172 801 194 801 q 72 764 128 801 l 61 764 l 38 839 q 122 881 69 861 q 228 901 175 901 q 322 872 282 901 q 361 798 361 842 q 334 722 361 754 q 260 671 307 689 l 260 661 q 388 531 388 622 q 302 408 388 464 q 113 351 217 351 q 53 375 71 351 q 31 456 35 399 l 47 472 m 869 907 l 879 881 q 510 315 635 510 l 229 -129 l 139 -92 l 132 -72 q 419 367 300 178 l 783 942 l 869 907 m 947 222 l 1017 222 l 1026 211 l 1017 125 l 949 126 l 954 10 l 944 0 l 819 -10 l 813 -1 q 818 131 817 68 l 603 133 l 606 207 l 842 538 l 849 540 l 947 529 l 947 222 m 818 222 l 818 367 l 808 367 l 710 222 l 818 222 z "},"¿":{"ha":514,"x_min":14,"x_max":446,"o":"m 253 54 q 181 -51 181 10 q 248 -147 181 -111 q 435 -190 315 -183 l 446 -210 l 394 -326 l 374 -336 q 117 -263 221 -332 q 14 -94 14 -194 q 68 44 14 -10 q 126 97 99 76 q 186 140 154 118 q 222 165 218 163 q 232 172 226 168 q 243 179 238 176 l 247 189 l 226 304 l 235 319 l 357 344 l 374 336 l 407 161 l 403 142 l 253 54 m 190 545 q 190 570 190 545 q 221 626 190 594 q 302 658 251 658 q 380 630 353 658 q 407 552 407 601 q 376 471 407 503 q 294 439 344 439 q 217 467 244 439 q 190 545 190 496 z "},"À":{"ha":868,"x_min":-17,"x_max":881,"o":"m 871 -4 q 704 0 761 0 q 465 -11 593 0 l 457 0 l 464 83 q 551 99 532 89 q 571 128 571 108 q 564 181 571 149 l 536 286 q 428 288 500 288 q 278 278 356 288 l 243 174 q 235 126 235 144 q 249 98 235 107 q 299 89 263 89 l 358 89 l 364 79 l 354 -8 q 151 0 240 0 l -17 -4 l -6 89 q 48 115 28 94 q 85 181 68 135 l 332 885 l 553 907 l 568 900 q 767 183 693 418 q 806 113 782 133 q 875 88 829 92 l 881 78 l 871 -4 m 408 397 q 511 403 453 397 l 431 708 l 411 708 l 311 397 l 408 397 m 235 1058 l 228 1076 l 264 1183 l 281 1190 q 590 1046 440 1111 l 572 981 l 553 968 q 235 1058 383 1021 z "},"Á":{"ha":868,"x_min":-17,"x_max":881,"o":"m 871 -4 q 704 0 761 0 q 465 -11 593 0 l 457 0 l 464 83 q 551 99 532 89 q 571 128 571 108 q 564 181 571 149 l 536 286 q 428 288 500 288 q 278 278 356 288 l 243 174 q 235 126 235 144 q 249 98 235 107 q 299 89 263 89 l 358 89 l 364 79 l 354 -8 q 151 0 240 0 l -17 -4 l -6 89 q 48 115 28 94 q 85 181 68 135 l 332 885 l 553 907 l 568 900 q 767 183 693 418 q 806 113 782 133 q 875 88 829 92 l 881 78 l 871 -4 m 408 397 q 511 403 453 397 l 431 708 l 411 708 l 311 397 l 408 397 m 682 1076 l 674 1058 q 356 968 514 1018 l 338 981 l 319 1046 l 629 1190 l 646 1183 l 682 1076 z "},"Â":{"ha":868,"x_min":-17,"x_max":881,"o":"m 871 -4 q 704 0 761 0 q 465 -11 593 0 l 457 0 l 464 83 q 551 99 532 89 q 571 128 571 108 q 564 181 571 149 l 536 286 q 428 288 500 288 q 278 278 356 288 l 243 174 q 235 126 235 144 q 249 98 235 107 q 299 89 263 89 l 358 89 l 364 79 l 354 -8 q 151 0 240 0 l -17 -4 l -6 89 q 48 115 28 94 q 85 181 68 135 l 332 885 l 553 907 l 568 900 q 767 183 693 418 q 806 113 782 133 q 875 88 829 92 l 881 78 l 871 -4 m 408 397 q 511 403 453 397 l 431 708 l 411 708 l 311 397 l 408 397 m 456 1217 q 543 1148 456 1218 q 674 1044 631 1078 l 640 988 l 618 982 q 442 1063 549 1017 q 267 982 375 1035 l 244 988 l 210 1044 q 428 1217 311 1118 l 456 1217 z "},"Ã":{"ha":868,"x_min":-17,"x_max":881,"o":"m 871 -4 q 704 0 761 0 q 465 -11 593 0 l 457 0 l 464 83 q 551 99 532 89 q 571 128 571 108 q 564 181 571 149 l 536 286 q 428 288 500 288 q 278 278 356 288 l 243 174 q 235 126 235 144 q 249 98 235 107 q 299 89 263 89 l 358 89 l 364 79 l 354 -8 q 151 0 240 0 l -17 -4 l -6 89 q 48 115 28 94 q 85 181 68 135 l 332 885 l 553 907 l 568 900 q 767 183 693 418 q 806 113 782 133 q 875 88 829 92 l 881 78 l 871 -4 m 408 397 q 511 403 453 397 l 431 708 l 411 708 l 311 397 l 408 397 m 325 1160 q 431 1136 349 1160 q 531 1113 513 1113 q 607 1167 561 1113 l 622 1185 l 638 1185 l 693 1133 l 693 1119 l 583 985 l 561 979 q 454 1003 536 979 q 356 1026 372 1026 q 278 972 324 1026 l 263 954 l 247 954 l 193 1006 l 193 1021 l 301 1154 l 325 1160 z "},"Ä":{"ha":868,"x_min":-17,"x_max":881,"o":"m 871 -4 q 704 0 761 0 q 465 -11 593 0 l 457 0 l 464 83 q 551 99 532 89 q 571 128 571 108 q 564 181 571 149 l 536 286 q 428 288 500 288 q 278 278 356 288 l 243 174 q 235 126 235 144 q 249 98 235 107 q 299 89 263 89 l 358 89 l 364 79 l 354 -8 q 151 0 240 0 l -17 -4 l -6 89 q 48 115 28 94 q 85 181 68 135 l 332 885 l 553 907 l 568 900 q 767 183 693 418 q 806 113 782 133 q 875 88 829 92 l 881 78 l 871 -4 m 408 397 q 511 403 453 397 l 431 708 l 411 708 l 311 397 l 408 397 m 653 1073 q 653 1053 653 1073 q 627 1007 653 1033 q 560 981 601 981 q 498 1003 519 981 q 476 1066 476 1026 q 502 1132 476 1106 q 569 1158 528 1158 q 631 1135 610 1158 q 653 1073 653 1113 m 406 1073 q 406 1053 406 1073 q 380 1007 406 1033 q 313 981 354 981 q 251 1003 272 981 q 229 1066 229 1026 q 255 1132 229 1106 q 321 1158 281 1158 q 383 1135 361 1158 q 406 1073 406 1113 z "},"Å":{"ha":868,"x_min":-17,"x_max":881,"o":"m 871 -4 q 704 0 761 0 q 465 -11 593 0 l 457 0 l 464 83 q 551 99 532 89 q 571 128 571 108 q 564 181 571 149 l 536 286 q 428 288 500 288 q 278 278 356 288 l 243 174 q 235 126 235 144 q 249 98 235 107 q 299 89 263 89 l 358 89 l 364 79 l 354 -8 q 151 0 240 0 l -17 -4 l -6 89 q 48 115 28 94 q 85 181 68 135 l 332 885 l 553 907 l 568 900 q 767 183 693 418 q 806 113 782 133 q 875 88 829 92 l 881 78 l 871 -4 m 408 397 q 511 403 453 397 l 431 708 l 411 708 l 311 397 l 408 397 m 444 1015 q 500 1065 500 1015 q 483 1108 500 1092 q 436 1124 467 1124 q 382 1074 382 1124 q 401 1030 382 1044 q 444 1015 421 1015 m 569 1076 q 569 1049 569 1076 q 533 982 569 1022 q 436 942 496 942 q 344 976 376 942 q 313 1068 313 1011 q 349 1163 313 1125 q 447 1200 386 1200 q 539 1165 508 1200 q 569 1076 569 1131 z "},"Æ":{"ha":1210,"x_min":-6,"x_max":1178,"o":"m 443 83 q 536 102 514 89 q 558 142 558 115 q 536 346 558 175 l 415 331 l 299 308 l 236 174 q 221 121 221 139 q 237 96 221 103 q 297 89 253 89 l 343 82 l 335 -8 q 293 -6 333 -7 q 197 -2 253 -4 q 104 0 140 0 l 1 -4 l -6 79 q 33 110 8 82 q 78 181 57 139 l 367 771 q 332 801 361 801 l 289 799 l 281 811 l 292 896 q 701 892 446 892 q 1072 908 956 892 l 1083 893 q 1051 640 1058 769 l 925 632 q 928 688 928 668 q 897 760 928 744 q 784 775 867 775 q 689 768 701 775 q 675 738 676 761 l 711 485 l 844 501 l 978 528 l 993 514 l 975 397 l 849 388 l 726 374 l 754 203 q 785 131 763 153 q 851 108 808 108 q 1002 136 968 108 q 1050 268 1036 164 l 1168 278 l 1178 264 q 1139 6 1153 139 l 1126 -10 q 718 0 835 0 l 665 0 q 444 -11 567 0 l 438 0 l 443 83 m 350 440 l 440 446 l 526 457 l 494 708 l 474 708 l 350 440 z "},"Ç":{"ha":857,"x_min":39,"x_max":799,"o":"m 418 -15 q 140 111 240 -4 q 39 435 39 226 q 171 776 39 644 q 525 908 303 908 q 790 874 635 908 l 799 856 q 763 593 771 740 l 625 583 q 628 657 628 621 q 591 745 628 717 q 476 774 554 774 q 256 469 256 774 q 317 207 256 300 q 486 114 378 114 q 603 159 561 114 q 661 306 644 204 l 799 315 q 771 56 775 171 l 757 39 q 489 -15 642 -8 l 476 -61 q 537 -98 514 -83 q 585 -141 560 -112 q 610 -196 610 -169 q 553 -290 610 -250 q 425 -329 497 -329 q 351 -312 386 -329 q 317 -269 317 -296 q 368 -182 317 -243 l 381 -182 q 401 -240 382 -219 q 449 -260 421 -260 q 492 -248 476 -260 q 508 -218 508 -236 q 389 -119 508 -182 l 418 -15 z "},"È":{"ha":829,"x_min":50,"x_max":776,"o":"m 351 514 l 481 513 l 642 524 l 653 511 l 633 392 q 470 396 522 396 q 347 388 418 396 q 343 187 343 236 q 358 124 343 138 q 436 110 372 110 q 536 115 500 110 q 597 138 572 119 q 631 184 622 156 q 649 268 640 213 l 767 278 l 776 264 q 738 6 751 139 l 725 -10 q 350 0 464 0 q 50 -14 181 0 l 61 81 q 140 115 118 89 q 161 200 161 140 l 163 726 q 153 787 163 772 q 117 801 144 801 l 75 799 l 65 811 l 76 896 q 429 892 229 892 q 756 908 629 892 l 767 893 q 735 640 742 769 l 607 632 q 610 688 610 668 q 581 760 610 744 q 469 775 551 775 q 374 767 386 775 q 361 729 363 760 l 351 514 m 215 1058 l 208 1076 l 244 1183 l 261 1190 q 571 1046 421 1111 l 553 981 l 533 968 q 215 1058 364 1021 z "},"É":{"ha":829,"x_min":50,"x_max":776,"o":"m 351 514 l 481 513 l 642 524 l 653 511 l 633 392 q 470 396 522 396 q 347 388 418 396 q 343 187 343 236 q 358 124 343 138 q 436 110 372 110 q 536 115 500 110 q 597 138 572 119 q 631 184 622 156 q 649 268 640 213 l 767 278 l 776 264 q 738 6 751 139 l 725 -10 q 350 0 464 0 q 50 -14 181 0 l 61 81 q 140 115 118 89 q 161 200 161 140 l 163 726 q 153 787 163 772 q 117 801 144 801 l 75 799 l 65 811 l 76 896 q 429 892 229 892 q 756 908 629 892 l 767 893 q 735 640 742 769 l 607 632 q 610 688 610 668 q 581 760 610 744 q 469 775 551 775 q 374 767 386 775 q 361 729 363 760 l 351 514 m 683 1076 l 675 1058 q 357 968 515 1018 l 339 981 l 321 1046 l 631 1190 l 647 1183 l 683 1076 z "},"Ê":{"ha":829,"x_min":50,"x_max":776,"o":"m 351 514 l 481 513 l 642 524 l 653 511 l 633 392 q 470 396 522 396 q 347 388 418 396 q 343 187 343 236 q 358 124 343 138 q 436 110 372 110 q 536 115 500 110 q 597 138 572 119 q 631 184 622 156 q 649 268 640 213 l 767 278 l 776 264 q 738 6 751 139 l 725 -10 q 350 0 464 0 q 50 -14 181 0 l 61 81 q 140 115 118 89 q 161 200 161 140 l 163 726 q 153 787 163 772 q 117 801 144 801 l 75 799 l 65 811 l 76 896 q 429 892 229 892 q 756 908 629 892 l 767 893 q 735 640 742 769 l 607 632 q 610 688 610 668 q 581 760 610 744 q 469 775 551 775 q 374 767 386 775 q 361 729 363 760 l 351 514 m 457 1217 q 544 1148 457 1218 q 675 1044 632 1078 l 642 988 l 619 982 q 443 1063 550 1017 q 268 982 376 1035 l 246 988 l 211 1044 q 429 1217 313 1118 l 457 1217 z "},"Ë":{"ha":829,"x_min":50,"x_max":776,"o":"m 351 514 l 481 513 l 642 524 l 653 511 l 633 392 q 470 396 522 396 q 347 388 418 396 q 343 187 343 236 q 358 124 343 138 q 436 110 372 110 q 536 115 500 110 q 597 138 572 119 q 631 184 622 156 q 649 268 640 213 l 767 278 l 776 264 q 738 6 751 139 l 725 -10 q 350 0 464 0 q 50 -14 181 0 l 61 81 q 140 115 118 89 q 161 200 161 140 l 163 726 q 153 787 163 772 q 117 801 144 801 l 75 799 l 65 811 l 76 896 q 429 892 229 892 q 756 908 629 892 l 767 893 q 735 640 742 769 l 607 632 q 610 688 610 668 q 581 760 610 744 q 469 775 551 775 q 374 767 386 775 q 361 729 363 760 l 351 514 m 653 1073 q 653 1053 653 1073 q 627 1007 653 1033 q 560 981 601 981 q 498 1003 519 981 q 476 1066 476 1026 q 502 1132 476 1106 q 569 1158 528 1158 q 631 1135 610 1158 q 653 1073 653 1113 m 406 1073 q 406 1053 406 1073 q 380 1007 406 1033 q 313 981 354 981 q 251 1003 272 981 q 229 1066 229 1026 q 255 1132 229 1106 q 321 1158 281 1158 q 383 1135 361 1158 q 406 1073 406 1113 z "},"Ì":{"ha":507,"x_min":25,"x_max":464,"o":"m 67 893 l 261 892 l 458 901 l 450 808 q 381 787 397 801 q 361 733 364 772 q 344 185 344 446 q 355 109 344 128 q 397 90 365 90 l 457 94 l 464 85 l 451 -4 q 258 0 307 0 q 50 -12 163 0 l 60 78 q 141 114 121 90 q 161 194 161 138 l 163 729 q 153 787 163 772 q 113 801 143 801 l 64 800 l 57 811 l 67 893 m 32 1058 l 25 1076 l 61 1183 l 78 1190 q 388 1046 238 1111 l 369 981 l 350 968 q 32 1058 181 1021 z "},"Í":{"ha":507,"x_min":50,"x_max":500,"o":"m 67 893 l 261 892 l 458 901 l 450 808 q 381 787 397 801 q 361 733 364 772 q 344 185 344 446 q 355 109 344 128 q 397 90 365 90 l 457 94 l 464 85 l 451 -4 q 258 0 307 0 q 50 -12 163 0 l 60 78 q 141 114 121 90 q 161 194 161 138 l 163 729 q 153 787 163 772 q 113 801 143 801 l 64 800 l 57 811 l 67 893 m 500 1076 l 492 1058 q 174 968 332 1018 l 156 981 l 138 1046 l 447 1190 l 464 1183 l 500 1076 z "},"Î":{"ha":507,"x_min":26,"x_max":490,"o":"m 67 893 l 261 892 l 458 901 l 450 808 q 381 787 397 801 q 361 733 364 772 q 344 185 344 446 q 355 109 344 128 q 397 90 365 90 l 457 94 l 464 85 l 451 -4 q 258 0 307 0 q 50 -12 163 0 l 60 78 q 141 114 121 90 q 161 194 161 138 l 163 729 q 153 787 163 772 q 113 801 143 801 l 64 800 l 57 811 l 67 893 m 272 1217 q 360 1148 272 1218 q 490 1044 447 1078 l 457 988 l 435 982 q 258 1063 365 1017 q 83 982 192 1035 l 61 988 l 26 1044 q 244 1217 128 1118 l 272 1217 z "},"Ï":{"ha":507,"x_min":46,"x_max":469,"o":"m 67 893 l 261 892 l 458 901 l 450 808 q 381 787 397 801 q 361 733 364 772 q 344 185 344 446 q 355 109 344 128 q 397 90 365 90 l 457 94 l 464 85 l 451 -4 q 258 0 307 0 q 50 -12 163 0 l 60 78 q 141 114 121 90 q 161 194 161 138 l 163 729 q 153 787 163 772 q 113 801 143 801 l 64 800 l 57 811 l 67 893 m 469 1073 q 469 1053 469 1073 q 444 1007 469 1033 q 377 981 418 981 q 315 1003 336 981 q 293 1066 293 1026 q 319 1132 293 1106 q 385 1158 344 1158 q 448 1135 426 1158 q 469 1073 469 1113 m 222 1073 q 222 1053 222 1073 q 197 1007 222 1033 q 130 981 171 981 q 67 1003 89 981 q 46 1066 46 1026 q 72 1132 46 1106 q 138 1158 97 1158 q 200 1135 178 1158 q 222 1073 222 1113 z "},"Ð":{"ha":985,"x_min":11,"x_max":944,"o":"m 463 -17 q 275 0 331 0 q 74 -14 188 0 l 83 81 q 165 119 146 92 q 183 225 183 146 l 183 397 l 22 397 l 11 407 l 25 490 l 183 490 l 183 725 q 175 785 183 769 q 140 800 167 800 l 94 797 l 86 810 l 97 896 q 275 892 219 892 l 494 899 q 824 788 704 899 q 944 469 944 676 q 809 123 944 263 q 463 -17 674 -17 m 479 104 q 725 439 725 104 q 651 697 725 615 q 421 778 576 778 q 390 771 399 778 q 381 744 382 764 l 369 490 l 543 493 l 551 481 l 543 397 l 367 397 l 364 203 q 387 124 364 143 q 479 104 410 104 z "},"Ñ":{"ha":1013,"x_min":47,"x_max":988,"o":"m 688 801 l 640 800 l 635 811 l 644 897 q 824 892 763 892 l 988 899 l 981 806 q 915 779 935 799 q 893 718 894 760 l 875 -19 l 728 -37 q 324 579 522 292 l 310 579 l 308 151 q 319 103 308 117 q 356 89 329 89 l 415 93 l 424 83 l 410 -6 q 244 0 290 0 q 60 -11 165 0 l 71 82 q 153 169 151 92 l 171 718 q 149 780 171 763 q 58 804 126 797 l 47 818 l 57 899 q 218 892 150 892 l 351 897 q 722 326 533 601 l 736 326 l 733 742 q 688 801 732 801 m 408 1160 q 514 1136 432 1160 q 614 1113 596 1113 q 690 1167 644 1113 l 706 1185 l 721 1185 l 776 1133 l 776 1119 l 667 985 l 644 979 q 538 1003 619 979 q 439 1026 456 1026 q 361 972 407 1026 l 346 954 l 331 954 l 276 1006 l 276 1021 l 385 1154 l 408 1160 z "},"Ò":{"ha":936,"x_min":39,"x_max":897,"o":"m 254 458 q 254 377 254 458 q 311 200 254 296 q 469 104 368 104 q 626 181 571 104 q 681 421 681 258 q 622 678 681 583 q 462 774 564 774 q 307 697 360 774 q 254 458 254 619 m 897 465 q 897 359 897 465 q 771 118 897 253 q 449 -17 644 -17 q 146 101 253 -17 q 39 431 39 219 q 164 775 39 642 q 486 908 289 908 q 790 793 683 908 q 897 465 897 678 m 238 1058 l 231 1076 l 267 1183 l 283 1190 q 593 1046 443 1111 l 575 981 l 556 968 q 238 1058 386 1021 z "},"Ó":{"ha":936,"x_min":39,"x_max":897,"o":"m 254 458 q 254 377 254 458 q 311 200 254 296 q 469 104 368 104 q 626 181 571 104 q 681 421 681 258 q 622 678 681 583 q 462 774 564 774 q 307 697 360 774 q 254 458 254 619 m 897 465 q 897 359 897 465 q 771 118 897 253 q 449 -17 644 -17 q 146 101 253 -17 q 39 431 39 219 q 164 775 39 642 q 486 908 289 908 q 790 793 683 908 q 897 465 897 678 m 706 1076 l 697 1058 q 379 968 538 1018 l 361 981 l 343 1046 l 653 1190 l 669 1183 l 706 1076 z "},"Ô":{"ha":936,"x_min":39,"x_max":897,"o":"m 254 458 q 254 377 254 458 q 311 200 254 296 q 469 104 368 104 q 626 181 571 104 q 681 421 681 258 q 622 678 681 583 q 462 774 564 774 q 307 697 360 774 q 254 458 254 619 m 897 465 q 897 359 897 465 q 771 118 897 253 q 449 -17 644 -17 q 146 101 253 -17 q 39 431 39 219 q 164 775 39 642 q 486 908 289 908 q 790 793 683 908 q 897 465 897 678 m 478 1217 q 565 1148 478 1218 q 696 1044 653 1078 l 663 988 l 640 982 q 464 1063 571 1017 q 289 982 397 1035 l 267 988 l 232 1044 q 450 1217 333 1118 l 478 1217 z "},"Õ":{"ha":936,"x_min":39,"x_max":897,"o":"m 254 458 q 254 377 254 458 q 311 200 254 296 q 469 104 368 104 q 626 181 571 104 q 681 421 681 258 q 622 678 681 583 q 462 774 564 774 q 307 697 360 774 q 254 458 254 619 m 897 465 q 897 359 897 465 q 771 118 897 253 q 449 -17 644 -17 q 146 101 253 -17 q 39 431 39 219 q 164 775 39 642 q 486 908 289 908 q 790 793 683 908 q 897 465 897 678 m 347 1160 q 453 1136 371 1160 q 553 1113 535 1113 q 629 1167 583 1113 l 644 1185 l 660 1185 l 715 1133 l 715 1119 l 606 985 l 583 979 q 476 1003 558 979 q 378 1026 394 1026 q 300 972 346 1026 l 285 954 l 269 954 l 215 1006 l 215 1021 l 324 1154 l 347 1160 z "},"Ö":{"ha":936,"x_min":39,"x_max":897,"o":"m 254 458 q 254 377 254 458 q 311 200 254 296 q 469 104 368 104 q 626 181 571 104 q 681 421 681 258 q 622 678 681 583 q 462 774 564 774 q 307 697 360 774 q 254 458 254 619 m 897 465 q 897 359 897 465 q 771 118 897 253 q 449 -17 644 -17 q 146 101 253 -17 q 39 431 39 219 q 164 775 39 642 q 486 908 289 908 q 790 793 683 908 q 897 465 897 678 m 675 1073 q 675 1053 675 1073 q 649 1007 675 1033 q 583 981 624 981 q 520 1003 542 981 q 499 1066 499 1026 q 524 1132 499 1106 q 591 1158 550 1158 q 653 1135 632 1158 q 675 1073 675 1113 m 428 1073 q 428 1053 428 1073 q 402 1007 428 1033 q 335 981 376 981 q 273 1003 294 981 q 251 1066 251 1026 q 277 1132 251 1106 q 343 1158 303 1158 q 406 1135 383 1158 q 428 1073 428 1113 z "},"×":{"ha":703,"x_min":72,"x_max":628,"o":"m 526 628 l 543 621 l 622 524 l 446 346 l 628 176 l 621 158 l 521 78 l 349 249 l 178 75 l 158 79 l 88 179 q 253 343 175 265 l 72 522 l 76 542 l 179 615 q 351 442 271 521 l 526 628 z "},"Ø":{"ha":936,"x_min":39,"x_max":897,"o":"m 183 65 q 39 412 39 182 q 164 775 39 642 q 494 908 289 908 q 660 879 586 908 l 742 1013 l 828 972 l 832 954 l 753 828 q 897 483 897 714 q 771 118 897 253 q 438 -17 644 -17 q 272 13 351 -17 l 175 -149 l 92 -108 l 88 -94 l 183 65 m 472 104 q 626 181 571 104 q 681 403 681 258 q 640 642 681 549 l 353 149 q 472 104 401 104 m 456 774 q 307 697 360 774 q 254 477 254 619 q 290 243 254 335 l 574 733 q 456 774 525 774 z "},"Ù":{"ha":910,"x_min":25,"x_max":886,"o":"m 476 110 q 646 290 646 110 l 640 726 q 631 787 639 772 q 596 801 622 801 l 550 799 l 547 804 l 558 896 q 721 892 668 892 l 886 900 l 878 807 q 812 783 826 796 q 797 738 797 771 l 797 306 q 705 66 797 149 q 439 -17 613 -17 q 117 283 117 -17 l 117 726 q 108 787 117 772 q 72 801 100 801 l 28 799 l 25 804 l 38 896 q 236 892 157 892 l 401 900 l 392 806 q 333 785 349 800 q 314 732 317 769 l 304 328 q 349 167 304 224 q 476 110 393 110 m 246 1058 l 239 1076 l 275 1183 l 292 1190 q 601 1046 451 1111 l 583 981 l 564 968 q 246 1058 394 1021 z "},"Ú":{"ha":910,"x_min":25,"x_max":886,"o":"m 476 110 q 646 290 646 110 l 640 726 q 631 787 639 772 q 596 801 622 801 l 550 799 l 547 804 l 558 896 q 721 892 668 892 l 886 900 l 878 807 q 812 783 826 796 q 797 738 797 771 l 797 306 q 705 66 797 149 q 439 -17 613 -17 q 117 283 117 -17 l 117 726 q 108 787 117 772 q 72 801 100 801 l 28 799 l 25 804 l 38 896 q 236 892 157 892 l 401 900 l 392 806 q 333 785 349 800 q 314 732 317 769 l 304 328 q 349 167 304 224 q 476 110 393 110 m 714 1076 l 706 1058 q 388 968 546 1018 l 369 981 l 351 1046 l 661 1190 l 678 1183 l 714 1076 z "},"Û":{"ha":910,"x_min":25,"x_max":886,"o":"m 476 110 q 646 290 646 110 l 640 726 q 631 787 639 772 q 596 801 622 801 l 550 799 l 547 804 l 558 896 q 721 892 668 892 l 886 900 l 878 807 q 812 783 826 796 q 797 738 797 771 l 797 306 q 705 66 797 149 q 439 -17 613 -17 q 117 283 117 -17 l 117 726 q 108 787 117 772 q 72 801 100 801 l 28 799 l 25 804 l 38 896 q 236 892 157 892 l 401 900 l 392 806 q 333 785 349 800 q 314 732 317 769 l 304 328 q 349 167 304 224 q 476 110 393 110 m 488 1217 q 575 1148 488 1218 q 706 1044 663 1078 l 672 988 l 650 982 q 474 1063 581 1017 q 299 982 407 1035 l 276 988 l 242 1044 q 460 1217 343 1118 l 488 1217 z "},"Ü":{"ha":910,"x_min":25,"x_max":886,"o":"m 476 110 q 646 290 646 110 l 640 726 q 631 787 639 772 q 596 801 622 801 l 550 799 l 547 804 l 558 896 q 721 892 668 892 l 886 900 l 878 807 q 812 783 826 796 q 797 738 797 771 l 797 306 q 705 66 797 149 q 439 -17 613 -17 q 117 283 117 -17 l 117 726 q 108 787 117 772 q 72 801 100 801 l 28 799 l 25 804 l 38 896 q 236 892 157 892 l 401 900 l 392 806 q 333 785 349 800 q 314 732 317 769 l 304 328 q 349 167 304 224 q 476 110 393 110 m 683 1073 q 683 1053 683 1073 q 658 1007 683 1033 q 591 981 632 981 q 528 1003 550 981 q 507 1066 507 1026 q 533 1132 507 1106 q 599 1158 558 1158 q 662 1135 640 1158 q 683 1073 683 1113 m 436 1073 q 436 1053 436 1073 q 410 1007 436 1033 q 344 981 385 981 q 281 1003 303 981 q 260 1066 260 1026 q 285 1132 260 1106 q 351 1158 311 1158 q 414 1135 392 1158 q 436 1073 436 1113 z "},"Ý":{"ha":831,"x_min":-14,"x_max":844,"o":"m 513 896 l 697 890 l 839 896 l 844 886 l 835 801 q 747 747 781 783 q 667 624 714 710 l 533 375 q 508 183 508 326 q 508 155 508 179 q 522 112 508 131 q 574 93 535 93 l 643 97 l 647 90 l 635 -6 q 422 0 475 0 q 189 -15 351 0 l 199 81 q 301 115 278 90 q 324 211 324 140 l 324 253 q 283 394 324 318 l 147 660 q 83 756 114 726 q -10 799 51 786 l -14 806 l -3 894 q 176 890 121 890 l 399 901 l 406 889 l 399 808 q 333 797 351 807 q 315 770 315 788 q 340 692 315 753 q 433 481 396 554 l 447 481 l 557 710 q 576 776 576 749 q 506 808 576 804 l 503 815 l 513 896 m 690 1076 l 682 1058 q 364 968 522 1018 l 346 981 l 328 1046 l 638 1190 l 654 1183 l 690 1076 z "},"Þ":{"ha":796,"x_min":50,"x_max":779,"o":"m 361 744 q 358 711 361 744 l 464 711 q 779 467 779 711 q 682 276 779 353 q 443 200 585 200 l 344 200 l 344 158 q 355 103 344 117 q 397 90 365 90 l 464 94 l 469 85 l 457 -4 q 258 0 308 0 q 50 -12 163 0 l 60 78 q 141 113 121 90 q 161 194 161 136 l 163 729 q 153 787 163 772 q 113 801 143 801 l 64 800 l 57 811 l 67 893 l 261 892 l 458 901 l 450 808 q 380 788 396 800 q 361 744 364 776 m 582 453 q 535 564 582 529 q 385 599 488 599 q 360 594 367 599 q 353 579 354 590 q 346 322 346 410 q 461 303 415 303 q 582 453 582 322 z "},"ß":{"ha":1294,"x_min":47,"x_max":1242,"o":"m 265 -12 q 158 -2 210 -12 q 58 29 107 8 l 47 46 q 68 228 65 144 l 175 236 q 201 128 175 158 q 286 99 228 99 q 374 118 344 99 q 403 169 403 138 q 388 208 403 194 q 365 228 372 221 q 337 244 357 235 q 307 258 317 254 q 222 297 294 265 q 103 373 150 329 q 56 488 56 417 q 144 647 56 585 q 374 708 233 708 q 575 679 482 708 l 585 663 q 556 476 564 574 l 458 468 l 447 476 q 449 507 449 492 q 424 572 449 551 q 349 592 399 592 q 272 573 300 592 q 243 530 243 554 q 253 490 243 506 q 292 458 264 475 q 381 415 324 440 q 466 376 438 390 q 528 336 494 361 q 594 207 594 286 q 506 47 594 107 q 265 -12 417 -12 m 914 -12 q 806 -2 858 -12 q 706 29 754 8 l 694 46 q 715 228 713 144 l 822 236 q 849 128 822 158 q 933 99 875 99 q 1021 118 992 99 q 1050 169 1050 138 q 1035 208 1050 194 q 1012 228 1019 221 q 984 244 1004 235 q 954 258 964 254 q 892 288 942 265 q 817 325 843 310 q 761 364 790 340 q 704 488 704 411 q 792 647 704 586 q 1021 708 881 708 q 1222 679 1129 708 l 1232 663 q 1204 476 1211 574 l 1106 468 l 1094 476 q 1096 507 1096 492 q 1071 572 1096 551 q 997 592 1046 592 q 919 573 947 592 q 890 530 890 554 q 901 490 890 506 q 939 458 911 475 q 1028 415 971 440 q 1113 376 1085 390 q 1175 336 1142 361 q 1242 207 1242 286 q 1153 47 1242 107 q 914 -12 1064 -12 z "},"à":{"ha":756,"x_min":1,"x_max":751,"o":"m 396 75 q 467 86 453 81 q 482 106 482 92 q 457 213 482 124 q 383 214 428 214 q 253 208 338 214 q 222 106 222 122 q 232 84 222 90 q 271 78 242 78 l 314 78 l 322 68 l 313 -6 q 143 0 215 0 l 1 -3 l 10 76 q 79 144 56 85 l 278 690 l 490 708 l 504 700 q 663 150 608 311 q 692 96 674 113 q 747 76 711 79 l 751 67 l 743 -3 q 599 0 651 0 l 397 -8 l 390 0 l 396 75 m 357 315 q 436 318 389 315 l 376 542 l 358 542 l 283 315 l 357 315 m 176 861 l 169 879 l 206 986 l 222 993 q 532 849 382 914 l 514 783 l 494 771 q 176 861 374 808 z "},"á":{"ha":756,"x_min":1,"x_max":751,"o":"m 396 75 q 467 86 453 81 q 482 106 482 92 q 457 213 482 124 q 383 214 428 214 q 253 208 338 214 q 222 106 222 122 q 232 84 222 90 q 271 78 242 78 l 314 78 l 322 68 l 313 -6 q 143 0 215 0 l 1 -3 l 10 76 q 79 144 56 85 l 278 690 l 490 708 l 504 700 q 663 150 608 311 q 692 96 674 113 q 747 76 711 79 l 751 67 l 743 -3 q 599 0 651 0 l 397 -8 l 390 0 l 396 75 m 357 315 q 436 318 389 315 l 376 542 l 358 542 l 283 315 l 357 315 m 610 879 l 601 861 q 283 771 442 821 l 265 783 l 247 849 l 557 993 l 574 986 l 610 879 z "},"â":{"ha":756,"x_min":1,"x_max":751,"o":"m 396 75 q 467 86 453 81 q 482 106 482 92 q 457 213 482 124 q 383 214 428 214 q 253 208 338 214 q 222 106 222 122 q 232 84 222 90 q 271 78 242 78 l 314 78 l 322 68 l 313 -6 q 143 0 215 0 l 1 -3 l 10 76 q 79 144 56 85 l 278 690 l 490 708 l 504 700 q 663 150 608 311 q 692 96 674 113 q 747 76 711 79 l 751 67 l 743 -3 q 599 0 651 0 l 397 -8 l 390 0 l 396 75 m 357 315 q 436 318 389 315 l 376 542 l 358 542 l 283 315 l 357 315 m 397 1019 q 485 951 397 1021 q 615 847 572 881 l 582 790 l 560 785 q 383 865 490 819 q 208 785 317 838 l 186 790 l 151 847 q 369 1019 253 921 l 397 1019 z "},"ã":{"ha":756,"x_min":1,"x_max":751,"o":"m 396 75 q 467 86 453 81 q 482 106 482 92 q 457 213 482 124 q 383 214 428 214 q 253 208 338 214 q 222 106 222 122 q 232 84 222 90 q 271 78 242 78 l 314 78 l 322 68 l 313 -6 q 143 0 215 0 l 1 -3 l 10 76 q 79 144 56 85 l 278 690 l 490 708 l 504 700 q 663 150 608 311 q 692 96 674 113 q 747 76 711 79 l 751 67 l 743 -3 q 599 0 651 0 l 397 -8 l 390 0 l 396 75 m 357 315 q 436 318 389 315 l 376 542 l 358 542 l 283 315 l 357 315 m 265 963 q 371 939 289 963 q 469 915 453 915 q 547 969 501 915 l 563 988 l 578 988 l 633 936 l 633 922 l 524 788 l 501 782 q 394 806 476 782 q 294 829 313 829 q 218 775 264 829 l 203 757 l 188 757 l 133 808 l 133 824 l 242 957 l 265 963 z "},"ä":{"ha":756,"x_min":1,"x_max":751,"o":"m 396 75 q 467 86 453 81 q 482 106 482 92 q 457 213 482 124 q 383 214 428 214 q 253 208 338 214 q 222 106 222 122 q 232 84 222 90 q 271 78 242 78 l 314 78 l 322 68 l 313 -6 q 143 0 215 0 l 1 -3 l 10 76 q 79 144 56 85 l 278 690 l 490 708 l 504 700 q 663 150 608 311 q 692 96 674 113 q 747 76 711 79 l 751 67 l 743 -3 q 599 0 651 0 l 397 -8 l 390 0 l 396 75 m 357 315 q 436 318 389 315 l 376 542 l 358 542 l 283 315 l 357 315 m 594 876 q 594 856 594 876 q 569 810 594 836 q 502 783 543 783 q 440 806 461 783 q 418 869 418 829 q 444 935 418 908 q 510 961 469 961 q 573 938 551 961 q 594 876 594 915 m 347 876 q 347 856 347 876 q 322 810 347 836 q 255 783 296 783 q 192 806 214 783 q 171 869 171 829 q 197 935 171 908 q 263 961 222 961 q 325 938 303 961 q 347 876 347 915 z "},"å":{"ha":756,"x_min":1,"x_max":751,"o":"m 396 75 q 467 86 453 81 q 482 106 482 92 q 457 213 482 124 q 383 214 428 214 q 253 208 338 214 q 222 106 222 122 q 232 84 222 90 q 271 78 242 78 l 314 78 l 322 68 l 313 -6 q 143 0 215 0 l 1 -3 l 10 76 q 79 144 56 85 l 278 690 l 490 708 l 504 700 q 663 150 608 311 q 692 96 674 113 q 747 76 711 79 l 751 67 l 743 -3 q 599 0 651 0 l 397 -8 l 390 0 l 396 75 m 357 315 q 436 318 389 315 l 376 542 l 358 542 l 283 315 l 357 315 m 386 818 q 442 868 442 818 q 425 910 442 894 q 378 926 408 926 q 324 876 324 926 q 343 833 324 847 q 386 818 363 818 m 511 879 q 511 852 511 879 q 474 785 511 825 q 378 744 438 744 q 286 779 318 744 q 254 871 254 814 q 291 965 254 928 q 389 1003 328 1003 q 481 968 450 1003 q 511 879 511 933 z "},"æ":{"ha":1043,"x_min":10,"x_max":1004,"o":"m 475 124 l 460 258 l 363 247 l 268 226 l 226 136 q 214 101 214 115 q 226 82 214 86 q 276 78 239 78 l 308 71 l 300 -6 q 101 0 178 0 l 14 -3 l 10 72 q 78 144 42 78 l 304 592 q 275 618 299 618 l 242 617 l 232 626 l 242 699 q 603 696 383 696 q 919 708 822 696 l 929 696 q 903 493 908 594 l 785 485 q 788 528 788 513 q 763 582 788 571 q 676 593 739 593 q 604 588 614 593 q 593 564 594 583 l 621 385 l 724 399 l 836 422 l 849 408 l 835 307 l 731 297 l 636 285 l 656 169 q 732 96 668 96 q 847 117 821 96 q 885 218 874 139 l 994 226 l 1004 214 q 972 6 983 114 l 960 -7 q 615 0 700 0 l 569 0 l 385 -8 l 379 0 l 385 75 q 458 89 440 79 q 475 124 475 99 m 315 344 l 450 358 l 426 540 l 408 540 l 315 344 z "},"ç":{"ha":728,"x_min":40,"x_max":675,"o":"m 349 -11 q 122 88 204 -3 q 40 342 40 178 q 148 607 40 506 q 442 708 256 708 q 667 681 528 708 l 675 665 q 643 451 651 572 l 515 444 q 517 511 517 472 q 403 590 517 590 q 240 368 240 590 q 285 173 240 240 q 411 106 329 106 q 499 139 468 106 q 542 247 531 172 l 671 256 q 650 44 653 139 l 638 31 q 421 -11 544 -4 l 407 -61 q 467 -98 444 -83 q 515 -141 490 -112 q 540 -196 540 -169 q 484 -290 540 -250 q 356 -329 428 -329 q 282 -312 317 -329 q 247 -269 247 -296 q 299 -182 247 -243 l 311 -182 q 332 -240 313 -219 q 379 -260 351 -260 q 423 -248 407 -260 q 439 -218 439 -236 q 319 -119 439 -182 l 349 -11 z "},"è":{"ha":711,"x_min":47,"x_max":661,"o":"m 314 406 l 417 404 l 547 414 l 558 401 l 542 299 q 422 301 451 301 q 308 296 392 301 q 307 191 307 263 q 318 108 307 119 q 401 97 329 97 q 501 118 472 97 q 543 218 531 139 l 651 226 l 661 214 q 631 6 640 114 l 617 -7 q 308 0 408 0 q 47 -11 164 0 l 57 71 q 119 97 103 76 q 136 165 136 117 l 138 560 q 131 606 138 594 q 103 618 124 618 l 69 617 l 60 626 l 69 699 q 372 696 204 696 q 644 708 540 696 l 654 696 q 628 493 635 594 l 510 485 q 513 528 513 513 q 489 582 513 571 q 402 593 465 593 q 330 588 339 593 q 321 560 321 582 l 314 406 m 165 861 l 158 879 l 194 986 l 211 993 q 521 849 371 914 l 503 783 l 483 771 q 165 861 363 808 z "},"é":{"ha":711,"x_min":47,"x_max":661,"o":"m 314 406 l 417 404 l 547 414 l 558 401 l 542 299 q 422 301 451 301 q 308 296 392 301 q 307 191 307 263 q 318 108 307 119 q 401 97 329 97 q 501 118 472 97 q 543 218 531 139 l 651 226 l 661 214 q 631 6 640 114 l 617 -7 q 308 0 408 0 q 47 -11 164 0 l 57 71 q 119 97 103 76 q 136 165 136 117 l 138 560 q 131 606 138 594 q 103 618 124 618 l 69 617 l 60 626 l 69 699 q 372 696 204 696 q 644 708 540 696 l 654 696 q 628 493 635 594 l 510 485 q 513 528 513 513 q 489 582 513 571 q 402 593 465 593 q 330 588 339 593 q 321 560 321 582 l 314 406 m 606 879 l 597 861 q 279 771 438 821 l 261 783 l 243 849 l 553 993 l 569 986 l 606 879 z "},"ê":{"ha":711,"x_min":47,"x_max":661,"o":"m 314 406 l 417 404 l 547 414 l 558 401 l 542 299 q 422 301 451 301 q 308 296 392 301 q 307 191 307 263 q 318 108 307 119 q 401 97 329 97 q 501 118 472 97 q 543 218 531 139 l 651 226 l 661 214 q 631 6 640 114 l 617 -7 q 308 0 408 0 q 47 -11 164 0 l 57 71 q 119 97 103 76 q 136 165 136 117 l 138 560 q 131 606 138 594 q 103 618 124 618 l 69 617 l 60 626 l 69 699 q 372 696 204 696 q 644 708 540 696 l 654 696 q 628 493 635 594 l 510 485 q 513 528 513 513 q 489 582 513 571 q 402 593 465 593 q 330 588 339 593 q 321 560 321 582 l 314 406 m 394 1019 q 482 951 394 1021 q 613 847 569 881 l 579 790 l 557 785 q 381 865 488 819 q 206 785 314 838 l 183 790 l 149 847 q 367 1019 250 921 l 394 1019 z "},"ë":{"ha":711,"x_min":47,"x_max":661,"o":"m 314 406 l 417 404 l 547 414 l 558 401 l 542 299 q 422 301 451 301 q 308 296 392 301 q 307 191 307 263 q 318 108 307 119 q 401 97 329 97 q 501 118 472 97 q 543 218 531 139 l 651 226 l 661 214 q 631 6 640 114 l 617 -7 q 308 0 408 0 q 47 -11 164 0 l 57 71 q 119 97 103 76 q 136 165 136 117 l 138 560 q 131 606 138 594 q 103 618 124 618 l 69 617 l 60 626 l 69 699 q 372 696 204 696 q 644 708 540 696 l 654 696 q 628 493 635 594 l 510 485 q 513 528 513 513 q 489 582 513 571 q 402 593 465 593 q 330 588 339 593 q 321 560 321 582 l 314 406 m 590 876 q 590 856 590 876 q 565 810 590 836 q 498 783 539 783 q 435 806 457 783 q 414 869 414 829 q 440 935 414 908 q 507 961 467 961 q 569 938 547 961 q 590 876 590 915 m 343 876 q 343 856 343 876 q 317 810 343 836 q 251 783 292 783 q 188 806 210 783 q 167 869 167 829 q 192 935 167 908 q 258 961 218 961 q 321 938 299 961 q 343 876 343 915 z "},"ì":{"ha":444,"x_min":6,"x_max":401,"o":"m 61 697 l 228 696 l 399 703 l 392 622 q 335 606 349 617 q 319 564 322 596 q 307 151 307 346 q 315 92 307 107 q 350 78 324 78 l 394 81 l 401 72 l 392 -3 q 215 0 267 0 l 49 -8 l 57 69 q 122 97 106 79 q 138 160 138 114 l 138 561 q 129 607 138 596 q 97 618 121 618 l 60 617 l 53 628 l 61 697 m 13 861 l 6 879 l 42 986 l 58 993 q 368 849 218 914 l 350 783 l 331 771 q 13 861 210 808 z "},"í":{"ha":444,"x_min":49,"x_max":451,"o":"m 61 697 l 228 696 l 399 703 l 392 622 q 335 606 349 617 q 319 564 322 596 q 307 151 307 346 q 315 92 307 107 q 350 78 324 78 l 394 81 l 401 72 l 392 -3 q 215 0 267 0 l 49 -8 l 57 69 q 122 97 106 79 q 138 160 138 114 l 138 561 q 129 607 138 596 q 97 618 121 618 l 60 617 l 53 628 l 61 697 m 451 879 l 443 861 q 125 771 283 821 l 107 783 l 89 849 l 399 993 l 415 986 l 451 879 z "},"î":{"ha":444,"x_min":-6,"x_max":458,"o":"m 61 697 l 228 696 l 399 703 l 392 622 q 335 606 349 617 q 319 564 322 596 q 307 151 307 346 q 315 92 307 107 q 350 78 324 78 l 394 81 l 401 72 l 392 -3 q 215 0 267 0 l 49 -8 l 57 69 q 122 97 106 79 q 138 160 138 114 l 138 561 q 129 607 138 596 q 97 618 121 618 l 60 617 l 53 628 l 61 697 m 240 1019 q 328 951 240 1021 q 458 847 415 881 l 425 790 l 403 785 q 226 865 333 819 q 51 785 160 838 l 29 790 l -6 847 q 213 1019 96 921 l 240 1019 z "},"ï":{"ha":444,"x_min":13,"x_max":436,"o":"m 61 697 l 228 696 l 399 703 l 392 622 q 335 606 349 617 q 319 564 322 596 q 307 151 307 346 q 315 92 307 107 q 350 78 324 78 l 394 81 l 401 72 l 392 -3 q 215 0 267 0 l 49 -8 l 57 69 q 122 97 106 79 q 138 160 138 114 l 138 561 q 129 607 138 596 q 97 618 121 618 l 60 617 l 53 628 l 61 697 m 436 876 q 436 856 436 876 q 410 810 436 836 q 344 783 385 783 q 281 806 303 783 q 260 869 260 829 q 285 935 260 908 q 352 961 311 961 q 415 938 393 961 q 436 876 436 915 m 189 876 q 189 856 189 876 q 163 810 189 836 q 97 783 138 783 q 34 806 56 783 q 13 869 13 829 q 38 935 13 908 q 104 961 64 961 q 167 938 144 961 q 189 876 189 915 z "},"ð":{"ha":836,"x_min":22,"x_max":794,"o":"m 158 178 l 158 303 l 32 303 l 22 311 l 35 385 l 158 385 l 158 558 q 151 605 158 593 q 124 617 144 617 l 88 614 l 79 625 l 89 699 q 242 696 196 696 l 425 701 q 697 616 600 701 q 794 367 794 531 q 684 95 794 203 q 396 -12 574 -12 q 221 0 288 0 l 69 -11 l 78 72 q 143 100 128 79 q 158 178 158 121 m 407 93 q 593 342 593 93 q 540 535 593 476 q 369 594 488 594 q 345 588 351 594 q 339 567 339 582 l 329 386 l 458 388 l 467 378 l 458 303 l 326 303 l 325 164 q 342 107 325 121 q 407 93 358 93 z "},"ñ":{"ha":864,"x_min":46,"x_max":836,"o":"m 571 618 l 533 618 l 528 626 l 536 700 q 738 696 640 696 q 836 701 836 696 l 831 621 q 776 600 792 615 q 758 553 760 585 l 743 -10 l 600 -24 q 289 415 453 196 l 276 415 l 276 128 q 287 88 278 99 q 318 76 296 76 l 364 79 l 372 72 l 360 -4 q 206 0 254 0 l 56 -8 l 65 72 q 115 92 100 76 q 132 140 131 107 l 147 551 q 129 599 147 586 q 56 619 111 613 l 46 631 l 54 701 q 196 696 132 696 l 315 700 q 600 289 447 496 l 613 289 l 608 571 q 599 608 607 597 q 571 618 590 618 m 331 963 q 436 939 354 963 q 536 915 518 915 q 613 969 567 915 l 628 988 l 643 988 l 699 936 l 699 922 l 589 788 l 567 782 q 460 806 542 782 q 361 829 378 829 q 283 775 329 829 l 268 757 l 253 757 l 199 808 l 199 824 l 307 957 l 331 963 z "},"ò":{"ha":792,"x_min":40,"x_max":751,"o":"m 400 94 q 512 149 472 94 q 551 308 551 203 q 386 590 551 590 q 240 378 240 590 q 400 94 240 94 m 751 362 q 751 277 751 362 q 649 90 751 193 q 381 -12 546 -12 q 128 78 217 -12 q 40 338 40 169 q 142 607 40 506 q 410 708 243 708 q 664 619 576 708 q 751 362 751 531 m 193 861 l 186 879 l 222 986 l 239 993 q 549 849 399 914 l 531 783 l 511 771 q 193 861 390 808 z "},"ó":{"ha":792,"x_min":40,"x_max":751,"o":"m 400 94 q 512 149 472 94 q 551 308 551 203 q 386 590 551 590 q 240 378 240 590 q 400 94 240 94 m 751 362 q 751 277 751 362 q 649 90 751 193 q 381 -12 546 -12 q 128 78 217 -12 q 40 338 40 169 q 142 607 40 506 q 410 708 243 708 q 664 619 576 708 q 751 362 751 531 m 619 879 l 611 861 q 293 771 451 821 l 275 783 l 257 849 l 567 993 l 583 986 l 619 879 z "},"ô":{"ha":792,"x_min":40,"x_max":751,"o":"m 400 94 q 512 149 472 94 q 551 308 551 203 q 386 590 551 590 q 240 378 240 590 q 400 94 240 94 m 751 362 q 751 277 751 362 q 649 90 751 193 q 381 -12 546 -12 q 128 78 217 -12 q 40 338 40 169 q 142 607 40 506 q 410 708 243 708 q 664 619 576 708 q 751 362 751 531 m 414 1019 q 501 951 414 1021 q 632 847 589 881 l 599 790 l 576 785 q 400 865 507 819 q 225 785 333 838 l 203 790 l 168 847 q 386 1019 269 921 l 414 1019 z "},"õ":{"ha":792,"x_min":40,"x_max":751,"o":"m 400 94 q 512 149 472 94 q 551 308 551 203 q 386 590 551 590 q 240 378 240 590 q 400 94 240 94 m 751 362 q 751 277 751 362 q 649 90 751 193 q 381 -12 546 -12 q 128 78 217 -12 q 40 338 40 169 q 142 607 40 506 q 410 708 243 708 q 664 619 576 708 q 751 362 751 531 m 282 963 q 388 939 306 963 q 486 915 469 915 q 564 969 518 915 l 579 988 l 594 988 l 650 936 l 650 922 l 540 788 l 518 782 q 411 806 493 782 q 311 829 329 829 q 235 775 281 829 l 219 757 l 204 757 l 150 808 l 150 824 l 258 957 l 282 963 z "},"ö":{"ha":792,"x_min":40,"x_max":751,"o":"m 400 94 q 512 149 472 94 q 551 308 551 203 q 386 590 551 590 q 240 378 240 590 q 400 94 240 94 m 751 362 q 751 277 751 362 q 649 90 751 193 q 381 -12 546 -12 q 128 78 217 -12 q 40 338 40 169 q 142 607 40 506 q 410 708 243 708 q 664 619 576 708 q 751 362 751 531 m 611 876 q 611 856 611 876 q 585 810 611 836 q 519 783 560 783 q 456 806 478 783 q 435 869 435 829 q 460 935 435 908 q 527 961 486 961 q 590 938 568 961 q 611 876 611 915 m 364 876 q 364 856 364 876 q 338 810 364 836 q 272 783 313 783 q 209 806 231 783 q 188 869 188 829 q 213 935 188 908 q 279 961 239 961 q 342 938 319 961 q 364 876 364 915 z "},"÷":{"ha":703,"x_min":24,"x_max":679,"o":"m 669 433 l 679 417 l 665 289 l 33 286 l 24 301 l 43 426 q 368 425 244 425 l 669 433 m 444 113 q 444 90 444 113 q 416 39 444 68 q 341 10 388 10 q 270 36 294 10 q 246 107 246 63 q 274 181 246 151 q 349 210 303 210 q 419 183 394 210 q 444 113 444 157 m 444 606 q 444 583 444 606 q 416 532 444 561 q 341 503 388 503 q 270 529 294 503 q 246 600 246 556 q 274 674 246 644 q 349 703 303 703 q 419 676 394 703 q 444 606 444 650 z "},"ø":{"ha":792,"x_min":40,"x_max":751,"o":"m 149 60 q 40 328 40 151 q 142 607 40 506 q 417 708 243 708 q 550 688 492 708 l 625 799 l 708 757 l 710 742 l 640 639 q 751 372 751 551 q 649 90 751 193 q 374 -12 546 -12 q 235 10 299 -12 l 146 -121 l 65 -78 l 63 -67 l 149 60 m 311 125 q 409 94 346 94 q 512 149 472 94 q 551 306 551 203 q 531 471 551 408 l 311 125 m 240 378 q 256 226 240 290 l 469 564 q 386 590 432 590 q 240 378 240 590 z "},"ù":{"ha":767,"x_min":28,"x_max":740,"o":"m 403 97 q 528 224 528 97 l 525 560 q 517 606 524 594 q 490 618 510 618 l 454 617 l 451 621 l 463 699 q 597 696 554 696 l 740 701 l 733 621 q 681 602 692 611 q 669 568 669 593 l 669 243 q 593 53 669 118 q 376 -12 517 -12 q 169 44 235 -12 q 103 219 103 101 l 103 560 q 95 607 103 596 q 65 618 88 618 l 31 617 l 28 621 l 39 699 q 213 696 140 696 l 353 701 l 344 619 q 297 604 310 617 q 282 564 283 592 l 274 249 q 307 138 274 178 q 403 97 340 97 m 186 861 l 179 879 l 215 986 l 232 993 q 542 849 392 914 l 524 783 l 504 771 q 186 861 383 808 z "},"ú":{"ha":767,"x_min":28,"x_max":740,"o":"m 403 97 q 528 224 528 97 l 525 560 q 517 606 524 594 q 490 618 510 618 l 454 617 l 451 621 l 463 699 q 597 696 554 696 l 740 701 l 733 621 q 681 602 692 611 q 669 568 669 593 l 669 243 q 593 53 669 118 q 376 -12 517 -12 q 169 44 235 -12 q 103 219 103 101 l 103 560 q 95 607 103 596 q 65 618 88 618 l 31 617 l 28 621 l 39 699 q 213 696 140 696 l 353 701 l 344 619 q 297 604 310 617 q 282 564 283 592 l 274 249 q 307 138 274 178 q 403 97 340 97 m 619 879 l 611 861 q 293 771 451 821 l 275 783 l 257 849 l 567 993 l 583 986 l 619 879 z "},"û":{"ha":767,"x_min":28,"x_max":740,"o":"m 403 97 q 528 224 528 97 l 525 560 q 517 606 524 594 q 490 618 510 618 l 454 617 l 451 621 l 463 699 q 597 696 554 696 l 740 701 l 733 621 q 681 602 692 611 q 669 568 669 593 l 669 243 q 593 53 669 118 q 376 -12 517 -12 q 169 44 235 -12 q 103 219 103 101 l 103 560 q 95 607 103 596 q 65 618 88 618 l 31 617 l 28 621 l 39 699 q 213 696 140 696 l 353 701 l 344 619 q 297 604 310 617 q 282 564 283 592 l 274 249 q 307 138 274 178 q 403 97 340 97 m 414 1019 q 501 951 414 1021 q 632 847 589 881 l 599 790 l 576 785 q 400 865 507 819 q 225 785 333 838 l 203 790 l 168 847 q 386 1019 269 921 l 414 1019 z "},"ü":{"ha":767,"x_min":28,"x_max":740,"o":"m 403 97 q 528 224 528 97 l 525 560 q 517 606 524 594 q 490 618 510 618 l 454 617 l 451 621 l 463 699 q 597 696 554 696 l 740 701 l 733 621 q 681 602 692 611 q 669 568 669 593 l 669 243 q 593 53 669 118 q 376 -12 517 -12 q 169 44 235 -12 q 103 219 103 101 l 103 560 q 95 607 103 596 q 65 618 88 618 l 31 617 l 28 621 l 39 699 q 213 696 140 696 l 353 701 l 344 619 q 297 604 310 617 q 282 564 283 592 l 274 249 q 307 138 274 178 q 403 97 340 97 m 611 876 q 611 856 611 876 q 585 810 611 836 q 519 783 560 783 q 456 806 478 783 q 435 869 435 829 q 460 935 435 908 q 527 961 486 961 q 590 938 568 961 q 611 876 611 915 m 364 876 q 364 856 364 876 q 338 810 364 836 q 272 783 313 783 q 209 806 231 783 q 188 869 188 829 q 213 935 188 908 q 279 961 239 961 q 342 938 319 961 q 364 876 364 915 z "},"ý":{"ha":728,"x_min":4,"x_max":725,"o":"m 440 699 l 600 694 l 721 699 l 725 690 l 717 617 q 644 570 674 601 q 581 479 615 539 l 472 285 q 453 150 453 246 q 453 128 453 146 q 465 95 453 110 q 507 81 476 81 l 565 83 l 568 78 l 558 -6 q 357 0 418 0 l 165 -11 l 174 71 q 261 96 242 78 q 281 168 281 114 l 281 196 q 249 303 281 243 l 133 511 q 82 579 108 557 q 8 614 56 601 l 4 619 l 14 697 q 168 694 124 694 l 357 703 l 364 692 l 356 622 q 293 590 293 621 q 335 488 293 575 q 382 389 378 400 l 394 389 l 474 549 q 490 599 490 582 q 435 622 490 621 l 432 628 l 440 699 m 615 879 l 607 861 q 289 771 447 821 l 271 783 l 253 849 l 563 993 l 579 986 l 615 879 z "},"þ":{"ha":690,"x_min":49,"x_max":668,"o":"m 392 622 q 334 606 347 615 q 318 557 321 597 l 403 557 q 668 361 668 557 q 588 213 668 272 q 388 154 508 154 l 307 154 l 307 124 q 315 87 307 96 q 350 78 324 78 l 401 81 l 408 72 l 399 -3 q 215 0 268 0 l 49 -8 l 57 69 q 122 96 106 78 q 138 160 138 114 l 138 561 q 129 607 138 596 q 97 618 121 618 l 60 617 l 53 628 l 61 697 q 228 696 61 697 l 399 703 l 392 622 m 313 440 l 308 260 q 397 246 357 246 q 488 354 488 261 q 452 433 488 408 q 339 458 417 458 q 313 440 314 458 z "},"ÿ":{"ha":728,"x_min":4,"x_max":725,"o":"m 440 699 l 600 694 l 721 699 l 725 690 l 717 617 q 644 570 674 601 q 581 479 615 539 l 472 285 q 453 150 453 246 q 453 128 453 146 q 465 95 453 110 q 507 81 476 81 l 565 83 l 568 78 l 558 -6 q 357 0 418 0 l 165 -11 l 174 71 q 261 96 242 78 q 281 168 281 114 l 281 196 q 249 303 281 243 l 133 511 q 82 579 108 557 q 8 614 56 601 l 4 619 l 14 697 q 168 694 124 694 l 357 703 l 364 692 l 356 622 q 293 590 293 621 q 335 488 293 575 q 382 389 378 400 l 394 389 l 474 549 q 490 599 490 582 q 435 622 490 621 l 432 628 l 440 699 m 599 876 q 599 856 599 876 q 573 810 599 836 q 506 783 547 783 q 444 806 465 783 q 422 869 422 829 q 449 935 422 908 q 515 961 475 961 q 577 938 556 961 q 599 876 599 915 m 351 876 q 351 856 351 876 q 326 810 351 836 q 259 783 300 783 q 197 806 218 783 q 175 869 175 829 q 201 935 175 908 q 267 961 226 961 q 329 938 307 961 q 351 876 351 915 z "},"Ā":{"ha":868,"x_min":-17,"x_max":881,"o":"m 871 -4 q 704 0 761 0 q 465 -11 593 0 l 457 0 l 464 83 q 551 99 532 89 q 571 128 571 108 q 564 181 571 149 l 536 286 q 428 288 500 288 q 278 278 356 288 l 243 174 q 235 126 235 144 q 249 98 235 107 q 299 89 263 89 l 358 89 l 364 79 l 354 -8 q 151 0 240 0 l -17 -4 l -6 89 q 48 115 28 94 q 85 181 68 135 l 332 885 l 553 907 l 568 900 q 767 183 693 418 q 806 113 782 133 q 875 88 829 92 l 881 78 l 871 -4 m 408 397 q 511 403 453 397 l 431 708 l 411 708 l 311 397 l 408 397 m 643 1111 l 654 1092 l 638 985 l 249 982 l 233 999 l 253 1104 q 467 1103 385 1103 l 643 1111 z "},"ā":{"ha":756,"x_min":1,"x_max":751,"o":"m 396 75 q 467 86 453 81 q 482 106 482 92 q 457 213 482 124 q 383 214 428 214 q 253 208 338 214 q 222 106 222 122 q 232 84 222 90 q 271 78 242 78 l 314 78 l 322 68 l 313 -6 q 143 0 215 0 l 1 -3 l 10 76 q 79 144 56 85 l 278 690 l 490 708 l 504 700 q 663 150 608 311 q 692 96 674 113 q 747 76 711 79 l 751 67 l 743 -3 q 599 0 651 0 l 397 -8 l 390 0 l 396 75 m 357 315 q 436 318 389 315 l 376 542 l 358 542 l 283 315 l 357 315 m 583 914 l 594 894 l 578 788 l 189 785 l 174 801 l 193 907 q 407 906 325 906 l 583 914 z "},"Ă":{"ha":868,"x_min":-17,"x_max":881,"o":"m 871 -4 q 704 0 761 0 q 465 -11 593 0 l 457 0 l 464 83 q 551 99 532 89 q 571 128 571 108 q 564 181 571 149 l 536 286 q 428 288 500 288 q 278 278 356 288 l 243 174 q 235 126 235 144 q 249 98 235 107 q 299 89 263 89 l 358 89 l 364 79 l 354 -8 q 151 0 240 0 l -17 -4 l -6 89 q 48 115 28 94 q 85 181 68 135 l 332 885 l 553 907 l 568 900 q 767 183 693 418 q 806 113 782 133 q 875 88 829 92 l 881 78 l 871 -4 m 408 397 q 511 403 453 397 l 431 708 l 411 708 l 311 397 l 408 397 m 297 1178 q 440 1094 335 1094 q 583 1178 546 1094 l 607 1172 l 646 1124 q 574 1008 625 1054 q 440 963 522 963 q 307 1008 358 963 q 235 1124 256 1054 l 274 1172 l 297 1178 z "},"ă":{"ha":756,"x_min":1,"x_max":751,"o":"m 396 75 q 467 86 453 81 q 482 106 482 92 q 457 213 482 124 q 383 214 428 214 q 253 208 338 214 q 222 106 222 122 q 232 84 222 90 q 271 78 242 78 l 314 78 l 322 68 l 313 -6 q 143 0 215 0 l 1 -3 l 10 76 q 79 144 56 85 l 278 690 l 490 708 l 504 700 q 663 150 608 311 q 692 96 674 113 q 747 76 711 79 l 751 67 l 743 -3 q 599 0 651 0 l 397 -8 l 390 0 l 396 75 m 357 315 q 436 318 389 315 l 376 542 l 358 542 l 283 315 l 357 315 m 239 988 q 382 904 276 904 q 525 988 488 904 l 549 982 l 588 933 q 515 818 567 864 q 382 772 464 772 q 249 818 300 772 q 176 933 197 864 l 215 982 l 239 988 z "},"Ą":{"ha":868,"x_min":-17,"x_max":881,"o":"m 738 -335 q 617 -301 663 -335 q 572 -215 572 -267 q 603 -116 572 -164 q 699 0 633 -68 q 465 -11 593 0 l 457 0 l 464 83 q 551 99 532 89 q 571 128 571 108 q 564 181 571 149 l 536 286 q 428 288 500 288 q 278 278 356 288 l 243 174 q 235 126 235 144 q 249 98 235 107 q 299 89 263 89 l 358 89 l 364 79 l 354 -8 q 151 0 240 0 l -17 -4 l -6 89 q 48 115 28 94 q 85 181 68 135 l 332 885 l 553 907 l 568 900 q 767 183 693 418 q 806 113 782 133 q 875 88 829 92 l 881 78 l 871 -4 q 781 0 826 -1 q 706 -101 726 -65 q 685 -168 685 -137 q 704 -217 685 -199 q 750 -236 724 -236 q 854 -203 799 -236 l 879 -243 q 738 -335 807 -311 m 408 397 q 511 403 453 397 l 431 708 l 411 708 l 311 397 l 408 397 z "},"ą":{"ha":756,"x_min":1,"x_max":765,"o":"m 626 -335 q 508 -302 551 -335 q 464 -218 464 -269 q 495 -118 464 -167 q 593 0 526 -69 l 397 -8 l 390 0 l 396 75 q 467 86 453 81 q 482 106 482 92 q 457 213 482 124 q 383 214 428 214 q 253 208 338 214 q 222 106 222 122 q 232 84 222 90 q 271 78 242 78 l 314 78 l 322 68 l 313 -6 q 143 0 215 0 l 1 -3 l 10 76 q 79 144 56 85 l 278 690 l 490 708 l 504 700 q 663 150 608 311 q 692 96 674 113 q 747 76 711 79 l 751 67 l 743 -3 q 674 0 710 -1 q 597 -102 618 -65 q 575 -170 575 -139 q 594 -220 575 -201 q 639 -239 613 -239 q 742 -206 686 -239 l 765 -244 q 626 -335 694 -312 m 357 315 q 436 318 389 315 l 376 542 l 358 542 l 283 315 l 357 315 z "},"Ć":{"ha":857,"x_min":39,"x_max":799,"o":"m 757 39 q 442 -17 624 -17 q 149 101 260 -17 q 39 431 39 218 q 171 776 39 644 q 525 908 303 908 q 790 874 635 908 l 799 856 q 763 593 771 740 l 625 583 q 628 657 628 621 q 591 745 628 717 q 476 774 554 774 q 256 469 256 774 q 317 207 256 300 q 486 114 378 114 q 603 159 561 114 q 661 306 644 204 l 799 315 q 771 56 775 171 l 757 39 m 725 1076 l 717 1058 q 399 968 557 1018 l 381 981 l 363 1046 l 672 1190 l 689 1183 l 725 1076 z "},"ć":{"ha":728,"x_min":40,"x_max":675,"o":"m 638 31 q 373 -12 524 -12 q 131 79 222 -12 q 40 338 40 171 q 148 607 40 506 q 442 708 256 708 q 667 681 528 708 l 675 665 q 643 451 651 572 l 515 444 q 517 511 517 472 q 403 590 517 590 q 240 368 240 590 q 285 173 240 240 q 411 106 329 106 q 499 139 468 106 q 542 247 531 172 l 671 256 q 650 44 653 139 l 638 31 m 633 879 l 625 861 q 307 771 465 821 l 289 783 l 271 849 l 581 993 l 597 986 l 633 879 z "},"Ĉ":{"ha":857,"x_min":39,"x_max":799,"o":"m 757 39 q 442 -17 624 -17 q 149 101 260 -17 q 39 431 39 218 q 171 776 39 644 q 525 908 303 908 q 790 874 635 908 l 799 856 q 763 593 771 740 l 625 583 q 628 657 628 621 q 591 745 628 717 q 476 774 554 774 q 256 469 256 774 q 317 207 256 300 q 486 114 378 114 q 603 159 561 114 q 661 306 644 204 l 799 315 q 771 56 775 171 l 757 39 m 289 985 l 249 1042 q 460 1256 338 1125 l 488 1256 q 697 1042 599 1136 l 657 985 l 636 979 q 474 1094 608 1001 q 311 979 375 1031 l 289 985 z "},"ĉ":{"ha":728,"x_min":40,"x_max":675,"o":"m 638 31 q 373 -12 524 -12 q 131 79 222 -12 q 40 338 40 171 q 148 607 40 506 q 442 708 256 708 q 667 681 528 708 l 675 665 q 643 451 651 572 l 515 444 q 517 511 517 472 q 403 590 517 590 q 240 368 240 590 q 285 173 240 240 q 411 106 329 106 q 499 139 468 106 q 542 247 531 172 l 671 256 q 650 44 653 139 l 638 31 m 218 788 l 178 844 q 389 1058 267 928 l 417 1058 q 626 844 528 939 l 586 788 l 565 782 q 403 897 538 804 q 240 782 304 833 l 218 788 z "},"Ċ":{"ha":857,"x_min":39,"x_max":799,"o":"m 757 39 q 442 -17 624 -17 q 149 101 260 -17 q 39 431 39 218 q 171 776 39 644 q 525 908 303 908 q 790 874 635 908 l 799 856 q 763 593 771 740 l 625 583 q 628 657 628 621 q 591 745 628 717 q 476 774 554 774 q 256 469 256 774 q 317 207 256 300 q 486 114 378 114 q 603 159 561 114 q 661 306 644 204 l 799 315 q 771 56 775 171 l 757 39 m 589 1085 q 589 1061 589 1085 q 558 1006 589 1038 q 479 975 528 975 q 406 1003 431 975 q 381 1077 381 1031 q 411 1155 381 1124 q 490 1186 442 1186 q 563 1159 538 1186 q 589 1085 589 1132 z "},"ċ":{"ha":728,"x_min":40,"x_max":675,"o":"m 638 31 q 373 -12 524 -12 q 131 79 222 -12 q 40 338 40 171 q 148 607 40 506 q 442 708 256 708 q 667 681 528 708 l 675 665 q 643 451 651 572 l 515 444 q 517 511 517 472 q 403 590 517 590 q 240 368 240 590 q 285 173 240 240 q 411 106 329 106 q 499 139 468 106 q 542 247 531 172 l 671 256 q 650 44 653 139 l 638 31 m 513 894 q 513 871 513 894 q 482 816 513 847 q 403 785 451 785 q 329 813 354 785 q 304 887 304 840 q 335 965 304 933 q 413 996 365 996 q 487 969 461 996 q 513 894 513 942 z "},"Č":{"ha":857,"x_min":39,"x_max":799,"o":"m 757 39 q 442 -17 624 -17 q 149 101 260 -17 q 39 431 39 218 q 171 776 39 644 q 525 908 303 908 q 790 874 635 908 l 799 856 q 763 593 771 740 l 625 583 q 628 657 628 621 q 591 745 628 717 q 476 774 554 774 q 256 469 256 774 q 317 207 256 300 q 486 114 378 114 q 603 159 561 114 q 661 306 644 204 l 799 315 q 771 56 775 171 l 757 39 m 679 1196 l 714 1139 q 496 967 613 1065 l 468 967 q 250 1139 353 1064 l 283 1196 l 306 1201 q 482 1121 375 1167 q 657 1201 549 1149 l 679 1196 z "},"č":{"ha":728,"x_min":40,"x_max":675,"o":"m 638 31 q 373 -12 524 -12 q 131 79 222 -12 q 40 338 40 171 q 148 607 40 506 q 442 708 256 708 q 667 681 528 708 l 675 665 q 643 451 651 572 l 515 444 q 517 511 517 472 q 403 590 517 590 q 240 368 240 590 q 285 173 240 240 q 411 106 329 106 q 499 139 468 106 q 542 247 531 172 l 671 256 q 650 44 653 139 l 638 31 m 604 999 l 639 942 q 421 769 538 868 l 393 769 q 175 942 278 867 l 208 999 l 231 1004 q 407 924 300 969 q 582 1004 474 951 l 604 999 z "},"Ď":{"ha":963,"x_min":53,"x_max":924,"o":"m 442 -17 q 256 0 311 0 q 53 -14 167 0 l 63 81 q 142 116 122 92 q 163 199 163 140 l 164 725 q 155 785 164 769 q 119 800 146 800 l 74 797 l 65 810 l 76 896 q 254 892 200 892 l 475 899 q 805 788 686 899 q 924 470 924 678 q 789 123 924 263 q 442 -17 654 -17 m 401 778 q 371 771 379 778 q 361 744 363 764 q 343 203 343 365 q 366 124 343 143 q 458 104 389 104 q 706 439 706 104 q 631 697 706 615 q 401 778 557 778 m 668 1196 l 703 1139 q 485 967 601 1065 l 457 967 q 239 1139 342 1064 l 272 1196 l 294 1201 q 471 1121 364 1167 q 646 1201 538 1149 l 668 1196 z "},"ď":{"ha":815,"x_min":51,"x_max":775,"o":"m 139 163 l 139 558 q 132 605 139 593 q 106 617 125 617 l 68 614 l 60 625 l 69 699 q 222 696 178 696 l 406 701 q 678 617 582 701 q 775 367 775 532 q 665 95 775 203 q 376 -12 554 -12 q 201 0 269 0 l 51 -11 l 58 72 q 122 99 106 79 q 139 163 139 118 m 350 594 q 327 589 333 594 q 319 567 321 583 q 306 164 306 306 q 322 108 306 122 q 388 93 339 93 q 575 342 575 93 q 522 535 575 476 q 350 594 468 594 m 600 999 l 635 942 q 417 769 533 868 l 389 769 q 171 942 274 867 l 204 999 l 226 1004 q 403 924 296 969 q 578 1004 469 951 l 600 999 z "},"Đ":{"ha":985,"x_min":11,"x_max":944,"o":"m 463 -17 q 275 0 331 0 q 74 -14 188 0 l 83 81 q 165 119 146 92 q 183 225 183 146 l 183 397 l 22 397 l 11 407 l 25 490 l 183 490 l 183 725 q 175 785 183 769 q 140 800 167 800 l 94 797 l 86 810 l 97 896 q 275 892 219 892 l 494 899 q 824 788 704 899 q 944 469 944 676 q 809 123 944 263 q 463 -17 674 -17 m 479 104 q 725 439 725 104 q 651 697 725 615 q 421 778 576 778 q 390 771 399 778 q 381 744 382 764 l 369 490 l 543 493 l 551 481 l 543 397 l 367 397 l 364 203 q 387 124 364 143 q 479 104 410 104 z "},"đ":{"ha":836,"x_min":22,"x_max":794,"o":"m 158 178 l 158 303 l 32 303 l 22 311 l 35 385 l 158 385 l 158 558 q 151 605 158 593 q 124 617 144 617 l 88 614 l 79 625 l 89 699 q 242 696 196 696 l 425 701 q 697 616 600 701 q 794 367 794 531 q 684 95 794 203 q 396 -12 574 -12 q 221 0 288 0 l 69 -11 l 78 72 q 143 100 128 79 q 158 178 158 121 m 407 93 q 593 342 593 93 q 540 535 593 476 q 369 594 488 594 q 345 588 351 594 q 339 567 339 582 l 329 386 l 458 388 l 467 378 l 458 303 l 326 303 l 325 164 q 342 107 325 121 q 407 93 358 93 z "},"Ē":{"ha":829,"x_min":50,"x_max":776,"o":"m 351 514 l 481 513 l 642 524 l 653 511 l 633 392 q 470 396 522 396 q 347 388 418 396 q 343 187 343 236 q 358 124 343 138 q 436 110 372 110 q 536 115 500 110 q 597 138 572 119 q 631 184 622 156 q 649 268 640 213 l 767 278 l 776 264 q 738 6 751 139 l 725 -10 q 350 0 464 0 q 50 -14 181 0 l 61 81 q 140 115 118 89 q 161 200 161 140 l 163 726 q 153 787 163 772 q 117 801 144 801 l 75 799 l 65 811 l 76 896 q 429 892 229 892 q 756 908 629 892 l 767 893 q 735 640 742 769 l 607 632 q 610 688 610 668 q 581 760 610 744 q 469 775 551 775 q 374 767 386 775 q 361 729 363 760 l 351 514 m 643 1111 l 654 1092 l 638 985 l 249 982 l 233 999 l 253 1104 q 467 1103 385 1103 l 643 1111 z "},"ē":{"ha":711,"x_min":47,"x_max":661,"o":"m 314 406 l 417 404 l 547 414 l 558 401 l 542 299 q 422 301 451 301 q 308 296 392 301 q 307 191 307 263 q 318 108 307 119 q 401 97 329 97 q 501 118 472 97 q 543 218 531 139 l 651 226 l 661 214 q 631 6 640 114 l 617 -7 q 308 0 408 0 q 47 -11 164 0 l 57 71 q 119 97 103 76 q 136 165 136 117 l 138 560 q 131 606 138 594 q 103 618 124 618 l 69 617 l 60 626 l 69 699 q 372 696 204 696 q 644 708 540 696 l 654 696 q 628 493 635 594 l 510 485 q 513 528 513 513 q 489 582 513 571 q 402 593 465 593 q 330 588 339 593 q 321 560 321 582 l 314 406 m 581 914 l 592 894 l 575 788 l 186 785 l 171 801 l 190 907 q 404 906 322 906 l 581 914 z "},"Ĕ":{"ha":829,"x_min":50,"x_max":776,"o":"m 351 514 l 481 513 l 642 524 l 653 511 l 633 392 q 470 396 522 396 q 347 388 418 396 q 343 187 343 236 q 358 124 343 138 q 436 110 372 110 q 536 115 500 110 q 597 138 572 119 q 631 184 622 156 q 649 268 640 213 l 767 278 l 776 264 q 738 6 751 139 l 725 -10 q 350 0 464 0 q 50 -14 181 0 l 61 81 q 140 115 118 89 q 161 200 161 140 l 163 726 q 153 787 163 772 q 117 801 144 801 l 75 799 l 65 811 l 76 896 q 429 892 229 892 q 756 908 629 892 l 767 893 q 735 640 742 769 l 607 632 q 610 688 610 668 q 581 760 610 744 q 469 775 551 775 q 374 767 386 775 q 361 729 363 760 l 351 514 m 311 1222 q 454 1128 349 1128 q 597 1222 560 1128 l 621 1217 l 660 1169 q 588 1045 639 1094 q 454 996 536 996 q 321 1045 372 996 q 249 1169 269 1094 l 288 1217 l 311 1222 z "},"ĕ":{"ha":711,"x_min":47,"x_max":661,"o":"m 314 406 l 417 404 l 547 414 l 558 401 l 542 299 q 422 301 451 301 q 308 296 392 301 q 307 191 307 263 q 318 108 307 119 q 401 97 329 97 q 501 118 472 97 q 543 218 531 139 l 651 226 l 661 214 q 631 6 640 114 l 617 -7 q 308 0 408 0 q 47 -11 164 0 l 57 71 q 119 97 103 76 q 136 165 136 117 l 138 560 q 131 606 138 594 q 103 618 124 618 l 69 617 l 60 626 l 69 699 q 372 696 204 696 q 644 708 540 696 l 654 696 q 628 493 635 594 l 510 485 q 513 528 513 513 q 489 582 513 571 q 402 593 465 593 q 330 588 339 593 q 321 560 321 582 l 314 406 m 244 1018 q 388 924 282 924 q 531 1018 493 924 l 554 1013 l 593 965 q 521 841 572 890 q 388 792 469 792 q 254 841 306 792 q 182 965 203 890 l 221 1013 l 244 1018 z "},"Ė":{"ha":829,"x_min":50,"x_max":776,"o":"m 351 514 l 481 513 l 642 524 l 653 511 l 633 392 q 470 396 522 396 q 347 388 418 396 q 343 187 343 236 q 358 124 343 138 q 436 110 372 110 q 536 115 500 110 q 597 138 572 119 q 631 184 622 156 q 649 268 640 213 l 767 278 l 776 264 q 738 6 751 139 l 725 -10 q 350 0 464 0 q 50 -14 181 0 l 61 81 q 140 115 118 89 q 161 200 161 140 l 163 726 q 153 787 163 772 q 117 801 144 801 l 75 799 l 65 811 l 76 896 q 429 892 229 892 q 756 908 629 892 l 767 893 q 735 640 742 769 l 607 632 q 610 688 610 668 q 581 760 610 744 q 469 775 551 775 q 374 767 386 775 q 361 729 363 760 l 351 514 m 547 1085 q 547 1061 547 1085 q 517 1006 547 1038 q 438 975 486 975 q 364 1003 389 975 q 339 1077 339 1031 q 369 1155 339 1124 q 448 1186 400 1186 q 522 1159 496 1186 q 547 1085 547 1132 z "},"ė":{"ha":711,"x_min":47,"x_max":661,"o":"m 314 406 l 417 404 l 547 414 l 558 401 l 542 299 q 422 301 451 301 q 308 296 392 301 q 307 191 307 263 q 318 108 307 119 q 401 97 329 97 q 501 118 472 97 q 543 218 531 139 l 651 226 l 661 214 q 631 6 640 114 l 617 -7 q 308 0 408 0 q 47 -11 164 0 l 57 71 q 119 97 103 76 q 136 165 136 117 l 138 560 q 131 606 138 594 q 103 618 124 618 l 69 617 l 60 626 l 69 699 q 372 696 204 696 q 644 708 540 696 l 654 696 q 628 493 635 594 l 510 485 q 513 528 513 513 q 489 582 513 571 q 402 593 465 593 q 330 588 339 593 q 321 560 321 582 l 314 406 m 485 888 q 485 864 485 888 q 454 809 485 840 q 375 778 424 778 q 301 806 326 778 q 276 880 276 833 q 307 958 276 926 q 385 989 338 989 q 459 962 433 989 q 485 888 485 935 z "},"Ę":{"ha":829,"x_min":50,"x_max":776,"o":"m 351 514 l 481 513 l 642 524 l 653 511 l 633 392 q 470 396 522 396 q 347 388 418 396 q 343 187 343 236 q 358 124 343 138 q 436 110 372 110 q 536 115 500 110 q 597 138 572 119 q 631 184 622 156 q 649 268 640 213 l 767 278 l 776 264 q 738 6 751 139 l 725 -10 q 668 -7 703 -8 q 597 -103 617 -68 q 578 -168 578 -137 q 597 -217 578 -199 q 643 -236 617 -236 q 747 -203 692 -236 l 772 -243 q 631 -335 700 -311 q 510 -301 556 -335 q 465 -216 465 -267 q 494 -118 465 -165 q 588 -4 524 -71 q 344 0 454 0 q 50 -14 181 0 l 61 81 q 140 115 118 89 q 161 200 161 140 l 163 726 q 153 787 163 772 q 117 801 144 801 l 75 799 l 65 811 l 76 896 q 429 892 229 892 q 756 908 629 892 l 767 893 q 735 640 742 769 l 607 632 q 610 688 610 668 q 581 760 610 744 q 469 775 551 775 q 374 767 386 775 q 361 729 363 760 l 351 514 z "},"ę":{"ha":711,"x_min":47,"x_max":679,"o":"m 314 406 l 417 404 l 547 414 l 558 401 l 542 299 q 422 301 451 301 q 308 296 392 301 q 307 191 307 263 q 318 108 307 119 q 401 97 329 97 q 501 118 472 97 q 543 218 531 139 l 651 226 l 661 214 q 631 6 640 114 l 617 -7 q 576 -6 601 -6 q 504 -101 524 -67 q 485 -167 485 -136 q 504 -217 485 -199 q 550 -236 524 -236 q 654 -203 599 -236 l 679 -243 q 538 -335 607 -311 q 417 -301 463 -335 q 372 -208 372 -267 q 496 -3 372 -131 q 281 0 351 0 q 47 -11 164 0 l 57 71 q 119 97 103 76 q 136 165 136 117 l 138 560 q 131 606 138 594 q 103 618 124 618 l 69 617 l 60 626 l 69 699 q 372 696 204 696 q 644 708 540 696 l 654 696 q 628 493 635 594 l 510 485 q 513 528 513 513 q 489 582 513 571 q 402 593 465 593 q 330 588 339 593 q 321 560 321 582 l 314 406 z "},"Ě":{"ha":829,"x_min":50,"x_max":776,"o":"m 351 514 l 481 513 l 642 524 l 653 511 l 633 392 q 470 396 522 396 q 347 388 418 396 q 343 187 343 236 q 358 124 343 138 q 436 110 372 110 q 536 115 500 110 q 597 138 572 119 q 631 184 622 156 q 649 268 640 213 l 767 278 l 776 264 q 738 6 751 139 l 725 -10 q 350 0 464 0 q 50 -14 181 0 l 61 81 q 140 115 118 89 q 161 200 161 140 l 163 726 q 153 787 163 772 q 117 801 144 801 l 75 799 l 65 811 l 76 896 q 429 892 229 892 q 756 908 629 892 l 767 893 q 735 640 742 769 l 607 632 q 610 688 610 668 q 581 760 610 744 q 469 775 551 775 q 374 767 386 775 q 361 729 363 760 l 351 514 m 639 1196 l 674 1139 q 456 967 572 1065 l 428 967 q 210 1139 313 1064 l 243 1196 l 265 1201 q 442 1121 335 1167 q 617 1201 508 1149 l 639 1196 z "},"ě":{"ha":711,"x_min":47,"x_max":661,"o":"m 314 406 l 417 404 l 547 414 l 558 401 l 542 299 q 422 301 451 301 q 308 296 392 301 q 307 191 307 263 q 318 108 307 119 q 401 97 329 97 q 501 118 472 97 q 543 218 531 139 l 651 226 l 661 214 q 631 6 640 114 l 617 -7 q 308 0 408 0 q 47 -11 164 0 l 57 71 q 119 97 103 76 q 136 165 136 117 l 138 560 q 131 606 138 594 q 103 618 124 618 l 69 617 l 60 626 l 69 699 q 372 696 204 696 q 644 708 540 696 l 654 696 q 628 493 635 594 l 510 485 q 513 528 513 513 q 489 582 513 571 q 402 593 465 593 q 330 588 339 593 q 321 560 321 582 l 314 406 m 575 999 l 610 942 q 392 769 508 868 l 364 769 q 146 942 249 867 l 179 999 l 201 1004 q 378 924 271 969 q 553 1004 444 951 l 575 999 z "},"Ĝ":{"ha":908,"x_min":39,"x_max":840,"o":"m 496 457 l 689 454 q 831 461 831 454 l 840 407 q 794 340 804 383 q 783 196 783 297 q 793 57 783 94 l 781 39 q 632 -1 722 15 q 453 -17 542 -17 q 150 101 261 -17 q 39 433 39 218 q 171 778 39 649 q 533 908 303 908 q 808 874 649 908 l 818 856 q 782 600 790 744 l 644 592 q 649 676 649 626 q 615 749 649 725 q 500 774 581 774 q 315 699 375 774 q 254 461 254 624 q 315 206 254 299 q 488 114 376 114 q 557 123 524 114 q 621 150 590 132 l 621 279 q 609 333 621 319 q 560 346 597 346 l 489 346 l 481 357 l 496 457 m 299 985 l 258 1042 q 469 1256 347 1125 l 497 1256 q 707 1042 608 1136 l 667 985 l 646 979 q 483 1094 618 1001 q 321 979 385 1031 l 299 985 z "},"ĝ":{"ha":769,"x_min":40,"x_max":710,"o":"m 417 364 l 579 363 l 701 368 l 710 319 q 669 267 678 300 q 660 157 660 233 q 667 43 660 81 l 656 28 q 389 -12 554 -12 q 132 79 224 -12 q 40 340 40 171 q 149 609 40 510 q 450 708 257 708 q 679 681 540 708 l 688 665 q 657 461 663 576 l 529 453 q 532 517 532 479 q 507 572 532 554 q 422 590 482 590 q 283 537 328 590 q 239 361 239 483 q 284 172 239 239 q 414 106 329 106 q 511 128 469 106 l 511 218 q 501 258 511 249 q 464 268 492 268 l 411 268 l 403 279 l 417 364 m 226 788 l 186 844 q 397 1058 275 928 l 425 1058 q 635 844 536 939 l 594 788 l 574 782 q 411 897 546 804 q 249 782 313 833 l 226 788 z "},"Ğ":{"ha":908,"x_min":39,"x_max":840,"o":"m 496 457 l 689 454 q 831 461 831 454 l 840 407 q 794 340 804 383 q 783 196 783 297 q 793 57 783 94 l 781 39 q 632 -1 722 15 q 453 -17 542 -17 q 150 101 261 -17 q 39 433 39 218 q 171 778 39 649 q 533 908 303 908 q 808 874 649 908 l 818 856 q 782 600 790 744 l 644 592 q 649 676 649 626 q 615 749 649 725 q 500 774 581 774 q 315 699 375 774 q 254 461 254 624 q 315 206 254 299 q 488 114 376 114 q 557 123 524 114 q 621 150 590 132 l 621 279 q 609 333 621 319 q 560 346 597 346 l 489 346 l 481 357 l 496 457 m 349 1197 q 492 1114 386 1114 q 635 1197 597 1114 l 658 1192 l 697 1143 q 625 1028 676 1074 q 492 982 574 982 q 358 1028 410 982 q 286 1143 307 1074 l 325 1192 l 349 1197 z "},"ğ":{"ha":769,"x_min":40,"x_max":710,"o":"m 417 364 l 579 363 l 701 368 l 710 319 q 669 267 678 300 q 660 157 660 233 q 667 43 660 81 l 656 28 q 389 -12 554 -12 q 132 79 224 -12 q 40 340 40 171 q 149 609 40 510 q 450 708 257 708 q 679 681 540 708 l 688 665 q 657 461 663 576 l 529 453 q 532 517 532 479 q 507 572 532 554 q 422 590 482 590 q 283 537 328 590 q 239 361 239 483 q 284 172 239 239 q 414 106 329 106 q 511 128 469 106 l 511 218 q 501 258 511 249 q 464 268 492 268 l 411 268 l 403 279 l 417 364 m 271 994 q 414 911 308 911 q 557 994 519 911 l 581 989 l 619 940 q 547 825 599 871 q 414 779 496 779 q 281 825 332 779 q 208 940 229 871 l 247 989 l 271 994 z "},"Ġ":{"ha":908,"x_min":39,"x_max":840,"o":"m 496 457 l 689 454 q 831 461 831 454 l 840 407 q 794 340 804 383 q 783 196 783 297 q 793 57 783 94 l 781 39 q 632 -1 722 15 q 453 -17 542 -17 q 150 101 261 -17 q 39 433 39 218 q 171 778 39 649 q 533 908 303 908 q 808 874 649 908 l 818 856 q 782 600 790 744 l 644 592 q 649 676 649 626 q 615 749 649 725 q 500 774 581 774 q 315 699 375 774 q 254 461 254 624 q 315 206 254 299 q 488 114 376 114 q 557 123 524 114 q 621 150 590 132 l 621 279 q 609 333 621 319 q 560 346 597 346 l 489 346 l 481 357 l 496 457 m 599 1085 q 599 1061 599 1085 q 568 1006 599 1038 q 489 975 538 975 q 415 1003 440 975 q 390 1077 390 1031 q 421 1155 390 1124 q 499 1186 451 1186 q 573 1159 547 1186 q 599 1085 599 1132 z "},"ġ":{"ha":769,"x_min":40,"x_max":710,"o":"m 417 364 l 579 363 l 701 368 l 710 319 q 669 267 678 300 q 660 157 660 233 q 667 43 660 81 l 656 28 q 389 -12 554 -12 q 132 79 224 -12 q 40 340 40 171 q 149 609 40 510 q 450 708 257 708 q 679 681 540 708 l 688 665 q 657 461 663 576 l 529 453 q 532 517 532 479 q 507 572 532 554 q 422 590 482 590 q 283 537 328 590 q 239 361 239 483 q 284 172 239 239 q 414 106 329 106 q 511 128 469 106 l 511 218 q 501 258 511 249 q 464 268 492 268 l 411 268 l 403 279 l 417 364 m 521 888 q 521 864 521 888 q 490 809 521 840 q 411 778 460 778 q 338 806 363 778 q 313 880 313 833 q 343 958 313 926 q 422 989 374 989 q 495 962 469 989 q 521 888 521 935 z "},"Ģ":{"ha":908,"x_min":39,"x_max":840,"o":"m 496 457 l 689 454 q 831 461 831 454 l 840 407 q 794 340 804 383 q 783 196 783 297 q 793 57 783 94 l 781 39 q 632 -1 722 15 q 453 -17 542 -17 q 150 101 261 -17 q 39 433 39 218 q 171 778 39 649 q 533 908 303 908 q 808 874 649 908 l 818 856 q 782 600 790 744 l 644 592 q 649 676 649 626 q 615 749 649 725 q 500 774 581 774 q 315 699 375 774 q 254 461 254 624 q 315 206 254 299 q 488 114 376 114 q 557 123 524 114 q 621 150 590 132 l 621 279 q 609 333 621 319 q 560 346 597 346 l 489 346 l 481 357 l 496 457 m 367 -119 q 473 -71 428 -71 q 545 -103 518 -71 q 572 -198 572 -136 q 515 -326 572 -260 q 368 -442 457 -393 l 317 -400 l 317 -376 q 385 -308 358 -347 q 411 -235 411 -269 q 363 -139 411 -178 l 367 -119 z "},"ģ":{"ha":769,"x_min":40,"x_max":710,"o":"m 417 364 l 579 363 l 701 368 l 710 319 q 669 267 678 300 q 660 157 660 233 q 667 43 660 81 l 656 28 q 389 -12 554 -12 q 132 79 224 -12 q 40 340 40 171 q 149 609 40 510 q 450 708 257 708 q 679 681 540 708 l 688 665 q 657 461 663 576 l 529 453 q 532 517 532 479 q 507 572 532 554 q 422 590 482 590 q 283 537 328 590 q 239 361 239 483 q 284 172 239 239 q 414 106 329 106 q 511 128 469 106 l 511 218 q 501 258 511 249 q 464 268 492 268 l 411 268 l 403 279 l 417 364 m 304 -119 q 410 -71 365 -71 q 483 -103 456 -71 q 510 -198 510 -136 q 452 -326 510 -260 q 306 -442 394 -393 l 254 -400 l 254 -376 q 322 -308 296 -347 q 349 -235 349 -269 q 300 -139 349 -178 l 304 -119 z "},"Ĥ":{"ha":1038,"x_min":51,"x_max":989,"o":"m 874 185 q 886 111 874 131 q 932 92 899 92 l 982 96 l 989 85 l 976 -4 q 774 0 861 0 l 581 -3 l 592 89 q 671 116 650 90 q 692 217 692 142 l 692 393 q 542 394 592 394 l 347 381 l 344 185 q 355 109 344 128 q 397 90 365 90 l 447 94 l 454 85 l 442 -4 q 278 0 325 0 q 179 -3 232 0 q 51 -12 51 -7 l 61 78 q 142 113 122 90 q 161 194 161 136 l 163 729 q 153 787 163 772 q 113 801 143 801 l 69 800 l 63 811 l 74 893 q 239 892 183 892 l 449 901 l 442 808 q 375 783 389 800 q 358 710 361 765 l 350 511 l 528 508 q 692 518 614 508 l 692 729 q 682 787 692 772 q 642 801 672 801 l 599 800 l 592 811 l 603 893 q 781 892 721 892 l 985 901 l 976 810 q 909 788 925 803 q 890 733 893 774 q 874 185 874 414 m 335 1021 l 294 1078 q 506 1292 383 1161 l 533 1292 q 743 1078 644 1172 l 703 1021 l 682 1015 q 519 1131 654 1038 q 357 1015 421 1067 l 335 1021 z "},"ĥ":{"ha":878,"x_min":49,"x_max":833,"o":"m 740 151 q 750 94 740 110 q 788 79 760 79 l 826 82 l 833 72 l 822 -3 q 649 0 726 0 l 482 -1 l 492 76 q 554 97 538 78 q 571 171 571 117 l 571 300 q 463 301 500 301 l 308 290 l 307 151 q 315 92 307 107 q 350 78 324 78 l 388 81 l 394 72 l 385 -3 q 240 0 278 0 q 156 -2 201 0 q 81 -6 111 -4 q 49 -8 50 -7 l 57 69 q 122 96 106 78 q 138 160 138 114 l 138 561 q 129 607 138 596 q 97 618 121 618 l 64 617 l 56 628 l 65 697 q 206 696 158 696 l 392 703 l 385 622 q 332 604 343 617 q 318 551 321 592 l 311 406 l 446 403 q 571 410 522 403 l 572 561 q 564 607 572 596 q 531 618 556 618 l 496 617 l 489 628 l 499 697 q 654 696 499 696 l 831 703 l 824 624 q 769 607 782 618 q 754 564 756 596 q 740 151 740 379 m 254 824 l 214 881 q 425 1094 303 964 l 453 1094 q 663 881 564 975 l 622 824 l 601 818 q 439 933 574 840 q 276 818 340 869 l 254 824 z "},"Ħ":{"ha":1035,"x_min":26,"x_max":1010,"o":"m 872 185 q 885 111 872 131 q 931 92 897 92 l 981 96 l 988 85 l 975 -4 q 772 0 860 0 l 579 -3 l 590 89 q 669 116 649 90 q 690 217 690 142 l 690 393 q 540 394 590 394 l 346 381 l 343 185 q 353 109 343 128 q 396 90 364 90 l 446 94 l 453 85 l 440 -4 q 277 0 324 0 q 178 -3 231 0 q 50 -12 50 -7 l 60 78 q 140 113 121 90 q 160 194 160 136 l 161 614 l 40 614 l 26 628 l 38 694 q 161 693 90 693 l 161 729 q 151 787 161 772 q 111 801 142 801 l 68 800 l 61 811 l 72 893 q 238 892 182 892 l 447 901 l 440 808 q 374 783 388 800 q 356 693 361 768 l 690 693 l 690 729 q 681 787 690 772 q 640 801 671 801 l 597 800 l 590 811 l 601 893 q 779 892 719 892 l 983 901 l 975 810 q 908 788 924 803 q 889 733 892 774 l 886 697 l 990 700 l 1010 681 l 1003 617 l 883 617 q 872 185 872 383 m 690 615 l 353 615 l 349 511 l 526 508 q 690 518 613 508 l 690 615 z "},"ħ":{"ha":878,"x_min":28,"x_max":851,"o":"m 739 151 q 749 94 739 110 q 786 79 758 79 l 825 82 l 832 72 l 821 -3 q 647 0 725 0 l 481 -1 l 490 76 q 553 97 536 78 q 569 171 569 117 l 569 300 q 461 301 499 301 l 307 290 l 306 151 q 314 92 306 107 q 347 78 322 78 l 386 81 l 393 72 l 383 -3 q 238 0 276 0 q 155 -2 200 0 q 79 -6 110 -4 q 47 -8 49 -7 l 56 69 q 120 96 104 78 q 136 160 136 114 l 136 476 l 39 476 l 28 486 l 36 542 q 136 540 78 540 l 136 561 q 128 607 136 596 q 96 618 119 618 l 63 617 l 54 628 l 64 697 q 204 696 157 696 l 390 703 l 383 622 q 331 604 342 617 q 315 540 322 594 l 571 540 l 571 561 q 563 607 571 596 q 529 618 554 618 l 494 617 l 488 628 l 497 697 q 653 696 497 696 l 829 703 l 822 624 q 767 607 781 618 q 751 543 751 593 l 835 546 l 851 531 l 846 479 l 747 479 q 739 151 739 321 m 569 478 l 313 478 l 310 406 l 444 403 q 569 410 521 403 l 569 478 z "},"Ĩ":{"ha":507,"x_min":8,"x_max":508,"o":"m 67 893 l 261 892 l 458 901 l 450 808 q 381 787 397 801 q 361 733 364 772 q 344 185 344 446 q 355 109 344 128 q 397 90 365 90 l 457 94 l 464 85 l 451 -4 q 258 0 307 0 q 50 -12 163 0 l 60 78 q 141 114 121 90 q 161 194 161 138 l 163 729 q 153 787 163 772 q 113 801 143 801 l 64 800 l 57 811 l 67 893 m 140 1203 q 247 1180 165 1203 q 346 1157 329 1157 q 385 1176 363 1157 q 439 1235 408 1196 l 454 1235 l 508 1183 l 508 1169 l 400 1028 l 376 1022 q 271 1046 353 1022 q 172 1069 189 1069 q 131 1050 154 1069 q 79 992 108 1031 l 64 992 l 8 1042 l 8 1057 l 118 1197 l 140 1203 z "},"ĩ":{"ha":444,"x_min":-25,"x_max":475,"o":"m 61 697 l 228 696 l 399 703 l 392 622 q 335 606 349 617 q 319 564 322 596 q 307 151 307 346 q 315 92 307 107 q 350 78 324 78 l 394 81 l 401 72 l 392 -3 q 215 0 267 0 l 49 -8 l 57 69 q 122 97 106 79 q 138 160 138 114 l 138 561 q 129 607 138 596 q 97 618 121 618 l 60 617 l 53 628 l 61 697 m 107 1006 q 214 983 132 1006 q 313 960 296 960 q 352 979 329 960 q 406 1038 375 999 l 421 1038 l 475 986 l 475 972 l 367 831 l 343 825 q 238 849 319 825 q 138 872 156 872 q 98 853 121 872 q 46 794 75 833 l 31 794 l -25 844 l -25 860 l 85 1000 l 107 1006 z "},"Ī":{"ha":507,"x_min":50,"x_max":471,"o":"m 67 893 l 261 892 l 458 901 l 450 808 q 381 787 397 801 q 361 733 364 772 q 344 185 344 446 q 355 109 344 128 q 397 90 365 90 l 457 94 l 464 85 l 451 -4 q 258 0 307 0 q 50 -12 163 0 l 60 78 q 141 114 121 90 q 161 194 161 138 l 163 729 q 153 787 163 772 q 113 801 143 801 l 64 800 l 57 811 l 67 893 m 460 1111 l 471 1092 l 454 985 l 65 982 l 50 999 l 69 1104 q 283 1103 201 1103 l 460 1111 z "},"ī":{"ha":444,"x_min":17,"x_max":438,"o":"m 61 697 l 228 696 l 399 703 l 392 622 q 335 606 349 617 q 319 564 322 596 q 307 151 307 346 q 315 92 307 107 q 350 78 324 78 l 394 81 l 401 72 l 392 -3 q 215 0 267 0 l 49 -8 l 57 69 q 122 97 106 79 q 138 160 138 114 l 138 561 q 129 607 138 596 q 97 618 121 618 l 60 617 l 53 628 l 61 697 m 426 914 l 438 894 l 421 788 l 32 785 l 17 801 l 36 907 q 250 906 168 906 l 426 914 z "},"Ĭ":{"ha":507,"x_min":50,"x_max":467,"o":"m 67 893 l 261 892 l 458 901 l 450 808 q 381 787 397 801 q 361 733 364 772 q 344 185 344 446 q 355 109 344 128 q 397 90 365 90 l 457 94 l 464 85 l 451 -4 q 258 0 307 0 q 50 -12 163 0 l 60 78 q 141 114 121 90 q 161 194 161 138 l 163 729 q 153 787 163 772 q 113 801 143 801 l 64 800 l 57 811 l 67 893 m 118 1222 q 261 1128 156 1128 q 404 1222 367 1128 l 428 1217 l 467 1169 q 394 1045 446 1094 q 261 996 343 996 q 128 1045 179 996 q 56 1169 76 1094 l 94 1217 l 118 1222 z "},"ĭ":{"ha":444,"x_min":22,"x_max":433,"o":"m 61 697 l 228 696 l 399 703 l 392 622 q 335 606 349 617 q 319 564 322 596 q 307 151 307 346 q 315 92 307 107 q 350 78 324 78 l 394 81 l 401 72 l 392 -3 q 215 0 267 0 l 49 -8 l 57 69 q 122 97 106 79 q 138 160 138 114 l 138 561 q 129 607 138 596 q 97 618 121 618 l 60 617 l 53 628 l 61 697 m 85 1032 q 228 938 122 938 q 371 1032 333 938 l 394 1026 l 433 979 q 361 855 413 904 q 228 806 310 806 q 94 855 146 806 q 22 979 43 904 l 61 1026 l 85 1032 z "},"Į":{"ha":507,"x_min":50,"x_max":479,"o":"m 67 893 l 261 892 l 458 901 l 450 808 q 381 787 397 801 q 361 733 364 772 q 344 185 344 446 q 355 109 344 128 q 397 90 365 90 l 457 94 l 464 85 l 451 -4 q 379 -1 418 -3 q 305 -101 325 -65 q 285 -168 285 -137 q 304 -217 285 -199 q 350 -236 324 -236 q 454 -203 399 -236 l 479 -243 q 338 -335 407 -311 q 217 -301 263 -335 q 172 -215 172 -267 q 203 -116 172 -164 q 299 0 233 -68 l 244 0 q 50 -12 163 0 l 60 78 q 141 114 121 90 q 161 194 161 138 l 163 729 q 153 787 163 772 q 113 801 143 801 l 64 800 l 57 811 l 67 893 z "},"į":{"ha":444,"x_min":49,"x_max":432,"o":"m 61 697 l 228 696 l 399 703 l 392 622 q 335 606 349 617 q 319 564 322 596 q 307 151 307 346 q 315 92 307 107 q 350 78 324 78 l 394 81 l 401 72 l 392 -3 q 333 -1 364 -1 q 258 -101 279 -65 q 238 -168 238 -137 q 257 -217 238 -199 q 303 -236 276 -236 q 407 -203 351 -236 l 432 -243 q 290 -335 360 -311 q 170 -301 215 -335 q 125 -215 125 -267 q 156 -116 125 -164 q 251 0 186 -68 l 215 0 l 49 -8 l 57 69 q 122 97 106 79 q 138 160 138 114 l 138 561 q 129 607 138 596 q 97 618 121 618 l 60 617 l 53 628 l 61 697 z "},"İ":{"ha":507,"x_min":50,"x_max":464,"o":"m 67 893 l 261 892 l 458 901 l 450 808 q 381 787 397 801 q 361 733 364 772 q 344 185 344 446 q 355 109 344 128 q 397 90 365 90 l 457 94 l 464 85 l 451 -4 q 258 0 307 0 q 50 -12 163 0 l 60 78 q 141 114 121 90 q 161 194 161 138 l 163 729 q 153 787 163 772 q 113 801 143 801 l 64 800 l 57 811 l 67 893 m 364 1085 q 364 1061 364 1085 q 333 1006 364 1038 q 254 975 303 975 q 181 1003 206 975 q 156 1077 156 1031 q 186 1155 156 1124 q 265 1186 217 1186 q 338 1159 313 1186 q 364 1085 364 1132 z "},"ı":{"ha":444,"x_min":49,"x_max":401,"o":"m 61 697 l 228 696 l 399 703 l 392 622 q 335 606 349 617 q 319 564 322 596 q 307 151 307 346 q 315 92 307 107 q 350 78 324 78 l 394 81 l 401 72 l 392 -3 q 215 0 267 0 l 49 -8 l 57 69 q 122 97 106 79 q 138 160 138 114 l 138 561 q 129 607 138 596 q 97 618 121 618 l 60 617 l 53 628 l 61 697 z "},"Ĳ":{"ha":969,"x_min":50,"x_max":935,"o":"m 67 893 l 261 892 l 458 901 l 450 808 q 381 787 397 801 q 361 733 364 772 q 344 185 344 446 q 355 109 344 128 q 397 90 365 90 l 457 94 l 464 85 l 451 -4 q 258 0 307 0 q 50 -12 163 0 l 60 78 q 141 114 121 90 q 161 194 161 138 l 163 729 q 153 787 163 772 q 113 801 143 801 l 64 800 l 57 811 l 67 893 m 656 171 l 656 729 q 647 788 656 774 q 607 801 638 801 l 550 797 l 542 808 l 553 892 l 725 892 l 935 903 l 926 808 q 869 787 882 800 q 854 733 857 774 q 838 140 838 431 q 770 -82 836 3 q 560 -214 704 -167 l 521 -157 l 524 -142 q 629 -22 603 -85 q 656 171 656 42 z "},"ĳ":{"ha":828,"x_min":49,"x_max":842,"o":"m 61 697 l 228 696 l 399 703 l 392 622 q 335 606 349 617 q 319 564 322 596 q 307 151 307 346 q 315 92 307 107 q 350 78 324 78 l 394 81 l 401 72 l 392 -3 q 215 0 267 0 l 49 -8 l 57 69 q 122 97 106 79 q 138 160 138 114 l 138 561 q 129 607 138 596 q 97 618 121 618 l 60 617 l 53 628 l 61 697 m 593 136 l 593 561 q 585 607 593 596 q 554 618 578 618 l 508 615 l 501 626 l 510 696 l 657 696 l 842 704 l 835 622 q 788 606 799 617 q 775 564 778 596 q 761 104 761 321 q 703 -67 761 -1 q 521 -169 646 -133 l 486 -124 l 488 -110 q 572 -14 551 -62 q 593 136 593 35 z "},"Ĵ":{"ha":463,"x_min":14,"x_max":465,"o":"m 149 171 l 149 729 q 140 788 149 774 q 100 801 131 801 l 43 797 l 35 808 l 46 892 l 218 892 l 428 903 l 419 808 q 363 787 375 800 q 347 733 350 774 q 331 140 331 431 q 263 -82 329 3 q 53 -214 197 -167 l 14 -157 l 17 -142 q 122 -22 96 -85 q 149 171 149 42 m 57 985 l 17 1042 q 228 1256 106 1125 l 256 1256 q 465 1042 367 1136 l 425 985 l 404 979 q 242 1094 376 1001 q 79 979 143 1031 l 57 985 z "},"ĵ":{"ha":408,"x_min":-14,"x_max":435,"o":"m 126 136 l 128 561 q 120 607 128 596 q 89 618 113 618 l 43 615 l 35 626 l 44 696 l 190 696 l 375 704 l 368 622 q 322 606 332 617 q 310 564 313 596 q 296 104 296 321 q 237 -68 294 -3 q 54 -169 179 -133 l 19 -124 l 22 -110 q 106 -14 85 -62 q 126 136 126 35 m 26 788 l -14 844 q 197 1058 75 928 l 225 1058 q 435 844 336 939 l 394 788 l 374 782 q 211 897 346 804 q 49 782 113 833 l 26 788 z "},"Ķ":{"ha":915,"x_min":51,"x_max":908,"o":"m 357 728 q 344 151 344 178 q 354 108 344 125 q 397 90 364 90 l 451 94 l 457 85 l 444 -4 q 244 0 304 0 l 51 -4 l 64 85 q 142 115 124 94 q 161 194 161 136 l 163 729 q 153 787 163 772 q 113 801 143 801 l 69 800 l 63 811 l 74 894 q 261 892 221 892 l 453 901 l 444 808 q 376 782 393 797 q 357 728 358 767 m 615 760 q 542 803 615 799 l 538 813 l 549 899 q 722 892 665 892 l 885 897 l 894 882 l 883 803 q 801 751 840 785 q 701 644 761 717 l 558 483 l 742 203 q 819 113 783 140 q 900 82 854 85 l 908 69 l 897 -4 q 735 -21 760 -21 q 581 96 653 -21 l 371 439 l 375 469 l 579 692 q 615 760 615 728 m 383 -119 q 490 -71 444 -71 q 562 -103 535 -71 q 589 -198 589 -136 q 531 -326 589 -260 q 385 -442 474 -393 l 333 -400 l 333 -376 q 401 -308 375 -347 q 428 -235 428 -269 q 379 -139 428 -178 l 383 -119 z "},"ķ":{"ha":789,"x_min":49,"x_max":774,"o":"m 138 160 l 138 561 q 129 607 138 596 q 97 618 121 618 l 64 617 l 56 628 l 65 697 q 228 696 197 696 l 394 703 l 389 622 q 332 602 346 614 q 317 561 318 590 q 307 124 307 143 q 315 92 307 106 q 350 78 324 78 l 392 81 l 397 72 l 388 -3 q 215 0 265 0 l 49 -3 l 58 72 q 122 97 107 81 q 138 160 138 113 m 517 585 q 460 618 517 617 l 456 628 l 465 700 q 613 696 565 696 l 756 700 l 764 688 l 754 619 q 600 485 690 592 l 499 379 l 639 168 q 699 98 672 119 q 764 72 726 76 l 774 60 l 764 -4 q 619 -17 642 -17 q 492 74 549 -17 l 326 342 l 331 368 l 489 533 q 517 585 517 558 m 325 -119 q 431 -71 386 -71 q 503 -103 476 -71 q 531 -198 531 -136 q 473 -326 531 -260 q 326 -442 415 -393 l 275 -400 l 275 -376 q 343 -308 317 -347 q 369 -235 369 -269 q 321 -139 369 -178 l 325 -119 z "},"ĸ":{"ha":789,"x_min":49,"x_max":774,"o":"m 138 160 l 138 561 q 129 607 138 596 q 97 618 121 618 l 64 617 l 56 628 l 65 697 q 228 696 197 696 l 394 703 l 389 622 q 332 602 346 614 q 317 561 318 590 q 307 124 307 143 q 315 92 307 106 q 350 78 324 78 l 392 81 l 397 72 l 388 -3 q 215 0 265 0 l 49 -3 l 58 72 q 122 97 107 81 q 138 160 138 113 m 517 585 q 460 618 517 617 l 456 628 l 465 700 q 613 696 565 696 l 756 700 l 764 688 l 754 619 q 600 485 690 592 l 499 379 l 639 168 q 699 98 672 119 q 764 72 726 76 l 774 60 l 764 -4 q 619 -17 642 -17 q 492 74 549 -17 l 326 342 l 331 368 l 489 533 q 517 585 517 558 z "},"Ĺ":{"ha":738,"x_min":58,"x_max":736,"o":"m 72 893 l 261 892 l 476 901 l 465 803 q 380 776 397 794 q 360 701 363 758 q 344 193 344 494 q 360 125 344 140 q 431 110 376 110 q 562 148 529 110 q 608 321 594 186 l 726 333 l 736 319 q 699 4 713 168 l 686 -11 q 350 0 460 0 q 58 -14 186 0 l 68 81 q 141 115 121 89 q 161 200 161 140 l 161 729 q 151 787 161 772 q 111 801 142 801 l 69 800 l 63 811 l 72 893 m 506 1076 l 497 1058 q 179 968 338 1018 l 161 981 l 143 1046 l 453 1190 l 469 1183 l 506 1076 z "},"ĺ":{"ha":640,"x_min":51,"x_max":628,"o":"m 64 697 l 228 696 l 419 703 l 410 617 q 338 598 353 611 q 319 546 322 585 q 306 157 306 361 q 319 109 306 121 q 371 97 332 97 q 472 128 446 97 q 510 267 497 160 l 618 276 l 628 264 q 599 6 610 140 l 585 -8 q 307 0 401 0 q 51 -11 165 0 l 61 71 q 120 97 104 76 q 136 165 136 117 l 138 561 q 129 607 138 596 q 96 618 121 618 l 64 617 l 56 628 l 64 697 m 457 879 l 449 861 q 131 771 289 821 l 113 783 l 94 849 l 404 993 l 421 986 l 457 879 z "},"Ļ":{"ha":738,"x_min":58,"x_max":736,"o":"m 72 893 l 261 892 l 476 901 l 465 803 q 380 776 397 794 q 360 701 363 758 q 344 193 344 494 q 360 125 344 140 q 431 110 376 110 q 562 148 529 110 q 608 321 594 186 l 726 333 l 736 319 q 699 4 713 168 l 686 -11 q 350 0 460 0 q 58 -14 186 0 l 68 81 q 141 115 121 89 q 161 200 161 140 l 161 729 q 151 787 161 772 q 111 801 142 801 l 69 800 l 63 811 l 72 893 m 306 -119 q 412 -71 367 -71 q 484 -103 457 -71 q 511 -198 511 -136 q 453 -326 511 -260 q 307 -442 396 -393 l 256 -400 l 256 -376 q 324 -308 297 -347 q 350 -235 350 -269 q 301 -139 350 -178 l 306 -119 z "},"ļ":{"ha":640,"x_min":51,"x_max":628,"o":"m 64 697 l 228 696 l 419 703 l 410 617 q 338 598 353 611 q 319 546 322 585 q 306 157 306 361 q 319 109 306 121 q 371 97 332 97 q 472 128 446 97 q 510 267 497 160 l 618 276 l 628 264 q 599 6 610 140 l 585 -8 q 307 0 401 0 q 51 -11 165 0 l 61 71 q 120 97 104 76 q 136 165 136 117 l 138 561 q 129 607 138 596 q 96 618 121 618 l 64 617 l 56 628 l 64 697 m 251 -119 q 358 -71 313 -71 q 430 -103 403 -71 q 457 -198 457 -136 q 399 -326 457 -260 q 253 -442 342 -393 l 201 -400 l 201 -376 q 269 -308 243 -347 q 296 -235 296 -269 q 247 -139 296 -178 l 251 -119 z "},"Ľ":{"ha":746,"x_min":58,"x_max":736,"o":"m 594 553 q 594 614 594 576 q 583 869 594 724 l 724 889 l 735 875 q 681 574 714 722 l 614 547 l 594 553 m 72 893 l 261 892 l 476 901 l 465 803 q 380 776 397 794 q 360 701 363 758 q 344 193 344 494 q 360 125 344 140 q 431 110 376 110 q 562 148 529 110 q 608 321 594 186 l 726 333 l 736 319 q 699 4 713 168 l 686 -11 q 350 0 460 0 q 58 -14 186 0 l 68 81 q 141 115 121 89 q 161 200 161 140 l 161 729 q 151 787 161 772 q 111 801 142 801 l 69 800 l 63 811 l 72 893 z "},"ľ":{"ha":671,"x_min":51,"x_max":632,"o":"m 506 429 q 506 481 506 451 q 497 679 506 568 l 622 694 l 632 683 q 586 447 614 564 l 524 425 l 506 429 m 64 697 l 228 696 l 419 703 l 410 617 q 338 598 353 611 q 319 546 322 585 q 306 157 306 361 q 319 109 306 121 q 371 97 332 97 q 472 128 446 97 q 510 267 497 160 l 618 276 l 628 264 q 599 6 610 140 l 585 -8 q 307 0 401 0 q 51 -11 165 0 l 61 71 q 120 97 104 76 q 136 165 136 117 l 138 561 q 129 607 138 596 q 96 618 121 618 l 64 617 l 56 628 l 64 697 z "},"Ŀ":{"ha":769,"x_min":58,"x_max":742,"o":"m 72 893 l 261 892 l 476 901 l 465 803 q 380 776 397 794 q 360 701 363 758 q 344 193 344 494 q 360 125 344 140 q 431 110 376 110 q 562 148 529 110 q 608 321 594 186 l 726 333 l 736 319 q 699 4 713 168 l 686 -11 q 350 0 460 0 q 58 -14 186 0 l 68 81 q 141 115 121 89 q 161 200 161 140 l 161 729 q 151 787 161 772 q 111 801 142 801 l 69 800 l 63 811 l 72 893 m 711 560 q 696 544 711 560 q 629 528 681 528 q 551 556 578 528 q 525 634 525 585 q 556 715 525 683 q 636 747 586 747 q 714 718 686 747 q 742 640 742 689 q 711 560 742 592 z "},"ŀ":{"ha":717,"x_min":51,"x_max":664,"o":"m 64 697 l 228 696 l 419 703 l 410 617 q 338 598 353 611 q 319 546 322 585 q 306 157 306 361 q 319 109 306 121 q 371 97 332 97 q 472 128 446 97 q 510 267 497 160 l 618 276 l 628 264 q 599 6 610 140 l 585 -8 q 307 0 401 0 q 51 -11 165 0 l 61 71 q 120 97 104 76 q 136 165 136 117 l 138 561 q 129 607 138 596 q 96 618 121 618 l 64 617 l 56 628 l 64 697 m 635 413 q 620 398 635 413 q 557 383 606 383 q 483 410 508 383 q 457 485 457 438 q 486 562 457 532 q 563 592 515 592 q 638 565 611 592 q 664 490 664 538 q 635 413 664 443 z "},"Ł":{"ha":786,"x_min":54,"x_max":753,"o":"m 89 893 l 278 892 l 493 901 l 482 803 q 397 776 414 794 q 374 694 379 758 q 368 551 369 631 l 553 644 l 564 639 l 588 554 l 364 442 q 361 193 361 358 q 377 125 361 140 q 447 110 393 110 q 578 148 546 110 q 625 321 611 186 l 743 333 l 753 319 q 715 4 729 168 l 703 -11 q 367 0 476 0 q 75 -14 203 0 l 85 81 q 158 115 138 89 q 178 200 178 140 l 178 369 l 92 326 l 78 329 l 54 415 l 178 476 l 178 729 q 168 787 178 772 q 128 801 158 801 l 86 800 l 79 811 l 89 893 z "},"ł":{"ha":661,"x_min":60,"x_max":651,"o":"m 89 697 l 251 696 l 444 703 l 435 617 q 363 598 378 611 q 343 533 347 585 q 338 440 339 482 l 476 506 l 486 501 l 510 424 l 333 340 q 331 157 331 282 q 343 109 331 121 q 394 97 356 97 q 497 128 471 97 q 533 267 522 160 l 643 276 l 651 264 q 622 6 633 140 l 610 -8 q 332 0 426 0 q 76 -11 190 0 l 86 71 q 145 97 129 76 q 161 165 161 117 l 161 278 l 94 246 l 83 249 l 60 326 l 161 375 l 163 561 q 154 607 163 596 q 121 618 146 618 l 89 617 l 81 628 l 89 697 z "},"Ń":{"ha":1013,"x_min":47,"x_max":988,"o":"m 688 801 l 640 800 l 635 811 l 644 897 q 824 892 763 892 l 988 899 l 981 806 q 915 779 935 799 q 893 718 894 760 l 875 -19 l 728 -37 q 324 579 522 292 l 310 579 l 308 151 q 319 103 308 117 q 356 89 329 89 l 415 93 l 424 83 l 410 -6 q 244 0 290 0 q 60 -11 165 0 l 71 82 q 153 169 151 92 l 171 718 q 149 780 171 763 q 58 804 126 797 l 47 818 l 57 899 q 218 892 150 892 l 351 897 q 722 326 533 601 l 736 326 l 733 742 q 688 801 732 801 m 767 1076 l 758 1058 q 440 968 599 1018 l 422 981 l 404 1046 l 714 1190 l 731 1183 l 767 1076 z "},"ń":{"ha":864,"x_min":46,"x_max":836,"o":"m 571 618 l 533 618 l 528 626 l 536 700 q 738 696 640 696 q 836 701 836 696 l 831 621 q 776 600 792 615 q 758 553 760 585 l 743 -10 l 600 -24 q 289 415 453 196 l 276 415 l 276 128 q 287 88 278 99 q 318 76 296 76 l 364 79 l 372 72 l 360 -4 q 206 0 254 0 l 56 -8 l 65 72 q 115 92 100 76 q 132 140 131 107 l 147 551 q 129 599 147 586 q 56 619 111 613 l 46 631 l 54 701 q 196 696 132 696 l 315 700 q 600 289 447 496 l 613 289 l 608 571 q 599 608 607 597 q 571 618 590 618 m 674 879 l 665 861 q 347 771 506 821 l 329 783 l 311 849 l 621 993 l 638 986 l 674 879 z "},"Ņ":{"ha":1013,"x_min":47,"x_max":988,"o":"m 688 801 l 640 800 l 635 811 l 644 897 q 824 892 763 892 l 988 899 l 981 806 q 915 779 935 799 q 893 718 894 760 l 875 -19 l 728 -37 q 324 579 522 292 l 310 579 l 308 151 q 319 103 308 117 q 356 89 329 89 l 415 93 l 424 83 l 410 -6 q 244 0 290 0 q 60 -11 165 0 l 71 82 q 153 169 151 92 l 171 718 q 149 780 171 763 q 58 804 126 797 l 47 818 l 57 899 q 218 892 150 892 l 351 897 q 722 326 533 601 l 736 326 l 733 742 q 688 801 732 801 m 417 -119 q 523 -71 478 -71 q 595 -103 568 -71 q 622 -198 622 -136 q 565 -326 622 -260 q 418 -442 507 -393 l 367 -400 l 367 -376 q 435 -308 408 -347 q 461 -235 461 -269 q 413 -139 461 -178 l 417 -119 z "},"ņ":{"ha":864,"x_min":46,"x_max":836,"o":"m 571 618 l 533 618 l 528 626 l 536 700 q 738 696 640 696 q 836 701 836 696 l 831 621 q 776 600 792 615 q 758 553 760 585 l 743 -10 l 600 -24 q 289 415 453 196 l 276 415 l 276 128 q 287 88 278 99 q 318 76 296 76 l 364 79 l 372 72 l 360 -4 q 206 0 254 0 l 56 -8 l 65 72 q 115 92 100 76 q 132 140 131 107 l 147 551 q 129 599 147 586 q 56 619 111 613 l 46 631 l 54 701 q 196 696 132 696 l 315 700 q 600 289 447 496 l 613 289 l 608 571 q 599 608 607 597 q 571 618 590 618 m 349 -119 q 455 -71 410 -71 q 527 -103 500 -71 q 554 -198 554 -136 q 497 -326 554 -260 q 350 -442 439 -393 l 299 -400 l 299 -376 q 367 -308 340 -347 q 393 -235 393 -269 q 344 -139 393 -178 l 349 -119 z "},"Ň":{"ha":1013,"x_min":47,"x_max":988,"o":"m 688 801 l 640 800 l 635 811 l 644 897 q 824 892 763 892 l 988 899 l 981 806 q 915 779 935 799 q 893 718 894 760 l 875 -19 l 728 -37 q 324 579 522 292 l 310 579 l 308 151 q 319 103 308 117 q 356 89 329 89 l 415 93 l 424 83 l 410 -6 q 244 0 290 0 q 60 -11 165 0 l 71 82 q 153 169 151 92 l 171 718 q 149 780 171 763 q 58 804 126 797 l 47 818 l 57 899 q 218 892 150 892 l 351 897 q 722 326 533 601 l 736 326 l 733 742 q 688 801 732 801 m 721 1196 l 756 1139 q 538 967 654 1065 l 510 967 q 292 1139 394 1064 l 325 1196 l 347 1201 q 524 1121 417 1167 q 699 1201 590 1149 l 721 1196 z "},"ň":{"ha":864,"x_min":46,"x_max":836,"o":"m 571 618 l 533 618 l 528 626 l 536 700 q 738 696 640 696 q 836 701 836 696 l 831 621 q 776 600 792 615 q 758 553 760 585 l 743 -10 l 600 -24 q 289 415 453 196 l 276 415 l 276 128 q 287 88 278 99 q 318 76 296 76 l 364 79 l 372 72 l 360 -4 q 206 0 254 0 l 56 -8 l 65 72 q 115 92 100 76 q 132 140 131 107 l 147 551 q 129 599 147 586 q 56 619 111 613 l 46 631 l 54 701 q 196 696 132 696 l 315 700 q 600 289 447 496 l 613 289 l 608 571 q 599 608 607 597 q 571 618 590 618 m 643 999 l 678 942 q 460 769 576 868 l 432 769 q 214 942 317 867 l 247 999 l 269 1004 q 446 924 339 969 q 621 1004 513 951 l 643 999 z "},"Ŋ":{"ha":1010,"x_min":50,"x_max":986,"o":"m 215 892 l 349 897 q 726 317 493 656 l 739 317 l 738 744 q 692 804 738 804 l 643 803 l 638 811 l 649 897 q 826 892 782 892 l 986 900 l 979 808 q 912 783 932 803 q 890 721 892 763 l 876 119 q 808 -99 872 -18 q 603 -226 744 -181 l 565 -171 l 569 -156 q 660 -83 629 -119 q 706 6 692 -46 q 319 590 507 317 l 307 590 l 304 150 q 316 101 306 114 q 353 88 326 88 l 413 90 l 419 82 l 407 -6 q 206 0 292 0 l 63 -11 l 74 79 q 137 108 118 85 q 157 185 156 131 l 174 721 q 151 781 174 764 q 60 807 129 799 l 50 821 l 60 899 q 215 892 164 892 z "},"ŋ":{"ha":860,"x_min":49,"x_max":833,"o":"m 194 696 l 311 700 q 603 278 425 522 l 615 278 l 613 574 q 575 621 613 621 l 536 619 l 532 628 l 539 700 q 696 696 661 696 l 833 701 l 828 624 q 773 603 789 618 q 756 556 757 588 l 744 93 q 686 -80 742 -15 q 508 -179 631 -144 l 474 -135 l 478 -121 q 585 3 567 -65 q 286 426 447 204 l 275 426 l 274 125 q 283 86 274 97 q 314 75 292 75 l 361 78 l 368 71 l 357 -4 q 182 0 258 0 l 58 -8 l 68 68 q 119 90 104 72 q 136 147 135 107 l 150 554 q 133 601 150 588 q 58 621 115 615 l 49 633 l 57 701 q 194 696 147 696 z "},"Ō":{"ha":936,"x_min":39,"x_max":897,"o":"m 254 458 q 254 377 254 458 q 311 200 254 296 q 469 104 368 104 q 626 181 571 104 q 681 421 681 258 q 622 678 681 583 q 462 774 564 774 q 307 697 360 774 q 254 458 254 619 m 897 465 q 897 359 897 465 q 771 118 897 253 q 449 -17 644 -17 q 146 101 253 -17 q 39 431 39 219 q 164 775 39 642 q 486 908 289 908 q 790 793 683 908 q 897 465 897 678 m 665 1111 l 676 1092 l 660 985 l 271 982 l 256 999 l 275 1104 q 489 1103 407 1103 l 665 1111 z "},"ō":{"ha":792,"x_min":40,"x_max":751,"o":"m 400 94 q 512 149 472 94 q 551 308 551 203 q 386 590 551 590 q 240 378 240 590 q 400 94 240 94 m 751 362 q 751 277 751 362 q 649 90 751 193 q 381 -12 546 -12 q 128 78 217 -12 q 40 338 40 169 q 142 607 40 506 q 410 708 243 708 q 664 619 576 708 q 751 362 751 531 m 601 914 l 613 894 l 596 788 l 207 785 l 192 801 l 211 907 q 425 906 343 906 l 601 914 z "},"Ŏ":{"ha":936,"x_min":39,"x_max":897,"o":"m 254 458 q 254 377 254 458 q 311 200 254 296 q 469 104 368 104 q 626 181 571 104 q 681 421 681 258 q 622 678 681 583 q 462 774 564 774 q 307 697 360 774 q 254 458 254 619 m 897 465 q 897 359 897 465 q 771 118 897 253 q 449 -17 644 -17 q 146 101 253 -17 q 39 431 39 219 q 164 775 39 642 q 486 908 289 908 q 790 793 683 908 q 897 465 897 678 m 308 1222 q 451 1128 346 1128 q 594 1222 557 1128 l 618 1217 l 657 1169 q 585 1045 636 1094 q 451 996 533 996 q 318 1045 369 996 q 246 1169 267 1094 l 285 1217 l 308 1222 z "},"ŏ":{"ha":792,"x_min":40,"x_max":751,"o":"m 400 94 q 512 149 472 94 q 551 308 551 203 q 386 590 551 590 q 240 378 240 590 q 400 94 240 94 m 751 362 q 751 277 751 362 q 649 90 751 193 q 381 -12 546 -12 q 128 78 217 -12 q 40 338 40 169 q 142 607 40 506 q 410 708 243 708 q 664 619 576 708 q 751 362 751 531 m 249 1025 q 392 931 286 931 q 535 1025 497 931 l 558 1019 l 597 972 q 525 848 576 897 q 392 799 474 799 q 258 848 310 799 q 186 972 207 897 l 225 1019 l 249 1025 z "},"Ő":{"ha":936,"x_min":39,"x_max":897,"o":"m 254 458 q 254 377 254 458 q 311 200 254 296 q 469 104 368 104 q 626 181 571 104 q 681 421 681 258 q 622 678 681 583 q 462 774 564 774 q 307 697 360 774 q 254 458 254 619 m 897 465 q 897 359 897 465 q 771 118 897 253 q 449 -17 644 -17 q 146 101 253 -17 q 39 431 39 219 q 164 775 39 642 q 486 908 289 908 q 790 793 683 908 q 897 465 897 678 m 558 1103 l 557 1086 q 324 950 440 1022 l 304 957 l 272 1004 l 482 1190 l 499 1189 l 558 1103 m 792 1097 l 790 1081 q 556 944 672 1017 l 539 950 l 506 997 l 715 1183 l 732 1181 l 792 1097 z "},"ő":{"ha":792,"x_min":40,"x_max":751,"o":"m 400 94 q 512 149 472 94 q 551 308 551 203 q 386 590 551 590 q 240 378 240 590 q 400 94 240 94 m 751 362 q 751 277 751 362 q 649 90 751 193 q 381 -12 546 -12 q 128 78 217 -12 q 40 338 40 169 q 142 607 40 506 q 410 708 243 708 q 664 619 576 708 q 751 362 751 531 m 467 906 l 465 889 q 232 753 349 825 l 213 760 l 181 807 l 390 993 l 407 992 l 467 906 m 700 900 l 699 883 q 464 747 581 819 l 447 753 l 414 800 l 624 986 l 640 983 l 700 900 z "},"Œ":{"ha":1306,"x_min":40,"x_max":1251,"o":"m 907 110 q 1073 137 1036 110 q 1124 268 1110 164 l 1242 278 l 1251 264 q 1214 6 1226 139 l 1200 -10 q 816 3 935 3 q 587 -6 697 3 q 436 -15 476 -15 q 147 102 253 -15 q 40 431 40 219 q 162 772 40 642 q 488 901 283 901 q 632 892 531 901 q 797 883 733 883 q 1231 908 1053 883 l 1242 893 q 1210 640 1217 769 l 1083 632 q 1086 688 1086 668 q 1056 760 1086 744 q 942 775 1025 775 q 849 768 860 775 q 836 729 838 761 l 826 514 l 956 513 l 1117 524 l 1128 511 l 1108 392 q 928 396 997 396 l 821 388 l 818 193 q 833 124 818 138 q 907 110 847 110 m 253 458 q 253 376 253 458 q 308 198 253 294 q 463 101 364 101 q 602 143 561 101 q 644 281 643 185 l 646 631 q 605 747 646 715 q 463 779 564 779 q 308 701 363 779 q 253 458 253 622 z "},"œ":{"ha":1090,"x_min":40,"x_max":1042,"o":"m 688 163 q 699 108 688 119 q 783 97 711 97 q 883 118 854 97 q 924 218 913 139 l 1033 226 l 1042 214 q 1011 6 1022 114 l 999 -7 q 685 3 786 3 q 493 -4 583 3 q 372 -11 403 -11 q 128 80 217 -11 q 40 338 40 171 q 138 604 40 506 q 408 703 236 703 q 528 696 443 703 q 736 689 613 689 q 1025 708 860 689 l 1036 696 q 1010 493 1015 594 l 892 485 q 894 528 894 513 q 871 582 894 571 q 784 593 847 593 q 712 588 721 593 q 701 560 703 582 l 694 406 l 799 404 l 929 414 l 940 401 l 924 299 q 776 301 833 301 l 690 296 l 688 163 m 394 90 q 494 120 463 90 q 525 217 525 150 l 526 485 q 494 571 526 547 q 386 594 463 594 q 236 379 236 594 q 394 90 236 90 z "},"Ŕ":{"ha":893,"x_min":50,"x_max":889,"o":"m 790 660 q 604 394 790 492 l 725 200 q 800 108 764 136 q 879 79 836 79 l 889 67 l 879 -7 l 714 -22 q 563 107 622 -22 l 443 349 l 346 349 l 344 196 q 360 108 344 126 q 443 89 376 90 l 449 81 l 435 -6 q 249 -1 435 -1 l 50 -8 l 63 85 q 141 116 121 93 q 161 199 161 139 l 163 733 q 153 788 163 774 q 118 801 144 801 l 69 799 l 63 810 l 74 894 q 249 892 194 892 l 461 899 q 706 837 621 899 q 790 660 790 775 m 593 633 q 386 783 593 783 q 367 778 372 783 q 350 474 356 765 l 475 460 q 593 633 593 510 m 690 1076 l 682 1058 q 364 968 522 1018 l 346 981 l 328 1046 l 638 1190 l 654 1183 l 690 1076 z "},"ŕ":{"ha":771,"x_min":49,"x_max":758,"o":"m 138 163 l 138 567 q 131 608 138 597 q 104 618 124 618 l 64 617 l 56 625 l 67 697 q 215 696 169 696 l 399 701 q 610 652 538 701 q 682 510 682 603 q 533 304 682 379 l 625 165 q 749 71 686 71 l 758 58 l 749 -6 l 603 -17 q 476 83 522 -17 l 385 264 l 308 264 l 307 158 q 320 92 307 106 q 389 78 333 79 l 393 71 l 382 -4 q 221 -1 382 -1 l 49 -8 l 58 74 q 121 99 104 81 q 138 163 138 117 m 501 489 q 340 597 501 597 q 325 592 329 597 q 311 374 317 583 l 410 363 q 501 489 501 399 m 615 879 l 607 861 q 289 771 447 821 l 271 783 l 253 849 l 563 993 l 579 986 l 615 879 z "},"Ŗ":{"ha":893,"x_min":50,"x_max":889,"o":"m 790 660 q 604 394 790 492 l 725 200 q 800 108 764 136 q 879 79 836 79 l 889 67 l 879 -7 l 714 -22 q 563 107 622 -22 l 443 349 l 346 349 l 344 196 q 360 108 344 126 q 443 89 376 90 l 449 81 l 435 -6 q 249 -1 435 -1 l 50 -8 l 63 85 q 141 116 121 93 q 161 199 161 139 l 163 733 q 153 788 163 774 q 118 801 144 801 l 69 799 l 63 810 l 74 894 q 249 892 194 892 l 461 899 q 706 837 621 899 q 790 660 790 775 m 593 633 q 386 783 593 783 q 367 778 372 783 q 350 474 356 765 l 475 460 q 593 633 593 510 m 361 -119 q 467 -71 422 -71 q 540 -103 513 -71 q 567 -198 567 -136 q 509 -326 567 -260 q 363 -442 451 -393 l 311 -400 l 311 -376 q 379 -308 353 -347 q 406 -235 406 -269 q 357 -139 406 -178 l 361 -119 z "},"ŗ":{"ha":771,"x_min":49,"x_max":758,"o":"m 138 163 l 138 567 q 131 608 138 597 q 104 618 124 618 l 64 617 l 56 625 l 67 697 q 215 696 169 696 l 399 701 q 610 652 538 701 q 682 510 682 603 q 533 304 682 379 l 625 165 q 749 71 686 71 l 758 58 l 749 -6 l 603 -17 q 476 83 522 -17 l 385 264 l 308 264 l 307 158 q 320 92 307 106 q 389 78 333 79 l 393 71 l 382 -4 q 221 -1 382 -1 l 49 -8 l 58 74 q 121 99 104 81 q 138 163 138 117 m 501 489 q 340 597 501 597 q 325 592 329 597 q 311 374 317 583 l 410 363 q 501 489 501 399 m 304 -119 q 410 -71 365 -71 q 483 -103 456 -71 q 510 -198 510 -136 q 452 -326 510 -260 q 306 -442 394 -393 l 254 -400 l 254 -376 q 322 -308 296 -347 q 349 -235 349 -269 q 300 -139 349 -178 l 304 -119 z "},"Ř":{"ha":893,"x_min":50,"x_max":889,"o":"m 790 660 q 604 394 790 492 l 725 200 q 800 108 764 136 q 879 79 836 79 l 889 67 l 879 -7 l 714 -22 q 563 107 622 -22 l 443 349 l 346 349 l 344 196 q 360 108 344 126 q 443 89 376 90 l 449 81 l 435 -6 q 249 -1 435 -1 l 50 -8 l 63 85 q 141 116 121 93 q 161 199 161 139 l 163 733 q 153 788 163 774 q 118 801 144 801 l 69 799 l 63 810 l 74 894 q 249 892 194 892 l 461 899 q 706 837 621 899 q 790 660 790 775 m 593 633 q 386 783 593 783 q 367 778 372 783 q 350 474 356 765 l 475 460 q 593 633 593 510 m 646 1196 l 681 1139 q 463 967 579 1065 l 435 967 q 217 1139 319 1064 l 250 1196 l 272 1201 q 449 1121 342 1167 q 624 1201 515 1149 l 646 1196 z "},"ř":{"ha":771,"x_min":49,"x_max":758,"o":"m 138 163 l 138 567 q 131 608 138 597 q 104 618 124 618 l 64 617 l 56 625 l 67 697 q 215 696 169 696 l 399 701 q 610 652 538 701 q 682 510 682 603 q 533 304 682 379 l 625 165 q 749 71 686 71 l 758 58 l 749 -6 l 603 -17 q 476 83 522 -17 l 385 264 l 308 264 l 307 158 q 320 92 307 106 q 389 78 333 79 l 393 71 l 382 -4 q 221 -1 382 -1 l 49 -8 l 58 74 q 121 99 104 81 q 138 163 138 117 m 501 489 q 340 597 501 597 q 325 592 329 597 q 311 374 317 583 l 410 363 q 501 489 501 399 m 585 999 l 619 942 q 401 769 518 868 l 374 769 q 156 942 258 867 l 189 999 l 211 1004 q 388 924 281 969 q 563 1004 454 951 l 585 999 z "},"Ś":{"ha":750,"x_min":94,"x_max":738,"o":"m 350 -17 q 224 -3 285 -17 q 106 36 163 10 l 94 56 q 117 292 115 178 l 233 301 q 265 147 233 188 q 374 107 297 107 q 491 136 451 107 q 531 214 531 165 q 512 267 531 249 q 483 295 493 286 q 449 318 474 304 q 413 338 424 332 q 368 358 401 343 q 166 485 226 428 q 106 631 106 542 q 210 831 106 753 q 476 908 314 908 q 686 881 594 908 l 715 871 l 725 853 q 692 614 701 740 l 586 606 l 574 615 q 575 664 575 638 q 544 751 575 725 q 448 776 513 776 q 346 749 383 776 q 308 678 308 721 q 419 556 308 611 q 496 519 443 544 q 581 476 549 494 q 656 425 613 458 q 738 264 738 363 q 632 60 738 136 q 350 -17 526 -17 m 622 1076 l 614 1058 q 296 968 454 1018 l 278 981 l 260 1046 l 569 1190 l 586 1183 l 622 1076 z "},"ś":{"ha":647,"x_min":47,"x_max":594,"o":"m 265 -12 q 158 -2 210 -12 q 58 29 107 8 l 47 46 q 68 228 65 144 l 175 236 q 201 128 175 158 q 286 99 228 99 q 374 118 344 99 q 403 169 403 138 q 388 208 403 194 q 365 228 372 221 q 337 244 357 235 q 307 258 317 254 q 222 297 294 265 q 103 373 150 329 q 56 488 56 417 q 144 647 56 585 q 374 708 233 708 q 575 679 482 708 l 585 663 q 556 476 564 574 l 458 468 l 447 476 q 449 507 449 492 q 424 572 449 551 q 349 592 399 592 q 272 573 300 592 q 243 530 243 554 q 253 490 243 506 q 292 458 264 475 q 381 415 324 440 q 466 376 438 390 q 528 336 494 361 q 594 207 594 286 q 506 47 594 107 q 265 -12 417 -12 m 557 879 l 549 861 q 231 771 389 821 l 213 783 l 194 849 l 504 993 l 521 986 l 557 879 z "},"Ŝ":{"ha":750,"x_min":50,"x_max":693,"o":"m 222 985 l 182 1042 q 393 1256 271 1125 l 421 1256 q 631 1042 532 1136 l 590 985 l 569 979 q 407 1094 542 1001 q 244 979 308 1031 l 222 985 m 306 -17 q 179 -3 240 -17 q 61 36 118 10 l 50 56 q 72 292 71 178 l 189 301 q 221 147 189 188 q 330 107 253 107 q 447 136 407 107 q 486 214 486 165 q 467 267 486 249 q 439 295 449 286 q 404 318 429 304 q 368 338 379 332 q 324 358 357 343 q 122 485 182 428 q 61 631 61 542 q 165 831 61 753 q 432 908 269 908 q 642 881 550 908 l 671 871 l 681 853 q 647 614 657 740 l 542 606 l 529 615 q 531 664 531 638 q 499 751 531 725 q 403 776 468 776 q 301 749 339 776 q 264 678 264 721 q 375 556 264 611 q 451 519 399 544 q 536 476 504 494 q 611 425 568 458 q 693 264 693 363 q 588 60 693 136 q 306 -17 482 -17 z "},"ŝ":{"ha":647,"x_min":47,"x_max":594,"o":"m 265 -12 q 158 -2 210 -12 q 58 29 107 8 l 47 46 q 68 228 65 144 l 175 236 q 201 128 175 158 q 286 99 228 99 q 374 118 344 99 q 403 169 403 138 q 388 208 403 194 q 365 228 372 221 q 337 244 357 235 q 307 258 317 254 q 222 297 294 265 q 103 373 150 329 q 56 488 56 417 q 144 647 56 585 q 374 708 233 708 q 575 679 482 708 l 585 663 q 556 476 564 574 l 458 468 l 447 476 q 449 507 449 492 q 424 572 449 551 q 349 592 399 592 q 272 573 300 592 q 243 530 243 554 q 253 490 243 506 q 292 458 264 475 q 381 415 324 440 q 466 376 438 390 q 528 336 494 361 q 594 207 594 286 q 506 47 594 107 q 265 -12 417 -12 m 164 788 l 124 844 q 335 1058 213 928 l 363 1058 q 572 844 474 939 l 532 788 l 511 782 q 349 897 483 804 q 186 782 250 833 l 164 788 z "},"Ş":{"ha":750,"x_min":94,"x_max":738,"o":"m 233 301 q 265 147 233 188 q 374 107 297 107 q 491 136 451 107 q 531 214 531 165 q 512 267 531 249 q 483 295 493 286 q 449 318 474 304 q 413 338 424 332 q 368 358 401 343 q 166 485 226 428 q 106 631 106 542 q 210 831 106 753 q 476 908 314 908 q 686 881 594 908 l 715 871 l 725 853 q 692 614 701 740 l 586 606 l 574 615 q 575 664 575 638 q 544 751 575 725 q 448 776 513 776 q 346 749 383 776 q 308 678 308 721 q 419 556 308 611 q 496 519 443 544 q 581 476 549 494 q 656 425 613 458 q 738 264 738 363 q 640 67 738 143 q 381 -15 543 -8 l 368 -61 q 428 -98 406 -83 q 476 -141 451 -112 q 501 -196 501 -169 q 445 -290 501 -250 q 317 -329 389 -329 q 243 -312 278 -329 q 208 -269 208 -296 q 260 -182 208 -243 l 272 -182 q 293 -240 274 -219 q 340 -260 313 -260 q 384 -248 368 -260 q 400 -218 400 -236 q 281 -119 400 -182 l 310 -15 q 203 1 254 -11 q 106 36 153 14 l 94 56 q 117 292 115 178 l 233 301 z "},"ş":{"ha":647,"x_min":47,"x_max":594,"o":"m 175 236 q 201 128 175 158 q 286 99 228 99 q 374 118 344 99 q 403 169 403 138 q 388 208 403 194 q 365 228 372 221 q 337 244 357 235 q 307 258 317 254 q 222 297 294 265 q 103 373 150 329 q 56 488 56 417 q 144 647 56 585 q 374 708 233 708 q 575 679 482 708 l 585 663 q 556 476 564 574 l 458 468 l 447 476 q 449 507 449 492 q 424 572 449 551 q 349 592 399 592 q 272 573 300 592 q 243 530 243 554 q 253 490 243 506 q 292 458 264 475 q 381 415 324 440 q 466 376 438 390 q 528 336 494 361 q 594 203 594 286 q 526 63 594 119 q 339 -8 458 6 l 324 -61 q 384 -98 361 -83 q 432 -141 407 -112 q 457 -196 457 -169 q 401 -290 457 -250 q 272 -329 344 -329 q 199 -312 233 -329 q 164 -269 164 -296 q 215 -182 164 -243 l 228 -182 q 249 -240 229 -219 q 296 -260 268 -260 q 340 -248 324 -260 q 356 -218 356 -236 q 236 -119 356 -182 l 265 -12 q 158 -2 210 -12 q 58 29 107 8 l 47 46 q 68 228 65 144 l 175 236 z "},"Š":{"ha":750,"x_min":94,"x_max":738,"o":"m 350 -17 q 224 -3 285 -17 q 106 36 163 10 l 94 56 q 117 292 115 178 l 233 301 q 265 147 233 188 q 374 107 297 107 q 491 136 451 107 q 531 214 531 165 q 512 267 531 249 q 483 295 493 286 q 449 318 474 304 q 413 338 424 332 q 368 358 401 343 q 166 485 226 428 q 106 631 106 542 q 210 831 106 753 q 476 908 314 908 q 686 881 594 908 l 715 871 l 725 853 q 692 614 701 740 l 586 606 l 574 615 q 575 664 575 638 q 544 751 575 725 q 448 776 513 776 q 346 749 383 776 q 308 678 308 721 q 419 556 308 611 q 496 519 443 544 q 581 476 549 494 q 656 425 613 458 q 738 264 738 363 q 632 60 738 136 q 350 -17 526 -17 m 578 1196 l 613 1139 q 394 967 511 1065 l 367 967 q 149 1139 251 1064 l 182 1196 l 204 1201 q 381 1121 274 1167 q 556 1201 447 1149 l 578 1196 z "},"š":{"ha":647,"x_min":47,"x_max":594,"o":"m 265 -12 q 158 -2 210 -12 q 58 29 107 8 l 47 46 q 68 228 65 144 l 175 236 q 201 128 175 158 q 286 99 228 99 q 374 118 344 99 q 403 169 403 138 q 388 208 403 194 q 365 228 372 221 q 337 244 357 235 q 307 258 317 254 q 222 297 294 265 q 103 373 150 329 q 56 488 56 417 q 144 647 56 585 q 374 708 233 708 q 575 679 482 708 l 585 663 q 556 476 564 574 l 458 468 l 447 476 q 449 507 449 492 q 424 572 449 551 q 349 592 399 592 q 272 573 300 592 q 243 530 243 554 q 253 490 243 506 q 292 458 264 475 q 381 415 324 440 q 466 376 438 390 q 528 336 494 361 q 594 207 594 286 q 506 47 594 107 q 265 -12 417 -12 m 528 999 l 563 942 q 344 769 461 868 l 317 769 q 99 942 201 867 l 132 999 l 154 1004 q 331 924 224 969 q 506 1004 397 951 l 528 999 z "},"Ţ":{"ha":790,"x_min":7,"x_max":782,"o":"m 300 229 l 300 782 q 211 776 240 781 q 163 748 182 771 q 138 697 143 725 q 124 601 132 668 l 7 593 q 22 892 19 756 l 38 907 l 178 892 l 610 892 l 753 907 l 768 892 l 782 601 l 665 593 q 626 751 650 722 q 497 782 601 779 q 482 188 482 556 q 499 115 482 136 q 558 93 517 93 l 632 97 l 638 90 l 625 -6 q 426 0 508 -1 l 410 -61 q 470 -98 447 -83 q 518 -141 493 -112 q 543 -196 543 -169 q 487 -290 543 -250 q 358 -329 431 -329 q 285 -312 319 -329 q 250 -269 250 -296 q 301 -182 250 -243 l 314 -182 q 335 -240 315 -219 q 382 -260 354 -260 q 426 -248 410 -260 q 442 -218 442 -236 q 322 -119 442 -182 l 356 0 l 150 -8 l 161 83 q 276 116 253 92 q 300 229 300 140 z "},"ţ":{"ha":683,"x_min":17,"x_max":665,"o":"m 256 179 l 256 597 q 157 572 179 596 q 124 453 135 547 l 17 446 q 29 694 26 583 l 42 708 l 163 696 l 521 696 l 642 708 l 656 694 l 665 453 l 558 446 q 526 572 546 549 q 435 597 507 594 q 424 154 424 394 q 438 97 424 114 q 486 81 451 81 l 546 83 l 551 78 l 540 -6 q 376 0 444 -1 l 360 -61 q 420 -98 397 -83 q 468 -141 443 -112 q 493 -196 493 -169 q 437 -290 493 -250 q 308 -329 381 -329 q 235 -312 269 -329 q 200 -269 200 -296 q 251 -182 200 -243 l 264 -182 q 285 -240 265 -219 q 332 -260 304 -260 q 376 -248 360 -260 q 392 -218 392 -236 q 272 -119 392 -182 l 306 0 l 132 -8 l 140 74 q 235 98 215 79 q 256 179 256 117 z "},"Ť":{"ha":790,"x_min":7,"x_max":782,"o":"m 300 229 l 300 782 q 211 776 240 781 q 163 748 182 771 q 138 697 143 725 q 124 601 132 668 l 7 593 q 22 892 19 756 l 38 907 l 178 892 l 610 892 l 753 907 l 768 892 l 782 601 l 665 593 q 626 751 650 722 q 497 782 601 779 q 482 188 482 556 q 499 115 482 136 q 558 93 517 93 l 632 97 l 638 90 l 625 -6 q 383 0 456 0 l 150 -8 l 161 83 q 276 116 253 92 q 300 229 300 140 m 597 1196 l 632 1139 q 414 967 531 1065 l 386 967 q 168 1139 271 1064 l 201 1196 l 224 1201 q 400 1121 293 1167 q 575 1201 467 1149 l 597 1196 z "},"ť":{"ha":683,"x_min":17,"x_max":665,"o":"m 256 179 l 256 597 q 157 572 179 596 q 124 453 135 547 l 17 446 q 29 694 26 583 l 42 708 l 163 696 l 521 696 l 642 708 l 656 694 l 665 453 l 558 446 q 526 572 546 549 q 435 597 507 594 q 424 154 424 394 q 438 97 424 114 q 486 81 451 81 l 546 83 l 551 78 l 540 -6 q 333 0 393 0 l 132 -8 l 140 74 q 235 98 215 79 q 256 179 256 117 m 542 999 l 576 942 q 358 769 475 868 l 331 769 q 113 942 215 867 l 146 999 l 168 1004 q 344 924 238 969 q 519 1004 411 951 l 542 999 z "},"Ŧ":{"ha":790,"x_min":7,"x_max":782,"o":"m 300 229 l 300 383 l 181 382 l 167 396 l 178 463 q 300 461 236 461 l 300 782 q 211 776 240 781 q 163 748 182 771 q 138 697 143 725 q 124 601 132 668 l 7 593 q 22 892 19 756 l 38 907 l 178 892 l 610 892 l 753 907 l 768 892 l 782 601 l 665 593 q 626 751 650 722 q 497 782 601 779 q 485 463 489 682 l 588 468 l 607 449 l 601 385 l 483 383 q 482 188 482 317 q 499 115 482 136 q 558 93 517 93 l 632 97 l 638 90 l 625 -6 q 383 0 456 0 l 150 -8 l 161 83 q 276 116 253 92 q 300 229 300 140 z "},"ŧ":{"ha":683,"x_min":17,"x_max":665,"o":"m 256 179 l 256 256 l 131 254 l 117 267 l 128 333 q 256 332 189 332 l 256 597 q 157 572 179 596 q 124 453 135 547 l 17 446 q 29 694 26 583 l 42 708 l 163 696 l 521 696 l 642 708 l 656 694 l 665 453 l 558 446 q 526 572 546 549 q 435 597 507 594 q 425 332 431 531 l 538 339 l 557 319 l 551 256 l 424 256 l 424 154 q 438 97 424 114 q 486 81 451 81 l 546 83 l 551 78 l 540 -6 q 333 0 393 0 l 132 -8 l 140 74 q 235 98 215 79 q 256 179 256 117 z "},"Ũ":{"ha":910,"x_min":25,"x_max":886,"o":"m 476 110 q 646 290 646 110 l 640 726 q 631 787 639 772 q 596 801 622 801 l 550 799 l 547 804 l 558 896 q 721 892 668 892 l 886 900 l 878 807 q 812 783 826 796 q 797 738 797 771 l 797 306 q 705 66 797 149 q 439 -17 613 -17 q 117 283 117 -17 l 117 726 q 108 787 117 772 q 72 801 100 801 l 28 799 l 25 804 l 38 896 q 236 892 157 892 l 401 900 l 392 806 q 333 785 349 800 q 314 732 317 769 l 304 328 q 349 167 304 224 q 476 110 393 110 m 342 1203 q 449 1180 367 1203 q 547 1157 531 1157 q 587 1176 564 1157 q 640 1235 610 1196 l 656 1235 l 710 1183 l 710 1169 l 601 1028 l 578 1022 q 472 1046 554 1022 q 373 1069 390 1069 q 333 1050 356 1069 q 281 992 310 1031 l 265 992 l 210 1042 l 210 1057 l 319 1197 l 342 1203 z "},"ũ":{"ha":767,"x_min":28,"x_max":740,"o":"m 403 97 q 528 224 528 97 l 525 560 q 517 606 524 594 q 490 618 510 618 l 454 617 l 451 621 l 463 699 q 597 696 554 696 l 740 701 l 733 621 q 681 602 692 611 q 669 568 669 593 l 669 243 q 593 53 669 118 q 376 -12 517 -12 q 169 44 235 -12 q 103 219 103 101 l 103 560 q 95 607 103 596 q 65 618 88 618 l 31 617 l 28 621 l 39 699 q 213 696 140 696 l 353 701 l 344 619 q 297 604 310 617 q 282 564 283 592 l 274 249 q 307 138 274 178 q 403 97 340 97 m 274 1006 q 381 983 299 1006 q 479 960 463 960 q 519 979 496 960 q 572 1038 542 999 l 588 1038 l 642 986 l 642 972 l 533 831 l 510 825 q 404 849 486 825 q 305 872 322 872 q 265 853 288 872 q 213 794 242 833 l 197 794 l 142 844 l 142 860 l 251 1000 l 274 1006 z "},"Ū":{"ha":910,"x_min":25,"x_max":886,"o":"m 476 110 q 646 290 646 110 l 640 726 q 631 787 639 772 q 596 801 622 801 l 550 799 l 547 804 l 558 896 q 721 892 668 892 l 886 900 l 878 807 q 812 783 826 796 q 797 738 797 771 l 797 306 q 705 66 797 149 q 439 -17 613 -17 q 117 283 117 -17 l 117 726 q 108 787 117 772 q 72 801 100 801 l 28 799 l 25 804 l 38 896 q 236 892 157 892 l 401 900 l 392 806 q 333 785 349 800 q 314 732 317 769 l 304 328 q 349 167 304 224 q 476 110 393 110 m 674 1111 l 685 1092 l 668 985 l 279 982 l 264 999 l 283 1104 q 497 1103 415 1103 l 674 1111 z "},"ū":{"ha":767,"x_min":28,"x_max":740,"o":"m 403 97 q 528 224 528 97 l 525 560 q 517 606 524 594 q 490 618 510 618 l 454 617 l 451 621 l 463 699 q 597 696 554 696 l 740 701 l 733 621 q 681 602 692 611 q 669 568 669 593 l 669 243 q 593 53 669 118 q 376 -12 517 -12 q 169 44 235 -12 q 103 219 103 101 l 103 560 q 95 607 103 596 q 65 618 88 618 l 31 617 l 28 621 l 39 699 q 213 696 140 696 l 353 701 l 344 619 q 297 604 310 617 q 282 564 283 592 l 274 249 q 307 138 274 178 q 403 97 340 97 m 601 914 l 613 894 l 596 788 l 207 785 l 192 801 l 211 907 q 425 906 343 906 l 601 914 z "},"Ŭ":{"ha":910,"x_min":25,"x_max":886,"o":"m 476 110 q 646 290 646 110 l 640 726 q 631 787 639 772 q 596 801 622 801 l 550 799 l 547 804 l 558 896 q 721 892 668 892 l 886 900 l 878 807 q 812 783 826 796 q 797 738 797 771 l 797 306 q 705 66 797 149 q 439 -17 613 -17 q 117 283 117 -17 l 117 726 q 108 787 117 772 q 72 801 100 801 l 28 799 l 25 804 l 38 896 q 236 892 157 892 l 401 900 l 392 806 q 333 785 349 800 q 314 732 317 769 l 304 328 q 349 167 304 224 q 476 110 393 110 m 319 1229 q 463 1135 357 1135 q 606 1229 568 1135 l 629 1224 l 668 1176 q 596 1052 647 1101 q 463 1003 544 1003 q 329 1052 381 1003 q 257 1176 278 1101 l 296 1224 l 319 1229 z "},"ŭ":{"ha":767,"x_min":28,"x_max":740,"o":"m 403 97 q 528 224 528 97 l 525 560 q 517 606 524 594 q 490 618 510 618 l 454 617 l 451 621 l 463 699 q 597 696 554 696 l 740 701 l 733 621 q 681 602 692 611 q 669 568 669 593 l 669 243 q 593 53 669 118 q 376 -12 517 -12 q 169 44 235 -12 q 103 219 103 101 l 103 560 q 95 607 103 596 q 65 618 88 618 l 31 617 l 28 621 l 39 699 q 213 696 140 696 l 353 701 l 344 619 q 297 604 310 617 q 282 564 283 592 l 274 249 q 307 138 274 178 q 403 97 340 97 m 244 1025 q 388 931 282 931 q 531 1025 493 931 l 554 1019 l 593 972 q 521 848 572 897 q 388 799 469 799 q 254 848 306 799 q 182 972 203 897 l 221 1019 l 244 1025 z "},"Ů":{"ha":910,"x_min":25,"x_max":886,"o":"m 476 110 q 646 290 646 110 l 640 726 q 631 787 639 772 q 596 801 622 801 l 550 799 l 547 804 l 558 896 q 721 892 668 892 l 886 900 l 878 807 q 812 783 826 796 q 797 738 797 771 l 797 306 q 705 66 797 149 q 439 -17 613 -17 q 117 283 117 -17 l 117 726 q 108 787 117 772 q 72 801 100 801 l 28 799 l 25 804 l 38 896 q 236 892 157 892 l 401 900 l 392 806 q 333 785 349 800 q 314 732 317 769 l 304 328 q 349 167 304 224 q 476 110 393 110 m 475 1015 q 531 1065 531 1015 q 514 1108 531 1092 q 467 1124 497 1124 q 413 1074 413 1124 q 432 1030 413 1044 q 475 1015 451 1015 m 600 1076 q 600 1049 600 1076 q 563 982 600 1022 q 467 942 526 942 q 375 976 407 942 q 343 1068 343 1011 q 380 1163 343 1125 q 478 1200 417 1200 q 569 1165 539 1200 q 600 1076 600 1131 z "},"ů":{"ha":767,"x_min":28,"x_max":740,"o":"m 403 97 q 528 224 528 97 l 525 560 q 517 606 524 594 q 490 618 510 618 l 454 617 l 451 621 l 463 699 q 597 696 554 696 l 740 701 l 733 621 q 681 602 692 611 q 669 568 669 593 l 669 243 q 593 53 669 118 q 376 -12 517 -12 q 169 44 235 -12 q 103 219 103 101 l 103 560 q 95 607 103 596 q 65 618 88 618 l 31 617 l 28 621 l 39 699 q 213 696 140 696 l 353 701 l 344 619 q 297 604 310 617 q 282 564 283 592 l 274 249 q 307 138 274 178 q 403 97 340 97 m 403 818 q 458 868 458 818 q 442 910 458 894 q 394 926 425 926 q 340 876 340 926 q 360 833 340 847 q 403 818 379 818 m 528 879 q 528 852 528 879 q 491 785 528 825 q 394 744 454 744 q 303 779 335 744 q 271 871 271 814 q 308 965 271 928 q 406 1003 344 1003 q 497 968 467 1003 q 528 879 528 933 z "},"Ű":{"ha":910,"x_min":25,"x_max":886,"o":"m 476 110 q 646 290 646 110 l 640 726 q 631 787 639 772 q 596 801 622 801 l 550 799 l 547 804 l 558 896 q 721 892 668 892 l 886 900 l 878 807 q 812 783 826 796 q 797 738 797 771 l 797 306 q 705 66 797 149 q 439 -17 613 -17 q 117 283 117 -17 l 117 726 q 108 787 117 772 q 72 801 100 801 l 28 799 l 25 804 l 38 896 q 236 892 157 892 l 401 900 l 392 806 q 333 785 349 800 q 314 732 317 769 l 304 328 q 349 167 304 224 q 476 110 393 110 m 568 1103 l 567 1086 q 333 950 450 1022 l 314 957 l 282 1004 l 492 1190 l 508 1189 l 568 1103 m 801 1097 l 800 1081 q 565 944 682 1017 l 549 950 l 515 997 l 725 1183 l 742 1181 l 801 1097 z "},"ű":{"ha":767,"x_min":28,"x_max":740,"o":"m 403 97 q 528 224 528 97 l 525 560 q 517 606 524 594 q 490 618 510 618 l 454 617 l 451 621 l 463 699 q 597 696 554 696 l 740 701 l 733 621 q 681 602 692 611 q 669 568 669 593 l 669 243 q 593 53 669 118 q 376 -12 517 -12 q 169 44 235 -12 q 103 219 103 101 l 103 560 q 95 607 103 596 q 65 618 88 618 l 31 617 l 28 621 l 39 699 q 213 696 140 696 l 353 701 l 344 619 q 297 604 310 617 q 282 564 283 592 l 274 249 q 307 138 274 178 q 403 97 340 97 m 475 906 l 474 889 q 240 753 357 825 l 221 760 l 189 807 l 399 993 l 415 992 l 475 906 m 708 900 l 707 883 q 472 747 589 819 l 456 753 l 422 800 l 632 986 l 649 983 l 708 900 z "},"Ų":{"ha":910,"x_min":25,"x_max":886,"o":"m 606 -335 q 484 -301 529 -335 q 439 -217 439 -267 q 467 -120 439 -167 q 561 -3 494 -74 q 439 -17 510 -17 q 117 283 117 -17 l 117 726 q 108 787 117 772 q 72 801 100 801 l 28 799 l 25 804 l 38 896 q 236 892 157 892 l 401 900 l 392 806 q 333 785 349 800 q 314 732 317 769 l 304 328 q 349 166 304 222 q 476 110 394 110 q 646 290 646 110 l 640 726 q 631 787 639 772 q 596 801 622 801 l 550 799 l 547 804 l 558 896 q 721 892 668 892 l 886 900 l 878 807 q 812 783 826 796 q 797 738 797 771 l 797 306 q 703 61 797 168 q 581 -89 610 -46 q 553 -166 553 -132 q 572 -218 553 -200 q 617 -236 590 -236 q 721 -203 665 -236 l 747 -243 q 606 -335 675 -311 z "},"ų":{"ha":768,"x_min":28,"x_max":740,"o":"m 528 224 l 525 560 q 517 607 524 596 q 490 618 511 618 l 454 617 l 453 621 l 463 699 q 597 696 554 696 l 740 701 l 733 622 q 681 602 692 611 q 669 568 669 593 l 669 243 q 597 54 669 132 q 482 -88 510 -46 q 454 -165 454 -131 q 474 -217 454 -199 q 519 -236 493 -236 q 624 -203 568 -236 l 650 -243 q 508 -335 576 -311 q 387 -301 432 -335 q 342 -216 342 -267 q 371 -118 342 -165 q 464 -4 400 -71 q 372 -12 422 -12 q 103 219 103 -12 l 103 560 q 96 606 103 594 q 67 618 89 618 l 31 617 l 28 621 l 39 699 q 213 696 140 696 l 353 701 l 344 621 q 297 604 310 617 q 282 564 283 592 l 274 249 q 308 137 274 176 q 403 97 342 97 q 528 224 528 97 z "},"Ŵ":{"ha":1339,"x_min":-8,"x_max":1342,"o":"m 1 894 q 167 892 113 892 q 399 903 271 892 l 406 892 l 399 807 q 313 791 332 800 q 294 756 294 782 q 418 182 294 701 l 436 182 q 589 682 481 301 q 578 742 586 710 q 549 787 571 774 q 476 801 526 800 l 469 811 l 481 894 q 661 892 607 892 q 897 903 764 892 l 904 892 l 897 807 q 811 792 829 800 q 793 758 793 783 q 917 182 793 715 l 935 182 q 1035 499 965 265 q 1106 760 1106 733 q 1090 794 1106 786 q 1036 803 1075 803 l 983 803 l 976 813 l 988 899 q 1186 892 1101 892 l 1342 894 l 1332 803 q 1287 784 1300 797 q 1260 731 1274 771 l 1015 7 l 794 -21 q 675 475 772 107 l 661 475 l 517 7 l 293 -21 q 97 715 175 456 q 61 778 85 758 q -3 801 38 799 l -8 811 l 1 894 m 697 1217 q 785 1148 697 1218 q 915 1044 872 1078 l 882 988 l 860 982 q 683 1063 790 1017 q 508 982 617 1035 l 486 988 l 451 1044 q 669 1217 553 1118 l 697 1217 z "},"ŵ":{"ha":1139,"x_min":6,"x_max":1131,"o":"m 350 621 q 283 609 296 615 q 269 583 269 603 q 360 154 269 538 l 376 154 q 494 535 396 197 q 491 553 493 539 q 486 583 489 568 q 408 618 478 618 l 403 626 l 413 699 q 575 696 519 696 l 768 703 l 775 694 l 769 621 q 701 610 714 615 q 688 583 688 604 q 778 154 688 551 l 796 154 q 869 381 814 196 q 924 586 924 565 q 913 613 924 607 q 871 618 901 618 l 832 618 l 826 626 l 835 700 q 1000 696 932 696 l 1131 697 l 1122 619 q 1088 605 1099 615 q 1065 563 1076 594 l 875 6 l 663 -17 q 575 346 643 99 l 564 346 l 456 6 l 242 -17 q 89 550 144 375 q 11 618 69 614 q 6 626 8 624 l 15 699 q 157 696 106 696 l 350 703 l 357 694 l 350 621 m 597 1019 q 685 951 597 1021 q 815 847 772 881 l 782 790 l 760 785 q 583 865 690 819 q 408 785 517 838 l 386 790 l 351 847 q 569 1019 453 921 l 597 1019 z "},"Ŷ":{"ha":831,"x_min":-14,"x_max":844,"o":"m 513 896 l 697 890 l 839 896 l 844 886 l 835 801 q 747 747 781 783 q 667 624 714 710 l 533 375 q 508 183 508 326 q 508 155 508 179 q 522 112 508 131 q 574 93 535 93 l 643 97 l 647 90 l 635 -6 q 422 0 475 0 q 189 -15 351 0 l 199 81 q 301 115 278 90 q 324 211 324 140 l 324 253 q 283 394 324 318 l 147 660 q 83 756 114 726 q -10 799 51 786 l -14 806 l -3 894 q 176 890 121 890 l 399 901 l 406 889 l 399 808 q 333 797 351 807 q 315 770 315 788 q 340 692 315 753 q 433 481 396 554 l 447 481 l 557 710 q 576 776 576 749 q 506 808 576 804 l 503 815 l 513 896 m 464 1217 q 551 1148 464 1218 q 682 1044 639 1078 l 649 988 l 626 982 q 450 1063 557 1017 q 275 982 383 1035 l 253 988 l 218 1044 q 436 1217 319 1118 l 464 1217 z "},"ŷ":{"ha":728,"x_min":4,"x_max":725,"o":"m 440 699 l 600 694 l 721 699 l 725 690 l 717 617 q 644 570 674 601 q 581 479 615 539 l 472 285 q 453 150 453 246 q 453 128 453 146 q 465 95 453 110 q 507 81 476 81 l 565 83 l 568 78 l 558 -6 q 357 0 418 0 l 165 -11 l 174 71 q 261 96 242 78 q 281 168 281 114 l 281 196 q 249 303 281 243 l 133 511 q 82 579 108 557 q 8 614 56 601 l 4 619 l 14 697 q 168 694 124 694 l 357 703 l 364 692 l 356 622 q 293 590 293 621 q 335 488 293 575 q 382 389 378 400 l 394 389 l 474 549 q 490 599 490 582 q 435 622 490 621 l 432 628 l 440 699 m 408 1019 q 496 951 408 1021 q 626 847 583 881 l 593 790 l 571 785 q 394 865 501 819 q 219 785 328 838 l 197 790 l 163 847 q 381 1019 264 921 l 408 1019 z "},"Ÿ":{"ha":831,"x_min":-14,"x_max":844,"o":"m 513 896 l 697 890 l 839 896 l 844 886 l 835 801 q 747 747 781 783 q 667 624 714 710 l 533 375 q 508 183 508 326 q 508 155 508 179 q 522 112 508 131 q 574 93 535 93 l 643 97 l 647 90 l 635 -6 q 422 0 475 0 q 189 -15 351 0 l 199 81 q 301 115 278 90 q 324 211 324 140 l 324 253 q 283 394 324 318 l 147 660 q 83 756 114 726 q -10 799 51 786 l -14 806 l -3 894 q 176 890 121 890 l 399 901 l 406 889 l 399 808 q 333 797 351 807 q 315 770 315 788 q 340 692 315 753 q 433 481 396 554 l 447 481 l 557 710 q 576 776 576 749 q 506 808 576 804 l 503 815 l 513 896 m 660 1073 q 660 1053 660 1073 q 634 1007 660 1033 q 567 981 608 981 q 505 1003 526 981 q 483 1066 483 1026 q 510 1132 483 1106 q 576 1158 536 1158 q 638 1135 617 1158 q 660 1073 660 1113 m 413 1073 q 413 1053 413 1073 q 387 1007 413 1033 q 320 981 361 981 q 258 1003 279 981 q 236 1066 236 1026 q 262 1132 236 1106 q 328 1158 288 1158 q 390 1135 368 1158 q 413 1073 413 1113 z "},"Ź":{"ha":806,"x_min":26,"x_max":776,"o":"m 738 22 l 714 -4 l 165 4 l 61 -7 l 26 56 l 514 790 l 338 779 q 217 733 249 768 q 178 603 185 699 l 60 594 q 83 894 79 767 l 97 908 l 344 893 l 751 889 l 776 832 q 275 101 564 550 l 492 117 q 599 173 561 122 q 654 331 638 224 l 772 340 q 738 22 743 158 m 674 1076 l 665 1058 q 347 968 506 1018 l 329 981 l 311 1046 l 621 1190 l 638 1183 l 674 1076 z "},"ź":{"ha":694,"x_min":31,"x_max":664,"o":"m 632 18 l 611 -3 l 150 3 l 61 -6 l 31 47 l 424 606 l 293 596 q 198 562 222 588 q 169 464 174 536 l 60 457 q 78 699 75 597 l 90 710 l 294 697 l 640 694 l 664 646 q 258 90 458 392 l 422 104 q 509 149 479 111 q 551 267 539 186 l 660 276 q 632 18 636 125 m 594 879 l 586 861 q 268 771 426 821 l 250 783 l 232 849 l 542 993 l 558 986 l 594 879 z "},"Ż":{"ha":806,"x_min":26,"x_max":776,"o":"m 738 22 l 714 -4 l 165 4 l 61 -7 l 26 56 l 514 790 l 338 779 q 217 733 249 768 q 178 603 185 699 l 60 594 q 83 894 79 767 l 97 908 l 344 893 l 751 889 l 776 832 q 275 101 564 550 l 492 117 q 599 173 561 122 q 654 331 638 224 l 772 340 q 738 22 743 158 m 538 1085 q 538 1061 538 1085 q 507 1006 538 1038 q 428 975 476 975 q 354 1003 379 975 q 329 1077 329 1031 q 360 1155 329 1124 q 438 1186 390 1186 q 512 1159 486 1186 q 538 1085 538 1132 z "},"ż":{"ha":694,"x_min":31,"x_max":664,"o":"m 632 18 l 611 -3 l 150 3 l 61 -6 l 31 47 l 424 606 l 293 596 q 198 562 222 588 q 169 464 174 536 l 60 457 q 78 699 75 597 l 90 710 l 294 697 l 640 694 l 664 646 q 258 90 458 392 l 422 104 q 509 149 479 111 q 551 267 539 186 l 660 276 q 632 18 636 125 m 481 888 q 481 864 481 888 q 450 809 481 840 q 371 778 419 778 q 297 806 322 778 q 272 880 272 833 q 303 958 272 926 q 381 989 333 989 q 455 962 429 989 q 481 888 481 935 z "},"Ž":{"ha":806,"x_min":26,"x_max":776,"o":"m 738 22 l 714 -4 l 165 4 l 61 -7 l 26 56 l 514 790 l 338 779 q 217 733 249 768 q 178 603 185 699 l 60 594 q 83 894 79 767 l 97 908 l 344 893 l 751 889 l 776 832 q 275 101 564 550 l 492 117 q 599 173 561 122 q 654 331 638 224 l 772 340 q 738 22 743 158 m 629 1196 l 664 1139 q 446 967 563 1065 l 418 967 q 200 1139 303 1064 l 233 1196 l 256 1201 q 432 1121 325 1167 q 607 1201 499 1149 l 629 1196 z "},"ž":{"ha":694,"x_min":31,"x_max":664,"o":"m 632 18 l 611 -3 l 150 3 l 61 -6 l 31 47 l 424 606 l 293 596 q 198 562 222 588 q 169 464 174 536 l 60 457 q 78 699 75 597 l 90 710 l 294 697 l 640 694 l 664 646 q 258 90 458 392 l 422 104 q 509 149 479 111 q 551 267 539 186 l 660 276 q 632 18 636 125 m 571 999 l 606 942 q 388 769 504 868 l 360 769 q 142 942 244 867 l 175 999 l 197 1004 q 374 924 267 969 q 549 1004 440 951 l 571 999 z "},"ƒ":{"ha":578,"x_min":-54,"x_max":636,"o":"m 367 504 l 536 506 l 542 499 l 528 414 q 360 417 507 414 l 340 146 q 306 -44 332 38 q 213 -174 279 -125 q 68 -224 146 -224 q -15 -206 25 -224 q -54 -165 -54 -187 q -40 -97 -54 -142 q -12 -36 -26 -53 l 8 -36 q 46 -99 18 -74 q 107 -124 74 -124 q 179 0 175 -124 l 203 367 q 183 409 201 400 q 99 418 164 418 l 93 426 l 104 490 l 210 507 l 213 539 q 236 642 214 590 q 340 777 264 724 q 503 831 415 831 q 595 818 554 831 q 636 789 636 806 q 622 719 636 767 q 596 654 608 671 l 575 653 q 456 728 517 728 q 395 692 411 728 q 374 582 379 656 l 367 504 z "},"Ǻ":{"ha":868,"x_min":-17,"x_max":881,"o":"m 871 -4 q 704 0 761 0 q 465 -11 593 0 l 457 0 l 464 83 q 551 99 532 89 q 571 128 571 108 q 564 181 571 149 l 536 286 q 428 288 500 288 q 278 278 356 288 l 243 174 q 235 126 235 144 q 249 98 235 107 q 299 89 263 89 l 358 89 l 364 79 l 354 -8 q 151 0 240 0 l -17 -4 l -6 89 q 48 115 28 94 q 85 181 68 135 l 332 885 l 553 907 l 568 900 q 767 183 693 418 q 806 113 782 133 q 875 88 829 92 l 881 78 l 871 -4 m 408 397 q 511 403 453 397 l 431 708 l 411 708 l 311 397 l 408 397 m 456 1001 q 506 1046 506 1001 q 452 1099 506 1099 q 399 1054 399 1099 q 417 1015 399 1028 q 456 1001 435 1001 m 568 1056 q 568 1032 568 1056 q 535 972 568 1008 q 449 935 503 935 q 365 965 394 935 q 336 1048 336 996 q 369 1134 336 1100 q 458 1168 403 1168 q 541 1136 514 1168 q 568 1056 568 1104 m 624 1254 l 617 1239 q 331 1157 472 1203 l 314 1168 l 297 1228 l 576 1357 l 592 1351 l 624 1254 z "},"ǻ":{"ha":756,"x_min":1,"x_max":751,"o":"m 396 75 q 467 86 453 81 q 482 106 482 92 q 457 213 482 124 q 383 214 428 214 q 253 208 338 214 q 222 106 222 122 q 232 84 222 90 q 271 78 242 78 l 314 78 l 322 68 l 313 -6 q 143 0 215 0 l 1 -3 l 10 76 q 79 144 56 85 l 278 690 l 490 708 l 504 700 q 663 150 608 311 q 692 96 674 113 q 747 76 711 79 l 751 67 l 743 -3 q 599 0 651 0 l 397 -8 l 390 0 l 396 75 m 357 315 q 436 318 389 315 l 376 542 l 358 542 l 283 315 l 357 315 m 388 806 q 438 850 438 806 q 384 903 438 903 q 331 858 331 903 q 349 819 331 832 q 388 806 367 806 m 500 860 q 500 836 500 860 q 467 776 500 813 q 381 739 435 739 q 297 769 326 739 q 268 852 268 800 q 301 938 268 904 q 390 972 335 972 q 473 940 446 972 q 500 860 500 908 m 549 1057 l 542 1042 q 256 960 397 1006 l 239 971 l 222 1031 l 501 1160 l 517 1154 l 549 1057 z "},"Ǽ":{"ha":1210,"x_min":-6,"x_max":1178,"o":"m 443 83 q 536 102 514 89 q 558 142 558 115 q 536 346 558 175 l 415 331 l 299 308 l 236 174 q 221 121 221 139 q 237 96 221 103 q 297 89 253 89 l 343 82 l 335 -8 q 293 -6 333 -7 q 197 -2 253 -4 q 104 0 140 0 l 1 -4 l -6 79 q 33 110 8 82 q 78 181 57 139 l 367 771 q 332 801 361 801 l 289 799 l 281 811 l 292 896 q 701 892 446 892 q 1072 908 956 892 l 1083 893 q 1051 640 1058 769 l 925 632 q 928 688 928 668 q 897 760 928 744 q 784 775 867 775 q 689 768 701 775 q 675 738 676 761 l 711 485 l 844 501 l 978 528 l 993 514 l 975 397 l 849 388 l 726 374 l 754 203 q 785 131 763 153 q 851 108 808 108 q 1002 136 968 108 q 1050 268 1036 164 l 1168 278 l 1178 264 q 1139 6 1153 139 l 1126 -10 q 718 0 835 0 l 665 0 q 444 -11 567 0 l 438 0 l 443 83 m 350 440 l 440 446 l 526 457 l 494 708 l 474 708 l 350 440 m 907 1168 l 906 1149 q 643 969 772 1065 l 622 975 l 581 1029 q 813 1267 725 1174 l 832 1265 l 907 1168 z "},"ǽ":{"ha":1043,"x_min":10,"x_max":1004,"o":"m 475 124 l 460 258 l 363 247 l 268 226 l 226 136 q 214 101 214 115 q 226 82 214 86 q 276 78 239 78 l 308 71 l 300 -6 q 101 0 178 0 l 14 -3 l 10 72 q 78 144 42 78 l 304 592 q 275 618 299 618 l 242 617 l 232 626 l 242 699 q 603 696 383 696 q 919 708 822 696 l 929 696 q 903 493 908 594 l 785 485 q 788 528 788 513 q 763 582 788 571 q 676 593 739 593 q 604 588 614 593 q 593 564 594 583 l 621 385 l 724 399 l 836 422 l 849 408 l 835 307 l 731 297 l 636 285 l 656 169 q 732 96 668 96 q 847 117 821 96 q 885 218 874 139 l 994 226 l 1004 214 q 972 6 983 114 l 960 -7 q 615 0 700 0 l 569 0 l 385 -8 l 379 0 l 385 75 q 458 89 440 79 q 475 124 475 99 m 315 344 l 450 358 l 426 540 l 408 540 l 315 344 m 788 971 l 786 951 q 524 772 653 868 l 503 778 l 461 832 q 693 1069 606 976 l 713 1068 l 788 971 z "},"Ǿ":{"ha":936,"x_min":39,"x_max":897,"o":"m 183 65 q 39 412 39 182 q 164 775 39 642 q 494 908 289 908 q 660 879 586 908 l 742 1013 l 828 972 l 832 954 l 753 828 q 897 483 897 714 q 771 118 897 253 q 438 -17 644 -17 q 272 13 351 -17 l 175 -149 l 92 -108 l 88 -94 l 183 65 m 472 104 q 626 181 571 104 q 681 403 681 258 q 640 642 681 549 l 353 149 q 472 104 401 104 m 456 774 q 307 697 360 774 q 254 477 254 619 q 290 243 254 335 l 574 733 q 456 774 525 774 m 678 1085 l 669 1067 q 351 976 510 1026 l 333 989 l 315 1054 l 625 1199 l 642 1192 l 678 1085 z "},"ǿ":{"ha":792,"x_min":40,"x_max":751,"o":"m 149 60 q 40 328 40 151 q 142 607 40 506 q 417 708 243 708 q 550 688 492 708 l 625 799 l 708 757 l 710 742 l 640 639 q 751 372 751 551 q 649 90 751 193 q 374 -12 546 -12 q 235 10 299 -12 l 146 -121 l 65 -78 l 63 -67 l 149 60 m 311 125 q 409 94 346 94 q 512 149 472 94 q 551 306 551 203 q 531 471 551 408 l 311 125 m 240 378 q 256 226 240 290 l 469 564 q 386 590 432 590 q 240 378 240 590 m 597 899 l 589 881 q 271 790 429 840 l 253 803 l 235 868 l 544 1013 l 561 1006 l 597 899 z "},"Ș":{"ha":750,"x_min":94,"x_max":738,"o":"m 350 -17 q 224 -3 285 -17 q 106 36 163 10 l 94 56 q 117 292 115 178 l 233 301 q 265 147 233 188 q 374 107 297 107 q 491 136 451 107 q 531 214 531 165 q 512 267 531 249 q 483 295 493 286 q 449 318 474 304 q 413 338 424 332 q 368 358 401 343 q 166 485 226 428 q 106 631 106 542 q 210 831 106 753 q 476 908 314 908 q 686 881 594 908 l 715 871 l 725 853 q 692 614 701 740 l 586 606 l 574 615 q 575 664 575 638 q 544 751 575 725 q 448 776 513 776 q 346 749 383 776 q 308 678 308 721 q 419 556 308 611 q 496 519 443 544 q 581 476 549 494 q 656 425 613 458 q 738 264 738 363 q 632 60 738 136 q 350 -17 526 -17 m 249 -119 q 355 -71 310 -71 q 427 -103 400 -71 q 454 -198 454 -136 q 397 -326 454 -260 q 250 -442 339 -393 l 199 -400 l 199 -376 q 267 -308 240 -347 q 293 -235 293 -269 q 244 -139 293 -178 l 249 -119 z "},"ș":{"ha":647,"x_min":47,"x_max":594,"o":"m 265 -12 q 158 -2 210 -12 q 58 29 107 8 l 47 46 q 68 228 65 144 l 175 236 q 201 128 175 158 q 286 99 228 99 q 374 118 344 99 q 403 169 403 138 q 388 208 403 194 q 365 228 372 221 q 337 244 357 235 q 307 258 317 254 q 222 297 294 265 q 103 373 150 329 q 56 488 56 417 q 144 647 56 585 q 374 708 233 708 q 575 679 482 708 l 585 663 q 556 476 564 574 l 458 468 l 447 476 q 449 507 449 492 q 424 572 449 551 q 349 592 399 592 q 272 573 300 592 q 243 530 243 554 q 253 490 243 506 q 292 458 264 475 q 381 415 324 440 q 466 376 438 390 q 528 336 494 361 q 594 207 594 286 q 506 47 594 107 q 265 -12 417 -12 m 208 -119 q 315 -71 269 -71 q 387 -103 360 -71 q 414 -198 414 -136 q 356 -326 414 -260 q 210 -442 299 -393 l 158 -400 l 158 -376 q 226 -308 200 -347 q 253 -235 253 -269 q 204 -139 253 -178 l 208 -119 z "},"Ț":{"ha":790,"x_min":7,"x_max":782,"o":"m 300 229 l 300 782 q 211 776 240 781 q 163 748 182 771 q 138 697 143 725 q 124 601 132 668 l 7 593 q 22 892 19 756 l 38 907 l 178 892 l 610 892 l 753 907 l 768 892 l 782 601 l 665 593 q 626 751 650 722 q 497 782 601 779 q 482 188 482 556 q 499 115 482 136 q 558 93 517 93 l 632 97 l 638 90 l 625 -6 q 383 0 456 0 l 150 -8 l 161 83 q 276 116 253 92 q 300 229 300 140 m 290 -119 q 397 -71 351 -71 q 469 -103 442 -71 q 496 -198 496 -136 q 438 -326 496 -260 q 292 -442 381 -393 l 240 -400 l 240 -376 q 308 -308 282 -347 q 335 -235 335 -269 q 286 -139 335 -178 l 290 -119 z "},"ț":{"ha":683,"x_min":17,"x_max":665,"o":"m 256 179 l 256 597 q 157 572 179 596 q 124 453 135 547 l 17 446 q 29 694 26 583 l 42 708 l 163 696 l 521 696 l 642 708 l 656 694 l 665 453 l 558 446 q 526 572 546 549 q 435 597 507 594 q 424 154 424 394 q 438 97 424 114 q 486 81 451 81 l 546 83 l 551 78 l 540 -6 q 333 0 393 0 l 132 -8 l 140 74 q 235 98 215 79 q 256 179 256 117 m 244 -119 q 351 -71 306 -71 q 423 -103 396 -71 q 450 -198 450 -136 q 392 -326 450 -260 q 246 -442 335 -393 l 194 -400 l 194 -376 q 263 -308 236 -347 q 289 -235 289 -269 q 240 -139 289 -178 l 244 -119 z "},"ȷ":{"ha":408,"x_min":19,"x_max":375,"o":"m 126 136 l 128 561 q 120 607 128 596 q 89 618 113 618 l 43 615 l 35 626 l 44 696 l 190 696 l 375 704 l 368 622 q 322 606 332 617 q 310 564 313 596 q 296 104 296 321 q 237 -68 294 -3 q 54 -169 179 -133 l 19 -124 l 22 -110 q 106 -14 85 -62 q 126 136 126 35 z "},"ˆ":{"ha":553,"x_min":51,"x_max":500,"o":"m 92 743 l 51 800 q 263 1014 140 883 l 290 1014 q 500 800 401 894 l 460 743 l 439 738 q 276 853 411 760 q 114 738 178 789 l 92 743 z "},"ˇ":{"ha":553,"x_min":46,"x_max":506,"o":"m 46 943 l 88 1001 l 108 1006 q 276 888 182 947 q 442 1006 381 957 l 464 1001 l 506 943 q 289 724 414 857 l 261 724 q 46 943 147 846 z "},"˘":{"ha":553,"x_min":71,"x_max":482,"o":"m 133 986 q 276 892 171 892 q 419 986 382 892 l 443 981 l 482 933 q 410 809 461 858 q 276 760 358 760 q 143 809 194 760 q 71 933 92 858 l 110 981 l 133 986 z "},"˙":{"ha":553,"x_min":172,"x_max":381,"o":"m 381 907 q 381 883 381 907 q 350 828 381 860 q 271 797 319 797 q 197 825 222 797 q 172 899 172 853 q 203 977 172 946 q 281 1008 233 1008 q 355 981 329 1008 q 381 907 381 954 z "},"˚":{"ha":553,"x_min":147,"x_max":404,"o":"m 279 828 q 335 879 335 828 q 276 936 335 936 q 217 888 217 936 q 236 842 217 857 q 279 828 256 828 m 404 890 q 404 863 404 890 q 368 795 404 836 q 272 754 332 754 q 179 789 211 754 q 147 881 147 824 q 184 975 147 938 q 282 1013 221 1013 q 374 978 343 1013 q 404 890 404 943 z "},"˛":{"ha":553,"x_min":118,"x_max":425,"o":"m 283 -335 q 163 -301 208 -335 q 118 -211 118 -267 q 161 -97 118 -156 q 303 58 204 -39 l 378 58 q 260 -87 289 -44 q 231 -165 231 -131 q 250 -217 231 -199 q 296 -236 269 -236 q 400 -203 344 -236 l 425 -243 q 283 -335 353 -311 z "},"˜":{"ha":553,"x_min":26,"x_max":526,"o":"m 158 960 q 265 937 183 960 q 364 914 347 914 q 403 933 381 914 q 457 992 426 953 l 472 992 l 526 940 l 526 926 l 418 785 l 394 779 q 289 803 371 779 q 190 826 207 826 q 149 807 172 826 q 97 749 126 788 l 82 749 l 26 799 l 26 814 l 136 954 l 158 960 z "},"˝":{"ha":553,"x_min":68,"x_max":538,"o":"m 336 940 l 336 925 q 131 738 233 836 l 111 739 l 68 778 l 240 1008 l 257 1010 l 336 940 m 538 940 l 538 925 q 332 738 435 836 l 313 739 l 268 778 l 442 1008 l 457 1010 l 538 940 z "},"̣":{"ha":446,"x_min":115,"x_max":331,"o":"m 331 -181 q 331 -205 331 -181 q 300 -261 331 -229 q 219 -293 269 -293 q 142 -265 168 -293 q 115 -187 115 -236 q 146 -107 115 -139 q 226 -75 176 -75 q 303 -103 276 -75 q 331 -181 331 -132 z "},"Δ":{"ha":839,"x_min":14,"x_max":807,"o":"m 28 0 l 14 18 l 318 885 l 540 908 l 553 908 q 807 10 689 367 l 796 0 l 28 0 m 418 721 l 397 721 l 211 132 l 567 132 l 418 721 z "},"Ω":{"ha":1190,"x_min":33,"x_max":1154,"o":"m 633 65 q 768 235 731 150 q 806 467 806 321 q 752 694 806 614 q 597 774 699 774 q 438 704 496 774 q 379 507 379 635 q 547 67 379 207 l 525 -4 l 447 8 l 75 -7 l 50 19 q 33 286 50 119 l 131 296 q 169 158 142 197 q 257 115 197 118 l 358 110 q 164 500 164 278 q 290 792 164 675 q 605 908 417 908 q 908 803 793 908 q 1024 531 1024 699 q 814 108 1024 275 l 929 115 q 1014 156 986 118 q 1054 286 1042 193 l 1154 296 q 1138 19 1138 133 l 1111 -7 l 735 8 l 657 -3 l 633 65 z "},"π":{"ha":863,"x_min":-17,"x_max":836,"o":"m 672 508 q 657 252 657 325 q 682 153 657 179 q 774 128 707 128 l 786 107 q 738 36 786 89 q 674 -17 689 -17 q 540 27 582 -17 q 497 165 497 71 l 501 513 q 488 569 501 558 q 422 581 475 581 q 357 571 369 581 q 343 519 344 561 q 332 46 332 242 l 336 -92 l 326 -106 l 163 -136 l 153 -117 q 167 114 160 -100 q 174 501 174 328 q 165 558 174 543 q 133 572 156 572 q 88 555 111 572 q 38 503 65 538 l 26 501 l -17 560 l -15 571 l 88 692 l 108 701 q 376 694 197 701 q 592 688 554 688 q 828 701 675 688 l 836 692 l 818 594 l 808 585 q 703 571 728 585 q 672 508 678 557 z "},"Ẁ":{"ha":1339,"x_min":-8,"x_max":1342,"o":"m 1 894 q 167 892 113 892 q 399 903 271 892 l 406 892 l 399 807 q 313 791 332 800 q 294 756 294 782 q 418 182 294 701 l 436 182 q 589 682 481 301 q 578 742 586 710 q 549 787 571 774 q 476 801 526 800 l 469 811 l 481 894 q 661 892 607 892 q 897 903 764 892 l 904 892 l 897 807 q 811 792 829 800 q 793 758 793 783 q 917 182 793 715 l 935 182 q 1035 499 965 265 q 1106 760 1106 733 q 1090 794 1106 786 q 1036 803 1075 803 l 983 803 l 976 813 l 988 899 q 1186 892 1101 892 l 1342 894 l 1332 803 q 1287 784 1300 797 q 1260 731 1274 771 l 1015 7 l 794 -21 q 675 475 772 107 l 661 475 l 517 7 l 293 -21 q 97 715 175 456 q 61 778 85 758 q -3 801 38 799 l -8 811 l 1 894 m 457 1058 l 450 1076 l 486 1183 l 503 1190 q 813 1046 663 1111 l 794 981 l 775 968 q 457 1058 606 1021 z "},"ẁ":{"ha":1139,"x_min":6,"x_max":1131,"o":"m 350 621 q 283 609 296 615 q 269 583 269 603 q 360 154 269 538 l 376 154 q 494 535 396 197 q 491 553 493 539 q 486 583 489 568 q 408 618 478 618 l 403 626 l 413 699 q 575 696 519 696 l 768 703 l 775 694 l 769 621 q 701 610 714 615 q 688 583 688 604 q 778 154 688 551 l 796 154 q 869 381 814 196 q 924 586 924 565 q 913 613 924 607 q 871 618 901 618 l 832 618 l 826 626 l 835 700 q 1000 696 932 696 l 1131 697 l 1122 619 q 1088 605 1099 615 q 1065 563 1076 594 l 875 6 l 663 -17 q 575 346 643 99 l 564 346 l 456 6 l 242 -17 q 89 550 144 375 q 11 618 69 614 q 6 626 8 624 l 15 699 q 157 696 106 696 l 350 703 l 357 694 l 350 621 m 369 861 l 363 879 l 399 986 l 415 993 q 725 849 575 914 l 707 783 l 688 771 q 369 861 567 808 z "},"Ẃ":{"ha":1339,"x_min":-8,"x_max":1342,"o":"m 1 894 q 167 892 113 892 q 399 903 271 892 l 406 892 l 399 807 q 313 791 332 800 q 294 756 294 782 q 418 182 294 701 l 436 182 q 589 682 481 301 q 578 742 586 710 q 549 787 571 774 q 476 801 526 800 l 469 811 l 481 894 q 661 892 607 892 q 897 903 764 892 l 904 892 l 897 807 q 811 792 829 800 q 793 758 793 783 q 917 182 793 715 l 935 182 q 1035 499 965 265 q 1106 760 1106 733 q 1090 794 1106 786 q 1036 803 1075 803 l 983 803 l 976 813 l 988 899 q 1186 892 1101 892 l 1342 894 l 1332 803 q 1287 784 1300 797 q 1260 731 1274 771 l 1015 7 l 794 -21 q 675 475 772 107 l 661 475 l 517 7 l 293 -21 q 97 715 175 456 q 61 778 85 758 q -3 801 38 799 l -8 811 l 1 894 m 924 1076 l 915 1058 q 597 968 756 1018 l 579 981 l 561 1046 l 871 1190 l 888 1183 l 924 1076 z "},"ẃ":{"ha":1139,"x_min":6,"x_max":1131,"o":"m 350 621 q 283 609 296 615 q 269 583 269 603 q 360 154 269 538 l 376 154 q 494 535 396 197 q 491 553 493 539 q 486 583 489 568 q 408 618 478 618 l 403 626 l 413 699 q 575 696 519 696 l 768 703 l 775 694 l 769 621 q 701 610 714 615 q 688 583 688 604 q 778 154 688 551 l 796 154 q 869 381 814 196 q 924 586 924 565 q 913 613 924 607 q 871 618 901 618 l 832 618 l 826 626 l 835 700 q 1000 696 932 696 l 1131 697 l 1122 619 q 1088 605 1099 615 q 1065 563 1076 594 l 875 6 l 663 -17 q 575 346 643 99 l 564 346 l 456 6 l 242 -17 q 89 550 144 375 q 11 618 69 614 q 6 626 8 624 l 15 699 q 157 696 106 696 l 350 703 l 357 694 l 350 621 m 808 879 l 800 861 q 482 771 640 821 l 464 783 l 446 849 l 756 993 l 772 986 l 808 879 z "},"Ẅ":{"ha":1339,"x_min":-8,"x_max":1342,"o":"m 1 894 q 167 892 113 892 q 399 903 271 892 l 406 892 l 399 807 q 313 791 332 800 q 294 756 294 782 q 418 182 294 701 l 436 182 q 589 682 481 301 q 578 742 586 710 q 549 787 571 774 q 476 801 526 800 l 469 811 l 481 894 q 661 892 607 892 q 897 903 764 892 l 904 892 l 897 807 q 811 792 829 800 q 793 758 793 783 q 917 182 793 715 l 935 182 q 1035 499 965 265 q 1106 760 1106 733 q 1090 794 1106 786 q 1036 803 1075 803 l 983 803 l 976 813 l 988 899 q 1186 892 1101 892 l 1342 894 l 1332 803 q 1287 784 1300 797 q 1260 731 1274 771 l 1015 7 l 794 -21 q 675 475 772 107 l 661 475 l 517 7 l 293 -21 q 97 715 175 456 q 61 778 85 758 q -3 801 38 799 l -8 811 l 1 894 m 893 1073 q 893 1053 893 1073 q 867 1007 893 1033 q 801 981 842 981 q 738 1003 760 981 q 717 1066 717 1026 q 743 1132 717 1106 q 810 1158 769 1158 q 872 1135 850 1158 q 893 1073 893 1113 m 646 1073 q 646 1053 646 1073 q 620 1007 646 1033 q 553 981 594 981 q 491 1003 513 981 q 469 1066 469 1026 q 495 1132 469 1106 q 561 1158 521 1158 q 624 1135 601 1158 q 646 1073 646 1113 z "},"ẅ":{"ha":1139,"x_min":6,"x_max":1131,"o":"m 350 621 q 283 609 296 615 q 269 583 269 603 q 360 154 269 538 l 376 154 q 494 535 396 197 q 491 553 493 539 q 486 583 489 568 q 408 618 478 618 l 403 626 l 413 699 q 575 696 519 696 l 768 703 l 775 694 l 769 621 q 701 610 714 615 q 688 583 688 604 q 778 154 688 551 l 796 154 q 869 381 814 196 q 924 586 924 565 q 913 613 924 607 q 871 618 901 618 l 832 618 l 826 626 l 835 700 q 1000 696 932 696 l 1131 697 l 1122 619 q 1088 605 1099 615 q 1065 563 1076 594 l 875 6 l 663 -17 q 575 346 643 99 l 564 346 l 456 6 l 242 -17 q 89 550 144 375 q 11 618 69 614 q 6 626 8 624 l 15 699 q 157 696 106 696 l 350 703 l 357 694 l 350 621 m 794 876 q 794 856 794 876 q 769 810 794 836 q 702 783 743 783 q 640 806 661 783 q 618 869 618 829 q 644 935 618 908 q 710 961 669 961 q 773 938 751 961 q 794 876 794 915 m 547 876 q 547 856 547 876 q 522 810 547 836 q 455 783 496 783 q 392 806 414 783 q 371 869 371 829 q 397 935 371 908 q 463 961 422 961 q 525 938 503 961 q 547 876 547 915 z "},"Ỳ":{"ha":831,"x_min":-14,"x_max":844,"o":"m 513 896 l 697 890 l 839 896 l 844 886 l 835 801 q 747 747 781 783 q 667 624 714 710 l 533 375 q 508 183 508 326 q 508 155 508 179 q 522 112 508 131 q 574 93 535 93 l 643 97 l 647 90 l 635 -6 q 422 0 475 0 q 189 -15 351 0 l 199 81 q 301 115 278 90 q 324 211 324 140 l 324 253 q 283 394 324 318 l 147 660 q 83 756 114 726 q -10 799 51 786 l -14 806 l -3 894 q 176 890 121 890 l 399 901 l 406 889 l 399 808 q 333 797 351 807 q 315 770 315 788 q 340 692 315 753 q 433 481 396 554 l 447 481 l 557 710 q 576 776 576 749 q 506 808 576 804 l 503 815 l 513 896 m 224 1058 l 217 1076 l 253 1183 l 269 1190 q 579 1046 429 1111 l 561 981 l 542 968 q 224 1058 372 1021 z "},"ỳ":{"ha":728,"x_min":4,"x_max":725,"o":"m 440 699 l 600 694 l 721 699 l 725 690 l 717 617 q 644 570 674 601 q 581 479 615 539 l 472 285 q 453 150 453 246 q 453 128 453 146 q 465 95 453 110 q 507 81 476 81 l 565 83 l 568 78 l 558 -6 q 357 0 418 0 l 165 -11 l 174 71 q 261 96 242 78 q 281 168 281 114 l 281 196 q 249 303 281 243 l 133 511 q 82 579 108 557 q 8 614 56 601 l 4 619 l 14 697 q 168 694 124 694 l 357 703 l 364 692 l 356 622 q 293 590 293 621 q 335 488 293 575 q 382 389 378 400 l 394 389 l 474 549 q 490 599 490 582 q 435 622 490 621 l 432 628 l 440 699 m 181 861 l 174 879 l 210 986 l 226 993 q 536 849 386 914 l 518 783 l 499 771 q 181 861 378 808 z "},"–":{"ha":629,"x_min":-12,"x_max":643,"o":"m 628 296 l 0 294 l -12 313 l 3 418 l 338 418 q 632 424 632 418 l 643 403 l 628 296 z "},"—":{"ha":1217,"x_min":-12,"x_max":1229,"o":"m 1214 296 l 0 294 l -12 313 l 3 418 l 613 418 q 1218 424 1157 418 l 1229 403 l 1214 296 z "},"‘":{"ha":303,"x_min":39,"x_max":294,"o":"m 244 586 q 138 538 183 538 q 66 569 93 538 q 39 663 39 601 q 97 792 39 725 q 243 908 154 858 l 294 867 l 294 843 q 226 776 253 815 q 200 691 200 736 q 247 606 200 646 l 244 586 z "},"’":{"ha":303,"x_min":8,"x_max":264,"o":"m 58 860 q 165 908 121 908 q 237 876 210 908 q 264 781 264 843 q 206 653 264 719 q 60 538 149 586 l 8 579 l 8 603 q 76 669 50 631 q 103 744 103 708 q 54 840 103 801 l 58 860 z "},"‚":{"ha":331,"x_min":6,"x_max":269,"o":"m 67 150 q 174 197 129 197 q 244 164 218 197 q 269 66 269 131 q 208 -71 269 1 q 57 -194 147 -143 l 6 -153 l 6 -129 q 78 -56 50 -99 q 106 36 106 -12 q 63 131 106 85 l 67 150 z "},"“":{"ha":558,"x_min":39,"x_max":550,"o":"m 500 586 q 394 538 439 538 q 322 569 349 538 q 294 663 294 601 q 352 792 294 725 q 499 908 410 858 l 550 867 l 550 843 q 482 776 508 815 q 456 691 456 736 q 503 606 456 646 l 500 586 m 244 586 q 138 538 183 538 q 66 569 93 538 q 39 663 39 601 q 97 792 39 725 q 243 908 154 858 l 294 867 l 294 843 q 226 776 253 815 q 200 691 200 736 q 247 606 200 646 l 244 586 z "},"”":{"ha":558,"x_min":8,"x_max":519,"o":"m 314 860 q 421 908 376 908 q 492 876 465 908 q 519 781 519 843 q 462 653 519 719 q 315 538 404 586 l 264 579 l 264 603 q 332 669 306 631 q 358 744 358 708 q 310 840 358 801 l 314 860 m 58 860 q 165 908 121 908 q 237 876 210 908 q 264 781 264 843 q 206 653 264 719 q 60 538 149 586 l 8 579 l 8 603 q 76 669 50 631 q 103 744 103 708 q 54 840 103 801 l 58 860 z "},"„":{"ha":585,"x_min":17,"x_max":524,"o":"m 67 150 q 174 197 129 197 q 245 165 218 197 q 272 72 272 133 q 215 -57 272 10 q 68 -174 157 -124 l 17 -132 l 17 -108 q 85 -41 58 -81 q 111 35 111 -1 q 64 131 111 90 l 67 150 m 318 150 q 425 197 381 197 q 497 165 469 197 q 524 72 524 133 q 466 -57 524 10 q 319 -174 408 -124 l 268 -132 l 268 -108 q 336 -41 310 -81 q 363 35 363 -1 q 315 131 363 90 l 318 150 z "},"†":{"ha":711,"x_min":56,"x_max":656,"o":"m 421 440 l 421 -118 l 299 -126 l 286 -114 l 286 440 l 67 440 l 56 456 l 65 564 l 286 564 l 286 813 l 413 822 l 424 811 l 422 564 l 642 567 l 656 551 l 646 440 l 421 440 z "},"‡":{"ha":711,"x_min":56,"x_max":656,"o":"m 421 467 l 421 247 l 643 249 l 656 235 l 646 124 l 421 124 l 421 -118 l 299 -126 l 286 -114 l 286 124 l 67 124 l 56 138 l 65 246 l 286 247 l 286 467 l 67 467 l 56 482 l 65 590 l 286 590 l 286 813 l 413 822 l 424 811 l 422 590 l 643 592 l 656 578 l 646 467 l 421 467 z "},"•":{"ha":472,"x_min":69,"x_max":403,"o":"m 356 206 q 332 181 356 206 q 232 157 308 157 q 113 201 156 157 q 69 321 69 246 q 117 444 69 396 q 240 493 164 493 q 359 448 315 493 q 403 328 403 403 q 356 206 403 254 z "},"․":{"ha":331,"x_min":57,"x_max":274,"o":"m 243 17 q 228 1 243 17 q 161 -15 213 -15 q 83 13 110 -15 q 57 91 57 42 q 88 172 57 140 q 168 204 118 204 q 246 176 218 204 q 274 98 274 147 q 243 17 274 49 z "},"‥":{"ha":636,"x_min":57,"x_max":579,"o":"m 243 17 q 228 1 243 17 q 161 -15 213 -15 q 83 13 110 -15 q 57 91 57 42 q 88 172 57 140 q 168 204 118 204 q 246 176 218 204 q 274 98 274 147 q 243 17 274 49 m 549 17 q 533 1 549 17 q 467 -15 518 -15 q 389 13 415 -15 q 363 91 363 42 q 393 172 363 140 q 474 204 424 204 q 551 176 524 204 q 579 98 579 147 q 549 17 579 49 z "},"…":{"ha":940,"x_min":57,"x_max":883,"o":"m 549 17 q 533 1 549 17 q 467 -15 518 -15 q 389 13 415 -15 q 363 91 363 42 q 393 172 363 140 q 474 204 424 204 q 551 176 524 204 q 579 98 579 147 q 549 17 579 49 m 853 17 q 838 1 853 17 q 771 -15 822 -15 q 693 13 719 -15 q 667 91 667 42 q 697 172 667 140 q 778 204 728 204 q 856 176 828 204 q 883 98 883 147 q 853 17 883 49 m 243 17 q 228 1 243 17 q 161 -15 213 -15 q 83 13 110 -15 q 57 91 57 42 q 88 172 57 140 q 168 204 118 204 q 246 176 218 204 q 274 98 274 147 q 243 17 274 49 z "}}}
